<svg id="my-svg"  xmlns="http://www.w3.org/2000/svg" xmlns:xlink="http://www.w3.org/1999/xlink" class="flowchart" style="max-width: 1533.53px; background-color: white;" viewBox="0 0 1533.53125 383" role="graphics-document document" aria-roledescription="flowchart-v2" width="1227" height="306"><style>#my-svg{font-family:"trebuchet ms",verdana,arial,sans-serif;font-size:16px;fill:#000000;}@keyframes edge-animation-frame{from{stroke-dashoffset:0;}}@keyframes dash{to{stroke-dashoffset:0;}}#my-svg .edge-animation-slow{stroke-dasharray:9,5!important;stroke-dashoffset:900;animation:dash 50s linear infinite;stroke-linecap:round;}#my-svg .edge-animation-fast{stroke-dasharray:9,5!important;stroke-dashoffset:900;animation:dash 20s linear infinite;stroke-linecap:round;}#my-svg .error-icon{fill:#552222;}#my-svg .error-text{fill:#552222;stroke:#552222;}#my-svg .edge-thickness-normal{stroke-width:1px;}#my-svg .edge-thickness-thick{stroke-width:3.5px;}#my-svg .edge-pattern-solid{stroke-dasharray:0;}#my-svg .edge-thickness-invisible{stroke-width:0;fill:none;}#my-svg .edge-pattern-dashed{stroke-dasharray:3;}#my-svg .edge-pattern-dotted{stroke-dasharray:2;}#my-svg .marker{fill:#666;stroke:#666;}#my-svg .marker.cross{stroke:#666;}#my-svg svg{font-family:"trebuchet ms",verdana,arial,sans-serif;font-size:16px;}#my-svg p{margin:0;}#my-svg .label{font-family:"trebuchet ms",verdana,arial,sans-serif;color:#000000;}#my-svg .cluster-label text{fill:#333;}#my-svg .cluster-label span{color:#333;}#my-svg .cluster-label span p{background-color:transparent;}#my-svg .label text,#my-svg span{fill:#000000;color:#000000;}#my-svg .node rect,#my-svg .node circle,#my-svg .node ellipse,#my-svg .node polygon,#my-svg .node path{fill:#eee;stroke:#999;stroke-width:1px;}#my-svg .rough-node .label text,#my-svg .node .label text,#my-svg .image-shape .label,#my-svg .icon-shape .label{text-anchor:middle;}#my-svg .node .katex path{fill:#000;stroke:#000;stroke-width:1px;}#my-svg .rough-node .label,#my-svg .node .label,#my-svg .image-shape .label,#my-svg .icon-shape .label{text-align:center;}#my-svg .node.clickable{cursor:pointer;}#my-svg .root .anchor path{fill:#666!important;stroke-width:0;stroke:#666;}#my-svg .arrowheadPath{fill:#333333;}#my-svg .edgePath .path{stroke:#666;stroke-width:1px;}#my-svg .flowchart-link{stroke:#666;fill:none;}#my-svg .edgeLabel{background-color:white;text-align:center;}#my-svg .edgeLabel p{background-color:white;}#my-svg .edgeLabel rect{opacity:0.5;background-color:white;fill:white;}#my-svg .labelBkg{background-color:rgba(255, 255, 255, 0.5);}#my-svg .cluster rect{fill:hsl(0, 0%, 98.9215686275%);stroke:#707070;stroke-width:1px;}#my-svg .cluster text{fill:#333;}#my-svg .cluster span{color:#333;}#my-svg div.mermaidTooltip{position:absolute;text-align:center;max-width:200px;padding:2px;font-family:"trebuchet ms",verdana,arial,sans-serif;font-size:12px;background:hsl(-160, 0%, 93.3333333333%);border:1px solid #707070;border-radius:2px;pointer-events:none;z-index:100;}#my-svg .flowchartTitleText{text-anchor:middle;font-size:18px;fill:#000000;}#my-svg rect.text{fill:none;stroke-width:0;}#my-svg .icon-shape,#my-svg .image-shape{background-color:white;text-align:center;}#my-svg .icon-shape p,#my-svg .image-shape p{background-color:white;padding:2px;}#my-svg .icon-shape .label rect,#my-svg .image-shape .label rect{opacity:0.5;background-color:white;fill:white;}#my-svg .label-icon{display:inline-block;height:1em;overflow:visible;vertical-align:-0.125em;}#my-svg .node .label-icon path{fill:currentColor;stroke:revert;stroke-width:revert;}#my-svg .node .neo-node{stroke:#999;}#my-svg [data-look="neo"].node rect,#my-svg [data-look="neo"].cluster rect,#my-svg [data-look="neo"].node polygon{stroke:url(#my-svg-gradient);filter:drop-shadow( 1px 2px 2px rgba(185,185,185,1));}#my-svg [data-look="neo"].node path{stroke:url(#my-svg-gradient);stroke-width:1px;}#my-svg [data-look="neo"].node .outer-path{filter:drop-shadow( 1px 2px 2px rgba(185,185,185,1));}#my-svg [data-look="neo"].node .neo-line path{stroke:#999;filter:none;}#my-svg [data-look="neo"].node circle{stroke:url(#my-svg-gradient);filter:drop-shadow( 1px 2px 2px rgba(185,185,185,1));}#my-svg [data-look="neo"].node circle .state-start{fill:#000000;}#my-svg [data-look="neo"].icon-shape .icon{fill:url(#my-svg-gradient);filter:drop-shadow( 1px 2px 2px rgba(185,185,185,1));}#my-svg [data-look="neo"].icon-shape .icon-neo path{stroke:url(#my-svg-gradient);filter:drop-shadow( 1px 2px 2px rgba(185,185,185,1));}#my-svg :root{--mermaid-font-family:"trebuchet ms",verdana,arial,sans-serif;}</style><g><marker id="my-svg_flowchart-v2-pointEnd" class="marker flowchart-v2" viewBox="0 0 10 10" refX="5" refY="5" markerUnits="userSpaceOnUse" markerWidth="8" markerHeight="8" orient="auto"><path d="M 0 0 L 10 5 L 0 10 z" class="arrowMarkerPath" style="stroke-width: 1; stroke-dasharray: 1, 0;"/></marker><marker id="my-svg_flowchart-v2-pointStart" class="marker flowchart-v2" viewBox="0 0 10 10" refX="4.5" refY="5" markerUnits="userSpaceOnUse" markerWidth="8" markerHeight="8" orient="auto"><path d="M 0 5 L 10 10 L 10 0 z" class="arrowMarkerPath" style="stroke-width: 1; stroke-dasharray: 1, 0;"/></marker><marker id="my-svg_flowchart-v2-pointEnd-margin" class="marker flowchart-v2" viewBox="0 0 11.5 14" refX="11.5" refY="7" markerUnits="userSpaceOnUse" markerWidth="10.5" markerHeight="14" orient="auto"><path d="M 0 0 L 11.5 7 L 0 14 z" class="arrowMarkerPath" style="stroke-width: 0; stroke-dasharray: 1, 0;"/></marker><marker id="my-svg_flowchart-v2-pointStart-margin" class="marker flowchart-v2" viewBox="0 0 11.5 14" refX="1" refY="7" markerUnits="userSpaceOnUse" markerWidth="11.5" markerHeight="14" orient="auto"><polygon points="0,7 11.5,14 11.5,0" class="arrowMarkerPath" style="stroke-width: 0; stroke-dasharray: 1, 0;"/></marker><marker id="my-svg_flowchart-v2-circleEnd" class="marker flowchart-v2" viewBox="0 0 10 10" refX="11" refY="5" markerUnits="userSpaceOnUse" markerWidth="11" markerHeight="11" orient="auto"><circle cx="5" cy="5" r="5" class="arrowMarkerPath" style="stroke-width: 1; stroke-dasharray: 1, 0;"/></marker><marker id="my-svg_flowchart-v2-circleStart" class="marker flowchart-v2" viewBox="0 0 10 10" refX="-1" refY="5" markerUnits="userSpaceOnUse" markerWidth="11" markerHeight="11" orient="auto"><circle cx="5" cy="5" r="5" class="arrowMarkerPath" style="stroke-width: 1; stroke-dasharray: 1, 0;"/></marker><marker id="my-svg_flowchart-v2-circleEnd-margin" class="marker flowchart-v2" viewBox="0 0 10 10" refY="5" refX="12.25" markerUnits="userSpaceOnUse" markerWidth="14" markerHeight="14" orient="auto"><circle cx="5" cy="5" r="5" class="arrowMarkerPath" style="stroke-width: 0; stroke-dasharray: 1, 0;"/></marker><marker id="my-svg_flowchart-v2-circleStart-margin" class="marker flowchart-v2" viewBox="0 0 10 10" refX="-2" refY="5" markerUnits="userSpaceOnUse" markerWidth="14" markerHeight="14" orient="auto"><circle cx="5" cy="5" r="5" class="arrowMarkerPath" style="stroke-width: 0; stroke-dasharray: 1, 0;"/></marker><marker id="my-svg_flowchart-v2-crossEnd" class="marker cross flowchart-v2" viewBox="0 0 11 11" refX="12" refY="5.2" markerUnits="userSpaceOnUse" markerWidth="11" markerHeight="11" orient="auto"><path d="M 1,1 l 9,9 M 10,1 l -9,9" class="arrowMarkerPath" style="stroke-width: 2; stroke-dasharray: 1, 0;"/></marker><marker id="my-svg_flowchart-v2-crossStart" class="marker cross flowchart-v2" viewBox="0 0 11 11" refX="-1" refY="5.2" markerUnits="userSpaceOnUse" markerWidth="11" markerHeight="11" orient="auto"><path d="M 1,1 l 9,9 M 10,1 l -9,9" class="arrowMarkerPath" style="stroke-width: 2; stroke-dasharray: 1, 0;"/></marker><marker id="my-svg_flowchart-v2-crossEnd-margin" class="marker cross flowchart-v2" viewBox="0 0 15 15" refX="17.7" refY="7.5" markerUnits="userSpaceOnUse" markerWidth="12" markerHeight="12" orient="auto"><path d="M 1,1 L 14,14 M 1,14 L 14,1" class="arrowMarkerPath" style="stroke-width: 2.5;"/></marker><marker id="my-svg_flowchart-v2-crossStart-margin" class="marker cross flowchart-v2" viewBox="0 0 15 15" refX="-3.5" refY="7.5" markerUnits="userSpaceOnUse" markerWidth="12" markerHeight="12" orient="auto"><path d="M 1,1 L 14,14 M 1,14 L 14,1" class="arrowMarkerPath" style="stroke-width: 2.5; stroke-dasharray: 1, 0;"/></marker><g class="root"><g class="clusters"><g class="cluster" id="my-svg-解码器" data-look="classic"><rect style="" x="811.671875" y="8" width="713.859375" height="367"/><g class="cluster-label" transform="translate(1144.6015625, 8)"><foreignObject width="48" height="24"><div xmlns="http://www.w3.org/1999/xhtml" style="display: table-cell; white-space: nowrap; line-height: 1.5;"><span class="nodeLabel"><p>解码器</p></span></div></foreignObject></g></g><g class="cluster" id="my-svg-编码器" data-look="classic"><rect style="" x="8" y="8" width="725.21875" height="367"/><g class="cluster-label" transform="translate(346.609375, 8)"><foreignObject width="48" height="24"><div xmlns="http://www.w3.org/1999/xhtml" style="display: table-cell; white-space: nowrap; line-height: 1.5;"><span class="nodeLabel"><p>编码器</p></span></div></foreignObject></g></g></g><g class="edgePaths"><path d="M125,270L129.167,270C133.333,270,141.667,270,149.333,270C157,270,164,270,167.5,270L171,270" id="my-svg-L_X0_X1_0" class="edge-thickness-normal edge-pattern-solid edge-thickness-normal edge-pattern-solid flowchart-link" style=";" data-edge="true" data-et="edge" data-id="L_X0_X1_0" data-points="W3sieCI6MTI1LCJ5IjoyNzB9LHsieCI6MTUwLCJ5IjoyNzB9LHsieCI6MTc1LCJ5IjoyNzB9XQ==" data-look="classic" marker-end="url(#my-svg_flowchart-v2-pointEnd)"/><path d="M231.147,243L240.107,225.333C249.066,207.667,266.986,172.333,279.446,154.667C291.906,137,298.906,137,302.406,137L305.906,137" id="my-svg-L_X1_X2_0" class="edge-thickness-normal edge-pattern-solid edge-thickness-normal edge-pattern-solid flowchart-link" style=";" data-edge="true" data-et="edge" data-id="L_X1_X2_0" data-points="W3sieCI6MjMxLjE0NjYxNjU0MTM1MzM4LCJ5IjoyNDN9LHsieCI6Mjg0LjkwNjI1LCJ5IjoxMzd9LHsieCI6MzA5LjkwNjI1LCJ5IjoxMzd9XQ==" data-look="classic" marker-end="url(#my-svg_flowchart-v2-pointEnd)"/><path d="M394.813,117.489L398.979,115.575C403.146,113.66,411.479,109.83,419.146,107.915C426.813,106,433.813,106,437.313,106L440.813,106" id="my-svg-L_X2_X3_0" class="edge-thickness-normal edge-pattern-solid edge-thickness-normal edge-pattern-solid flowchart-link" style=";" data-edge="true" data-et="edge" data-id="L_X2_X3_0" data-points="W3sieCI6Mzk0LjgxMjUsInkiOjExNy40ODk0NjAyNzMzMzc5N30seyJ4Ijo0MTkuODEyNSwieSI6MTA2fSx7IngiOjQ0NC44MTI1LCJ5IjoxMDZ9XQ==" data-look="classic" marker-end="url(#my-svg_flowchart-v2-pointEnd)"/><path d="M529.719,91.254L537.518,88.545C545.318,85.836,560.917,80.418,575.849,77.709C590.781,75,605.047,75,612.18,75L619.313,75" id="my-svg-L_X3_X4_0" class="edge-thickness-normal edge-pattern-solid edge-thickness-normal edge-pattern-solid flowchart-link" style=";" data-edge="true" data-et="edge" data-id="L_X3_X4_0" data-points="W3sieCI6NTI5LjcxODc1LCJ5Ijo5MS4yNTQzNzY3NTA3MDAyN30seyJ4Ijo1NzYuNTE1NjI1LCJ5Ijo3NX0seyJ4Ijo2MjMuMzEyNSwieSI6NzV9XQ==" data-look="classic" marker-end="url(#my-svg_flowchart-v2-pointEnd)"/><path d="M708.219,64.93L712.385,63.942C716.552,62.953,724.885,60.977,735.59,59.988C746.294,59,759.37,59,772.445,59C785.521,59,798.596,59,808.647,59.712C818.698,60.423,825.725,61.846,829.238,62.558L832.751,63.269" id="my-svg-L_X4_X5_0" class="edge-thickness-normal edge-pattern-solid edge-thickness-normal edge-pattern-solid flowchart-link" style=";" data-edge="true" data-et="edge" data-id="L_X4_X5_0" data-points="W3sieCI6NzA4LjIxODc1LCJ5Ijo2NC45MzAwNDQwMTIwNDU0fSx7IngiOjczMy4yMTg3NSwieSI6NTl9LHsieCI6NzcyLjQ0NTMxMjUsInkiOjU5fSx7IngiOjgxMS42NzE4NzUsInkiOjU5fSx7IngiOjgzNi42NzE4NzUsInkiOjY0LjA2MzI5MTEzOTI0MDV9XQ==" data-look="classic" marker-end="url(#my-svg_flowchart-v2-pointEnd)"/><path d="M944.672,75L948.839,75C953.005,75,961.339,75,972.737,83.492C984.136,91.985,998.599,108.97,1005.831,117.462L1013.063,125.955" id="my-svg-L_X5_X6_0" class="edge-thickness-normal edge-pattern-solid edge-thickness-normal edge-pattern-solid flowchart-link" style=";" data-edge="true" data-et="edge" data-id="L_X5_X6_0" data-points="W3sieCI6OTQ0LjY3MTg3NSwieSI6NzV9LHsieCI6OTY5LjY3MTg3NSwieSI6NzV9LHsieCI6MTAxNS42NTYyNSwieSI6MTI5fV0=" data-look="classic" marker-end="url(#my-svg_flowchart-v2-pointEnd)"/><path d="M1082.625,156L1086.792,156C1090.958,156,1099.292,156,1111.258,166.629C1123.224,177.258,1138.823,198.517,1146.623,209.146L1154.423,219.775" id="my-svg-L_X6_X7_0" class="edge-thickness-normal edge-pattern-solid edge-thickness-normal edge-pattern-solid flowchart-link" style=";" data-edge="true" data-et="edge" data-id="L_X6_X7_0" data-points="W3sieCI6MTA4Mi42MjUsInkiOjE1Nn0seyJ4IjoxMTA3LjYyNSwieSI6MTU2fSx7IngiOjExNTYuNzg5MTQ1NjExNzAyMiwieSI6MjIzfV0=" data-look="classic" marker-end="url(#my-svg_flowchart-v2-pointEnd)"/><path d="M1220.578,250L1224.745,250C1228.911,250,1237.245,250,1246.406,253.765C1255.567,257.531,1265.557,265.061,1270.551,268.827L1275.546,272.592" id="my-svg-L_X7_X8_0" class="edge-thickness-normal edge-pattern-solid edge-thickness-normal edge-pattern-solid flowchart-link" style=";" data-edge="true" data-et="edge" data-id="L_X7_X8_0" data-points="W3sieCI6MTIyMC41NzgxMjUsInkiOjI1MH0seyJ4IjoxMjQ1LjU3ODEyNSwieSI6MjUwfSx7IngiOjEyNzguNzM5OTMzODk0MjMwNywieSI6Mjc1fV0=" data-look="classic" marker-end="url(#my-svg_flowchart-v2-pointEnd)"/><path d="M1358.531,302L1362.698,302C1366.865,302,1375.198,302,1382.865,302C1390.531,302,1397.531,302,1401.031,302L1404.531,302" id="my-svg-L_X8_Y_0" class="edge-thickness-normal edge-pattern-solid edge-thickness-normal edge-pattern-solid flowchart-link" style=";" data-edge="true" data-et="edge" data-id="L_X8_Y_0" data-points="W3sieCI6MTM1OC41MzEyNSwieSI6MzAyfSx7IngiOjEzODMuNTMxMjUsInkiOjMwMn0seyJ4IjoxNDA4LjUzMTI1LCJ5IjozMDJ9XQ==" data-look="classic" marker-end="url(#my-svg_flowchart-v2-pointEnd)"/><path d="M245.91,297L252.409,303.167C258.909,309.333,271.907,321.667,289.649,327.833C307.391,334,329.875,334,352.359,334C374.844,334,397.328,334,419.813,334C442.297,334,464.781,334,490.898,334C517.016,334,546.766,334,576.516,334C606.266,334,636.016,334,662.133,334C688.25,334,710.734,334,728.514,334C746.294,334,759.37,334,772.445,334C785.521,334,798.596,334,818.301,334C838.005,334,864.339,334,890.672,334C917.005,334,943.339,334,968.001,334C992.664,334,1015.656,334,1038.648,334C1061.641,334,1084.633,334,1107.625,334C1130.617,334,1153.609,334,1176.602,334C1199.594,334,1222.586,334,1237.644,332.348C1252.702,330.695,1259.826,327.39,1263.388,325.738L1266.95,324.085" id="my-svg-L_X1_X8_0" class="edge-thickness-normal edge-pattern-dotted edge-thickness-normal edge-pattern-solid flowchart-link" style=";" data-edge="true" data-et="edge" data-id="L_X1_X8_0" data-points="W3sieCI6MjQ1LjkwOTkxMjEwOTM3NSwieSI6Mjk3fSx7IngiOjI4NC45MDYyNSwieSI6MzM0fSx7IngiOjM1Mi4zNTkzNzUsInkiOjMzNH0seyJ4Ijo0MTkuODEyNSwieSI6MzM0fSx7IngiOjQ4Ny4yNjU2MjUsInkiOjMzNH0seyJ4Ijo1NzYuNTE1NjI1LCJ5IjozMzR9LHsieCI6NjY1Ljc2NTYyNSwieSI6MzM0fSx7IngiOjczMy4yMTg3NSwieSI6MzM0fSx7IngiOjc3Mi40NDUzMTI1LCJ5IjozMzR9LHsieCI6ODExLjY3MTg3NSwieSI6MzM0fSx7IngiOjg5MC42NzE4NzUsInkiOjMzNH0seyJ4Ijo5NjkuNjcxODc1LCJ5IjozMzR9LHsieCI6MTAzOC42NDg0Mzc1LCJ5IjozMzR9LHsieCI6MTEwNy42MjUsInkiOjMzNH0seyJ4IjoxMTc2LjYwMTU2MjUsInkiOjMzNH0seyJ4IjoxMjQ1LjU3ODEyNSwieSI6MzM0fSx7IngiOjEyNzAuNTc4MTI1LCJ5IjozMjIuNDAxODU3NTE1MDA3MzV9XQ==" data-look="classic" marker-end="url(#my-svg_flowchart-v2-pointEnd)"/><path d="M366.053,164L375.013,181.667C383.973,199.333,401.893,234.667,422.095,252.333C442.297,270,464.781,270,490.898,270C517.016,270,546.766,270,576.516,270C606.266,270,636.016,270,662.133,270C688.25,270,710.734,270,728.514,270C746.294,270,759.37,270,772.445,270C785.521,270,798.596,270,818.301,270C838.005,270,864.339,270,890.672,270C917.005,270,943.339,270,968.001,270C992.664,270,1015.656,270,1038.648,270C1061.641,270,1084.633,270,1099.655,268.978C1114.678,267.955,1121.73,265.91,1125.257,264.888L1128.783,263.865" id="my-svg-L_X2_X7_0" class="edge-thickness-normal edge-pattern-dotted edge-thickness-normal edge-pattern-solid flowchart-link" style=";" data-edge="true" data-et="edge" data-id="L_X2_X7_0" data-points="W3sieCI6MzY2LjA1Mjg2NjU0MTM1MzQsInkiOjE2NH0seyJ4Ijo0MTkuODEyNSwieSI6MjcwfSx7IngiOjQ4Ny4yNjU2MjUsInkiOjI3MH0seyJ4Ijo1NzYuNTE1NjI1LCJ5IjoyNzB9LHsieCI6NjY1Ljc2NTYyNSwieSI6MjcwfSx7IngiOjczMy4yMTg3NSwieSI6MjcwfSx7IngiOjc3Mi40NDUzMTI1LCJ5IjoyNzB9LHsieCI6ODExLjY3MTg3NSwieSI6MjcwfSx7IngiOjg5MC42NzE4NzUsInkiOjI3MH0seyJ4Ijo5NjkuNjcxODc1LCJ5IjoyNzB9LHsieCI6MTAzOC42NDg0Mzc1LCJ5IjoyNzB9LHsieCI6MTEwNy42MjUsInkiOjI3MH0seyJ4IjoxMTMyLjYyNSwieSI6MjYyLjc1MTE2MDk0Njg3OTZ9XQ==" data-look="classic" marker-end="url(#my-svg_flowchart-v2-pointEnd)"/><path d="M529.719,124.075L537.518,127.396C545.318,130.717,560.917,137.358,583.591,140.679C606.266,144,636.016,144,662.133,144C688.25,144,710.734,144,728.514,144C746.294,144,759.37,144,772.445,144C785.521,144,798.596,144,818.301,144C838.005,144,864.339,144,890.672,144C917.005,144,943.339,144,960.015,144.611C976.692,145.221,983.711,146.442,987.221,147.053L990.731,147.664" id="my-svg-L_X3_X6_0" class="edge-thickness-normal edge-pattern-dotted edge-thickness-normal edge-pattern-solid flowchart-link" style=";" data-edge="true" data-et="edge" data-id="L_X3_X6_0" data-points="W3sieCI6NTI5LjcxODc1LCJ5IjoxMjQuMDc1MjgwMTEyMDQ0ODJ9LHsieCI6NTc2LjUxNTYyNSwieSI6MTQ0fSx7IngiOjY2NS43NjU2MjUsInkiOjE0NH0seyJ4Ijo3MzMuMjE4NzUsInkiOjE0NH0seyJ4Ijo3NzIuNDQ1MzEyNSwieSI6MTQ0fSx7IngiOjgxMS42NzE4NzUsInkiOjE0NH0seyJ4Ijo4OTAuNjcxODc1LCJ5IjoxNDR9LHsieCI6OTY5LjY3MTg3NSwieSI6MTQ0fSx7IngiOjk5NC42NzE4NzUsInkiOjE0OC4zNDkzMDM0MzE4NzIyNH1d" data-look="classic" marker-end="url(#my-svg_flowchart-v2-pointEnd)"/><path d="M708.219,85.07L712.385,86.058C716.552,87.047,724.885,89.023,735.59,90.012C746.294,91,759.37,91,772.445,91C785.521,91,798.596,91,808.647,90.288C818.698,89.577,825.725,88.154,829.238,87.442L832.751,86.731" id="my-svg-L_X4_X5_2" class="edge-thickness-normal edge-pattern-dotted edge-thickness-normal edge-pattern-solid flowchart-link" style=";" data-edge="true" data-et="edge" data-id="L_X4_X5_2" data-points="W3sieCI6NzA4LjIxODc1LCJ5Ijo4NS4wNjk5NTU5ODc5NTQ2fSx7IngiOjczMy4yMTg3NSwieSI6OTF9LHsieCI6NzcyLjQ0NTMxMjUsInkiOjkxfSx7IngiOjgxMS42NzE4NzUsInkiOjkxfSx7IngiOjgzNi42NzE4NzUsInkiOjg1LjkzNjcwODg2MDc1OTV9XQ==" data-look="classic" marker-end="url(#my-svg_flowchart-v2-pointEnd)"/><path d="M259.906,290.14L264.073,292.117C268.24,294.093,276.573,298.047,291.982,300.023C307.391,302,329.875,302,352.359,302C374.844,302,397.328,302,419.813,302C442.297,302,464.781,302,490.898,302C517.016,302,546.766,302,576.516,302C606.266,302,636.016,302,662.133,302C688.25,302,710.734,302,728.514,302C746.294,302,759.37,302,772.445,302C785.521,302,798.596,302,818.301,302C838.005,302,864.339,302,890.672,302C917.005,302,943.339,302,968.001,302C992.664,302,1015.656,302,1038.648,302C1061.641,302,1084.633,302,1101.124,298.235C1117.614,294.469,1127.604,286.939,1132.598,283.173L1137.593,279.408" id="my-svg-L_X1_X7_0" class="edge-thickness-normal edge-pattern-solid edge-thickness-normal edge-pattern-solid flowchart-link" style=";" data-edge="true" data-et="edge" data-id="L_X1_X7_0" data-points="W3sieCI6MjU5LjkwNjI1LCJ5IjoyOTAuMTM5OTExOTc1OTA5Mn0seyJ4IjoyODQuOTA2MjUsInkiOjMwMn0seyJ4IjozNTIuMzU5Mzc1LCJ5IjozMDJ9LHsieCI6NDE5LjgxMjUsInkiOjMwMn0seyJ4Ijo0ODcuMjY1NjI1LCJ5IjozMDJ9LHsieCI6NTc2LjUxNTYyNSwieSI6MzAyfSx7IngiOjY2NS43NjU2MjUsInkiOjMwMn0seyJ4Ijo3MzMuMjE4NzUsInkiOjMwMn0seyJ4Ijo3NzIuNDQ1MzEyNSwieSI6MzAyfSx7IngiOjgxMS42NzE4NzUsInkiOjMwMn0seyJ4Ijo4OTAuNjcxODc1LCJ5IjozMDJ9LHsieCI6OTY5LjY3MTg3NSwieSI6MzAyfSx7IngiOjEwMzguNjQ4NDM3NSwieSI6MzAyfSx7IngiOjExMDcuNjI1LCJ5IjozMDJ9LHsieCI6MTE0MC43ODY4MDg4OTQyMzA3LCJ5IjoyNzd9XQ==" data-look="classic" marker-end="url(#my-svg_flowchart-v2-pointEnd)"/><path d="M386.086,164L391.707,168.5C397.328,173,408.57,182,425.434,186.5C442.297,191,464.781,191,490.898,191C517.016,191,546.766,191,576.516,191C606.266,191,636.016,191,662.133,191C688.25,191,710.734,191,728.514,191C746.294,191,759.37,191,772.445,191C785.521,191,798.596,191,818.301,191C838.005,191,864.339,191,890.672,191C917.005,191,943.339,191,960.077,189.187C976.816,187.375,983.961,183.75,987.533,181.937L991.105,180.125" id="my-svg-L_X2_X6_0" class="edge-thickness-normal edge-pattern-solid edge-thickness-normal edge-pattern-solid flowchart-link" style=";" data-edge="true" data-et="edge" data-id="L_X2_X6_0" data-points="W3sieCI6Mzg2LjA4NTkzNzUsInkiOjE2NH0seyJ4Ijo0MTkuODEyNSwieSI6MTkxfSx7IngiOjQ4Ny4yNjU2MjUsInkiOjE5MX0seyJ4Ijo1NzYuNTE1NjI1LCJ5IjoxOTF9LHsieCI6NjY1Ljc2NTYyNSwieSI6MTkxfSx7IngiOjczMy4yMTg3NSwieSI6MTkxfSx7IngiOjc3Mi40NDUzMTI1LCJ5IjoxOTF9LHsieCI6ODExLjY3MTg3NSwieSI6MTkxfSx7IngiOjg5MC42NzE4NzUsInkiOjE5MX0seyJ4Ijo5NjkuNjcxODc1LCJ5IjoxOTF9LHsieCI6OTk0LjY3MTg3NSwieSI6MTc4LjMxNDUzMTY1NzAzOTN9XQ==" data-look="classic" marker-end="url(#my-svg_flowchart-v2-pointEnd)"/><path d="M259.906,249.86L264.073,247.883C268.24,245.907,276.573,241.953,291.982,239.977C307.391,238,329.875,238,352.359,238C374.844,238,397.328,238,419.813,238C442.297,238,464.781,238,490.898,238C517.016,238,546.766,238,576.516,238C606.266,238,636.016,238,662.133,238C688.25,238,710.734,238,728.514,238C746.294,238,759.37,238,772.445,238C785.521,238,798.596,238,818.301,238C838.005,238,864.339,238,890.672,238C917.005,238,943.339,238,963.787,229.344C984.235,220.687,998.798,203.374,1006.08,194.718L1013.362,186.061" id="my-svg-L_X1_X6_0" class="edge-thickness-normal edge-pattern-solid edge-thickness-normal edge-pattern-solid flowchart-link" style=";" data-edge="true" data-et="edge" data-id="L_X1_X6_0" data-points="W3sieCI6MjU5LjkwNjI1LCJ5IjoyNDkuODYwMDg4MDI0MDkwOH0seyJ4IjoyODQuOTA2MjUsInkiOjIzOH0seyJ4IjozNTIuMzU5Mzc1LCJ5IjoyMzh9LHsieCI6NDE5LjgxMjUsInkiOjIzOH0seyJ4Ijo0ODcuMjY1NjI1LCJ5IjoyMzh9LHsieCI6NTc2LjUxNTYyNSwieSI6MjM4fSx7IngiOjY2NS43NjU2MjUsInkiOjIzOH0seyJ4Ijo3MzMuMjE4NzUsInkiOjIzOH0seyJ4Ijo3NzIuNDQ1MzEyNSwieSI6MjM4fSx7IngiOjgxMS42NzE4NzUsInkiOjIzOH0seyJ4Ijo4OTAuNjcxODc1LCJ5IjoyMzh9LHsieCI6OTY5LjY3MTg3NSwieSI6MjM4fSx7IngiOjEwMTUuOTM2NjQyNTMwNDg3OCwieSI6MTgzfV0=" data-look="classic" marker-end="url(#my-svg_flowchart-v2-pointEnd)"/></g><g class="edgeLabels"><g class="edgeLabel"><g class="label" data-id="L_X0_X1_0" transform="translate(0, 0)"><foreignObject width="0" height="0"><div xmlns="http://www.w3.org/1999/xhtml" class="labelBkg" style="display: table-cell; white-space: nowrap; line-height: 1.5; max-width: 200px; text-align: center;"><span class="edgeLabel"></span></div></foreignObject></g></g><g class="edgeLabel"><g class="label" data-id="L_X1_X2_0" transform="translate(0, 0)"><foreignObject width="0" height="0"><div xmlns="http://www.w3.org/1999/xhtml" class="labelBkg" style="display: table-cell; white-space: nowrap; line-height: 1.5; max-width: 200px; text-align: center;"><span class="edgeLabel"></span></div></foreignObject></g></g><g class="edgeLabel"><g class="label" data-id="L_X2_X3_0" transform="translate(0, 0)"><foreignObject width="0" height="0"><div xmlns="http://www.w3.org/1999/xhtml" class="labelBkg" style="display: table-cell; white-space: nowrap; line-height: 1.5; max-width: 200px; text-align: center;"><span class="edgeLabel"></span></div></foreignObject></g></g><g class="edgeLabel"><g class="label" data-id="L_X3_X4_0" transform="translate(0, 0)"><foreignObject width="0" height="0"><div xmlns="http://www.w3.org/1999/xhtml" class="labelBkg" style="display: table-cell; white-space: nowrap; line-height: 1.5; max-width: 200px; text-align: center;"><span class="edgeLabel"></span></div></foreignObject></g></g><g class="edgeLabel"><g class="label" data-id="L_X4_X5_0" transform="translate(0, 0)"><foreignObject width="0" height="0"><div xmlns="http://www.w3.org/1999/xhtml" class="labelBkg" style="display: table-cell; white-space: nowrap; line-height: 1.5; max-width: 200px; text-align: center;"><span class="edgeLabel"></span></div></foreignObject></g></g><g class="edgeLabel"><g class="label" data-id="L_X5_X6_0" transform="translate(0, 0)"><foreignObject width="0" height="0"><div xmlns="http://www.w3.org/1999/xhtml" class="labelBkg" style="display: table-cell; white-space: nowrap; line-height: 1.5; max-width: 200px; text-align: center;"><span class="edgeLabel"></span></div></foreignObject></g></g><g class="edgeLabel"><g class="label" data-id="L_X6_X7_0" transform="translate(0, 0)"><foreignObject width="0" height="0"><div xmlns="http://www.w3.org/1999/xhtml" class="labelBkg" style="display: table-cell; white-space: nowrap; line-height: 1.5; max-width: 200px; text-align: center;"><span class="edgeLabel"></span></div></foreignObject></g></g><g class="edgeLabel"><g class="label" data-id="L_X7_X8_0" transform="translate(0, 0)"><foreignObject width="0" height="0"><div xmlns="http://www.w3.org/1999/xhtml" class="labelBkg" style="display: table-cell; white-space: nowrap; line-height: 1.5; max-width: 200px; text-align: center;"><span class="edgeLabel"></span></div></foreignObject></g></g><g class="edgeLabel"><g class="label" data-id="L_X8_Y_0" transform="translate(0, 0)"><foreignObject width="0" height="0"><div xmlns="http://www.w3.org/1999/xhtml" class="labelBkg" style="display: table-cell; white-space: nowrap; line-height: 1.5; max-width: 200px; text-align: center;"><span class="edgeLabel"></span></div></foreignObject></g></g><g class="edgeLabel" transform="translate(772.4453125, 334)"><g class="label" data-id="L_X1_X8_0" transform="translate(-14.2265625, -12)"><foreignObject width="28.453125" height="24"><div xmlns="http://www.w3.org/1999/xhtml" class="labelBkg" style="display: table-cell; white-space: nowrap; line-height: 1.5; max-width: 200px; text-align: center;"><span class="edgeLabel"><p>skip</p></span></div></foreignObject></g></g><g class="edgeLabel" transform="translate(772.4453125, 270)"><g class="label" data-id="L_X2_X7_0" transform="translate(-14.2265625, -12)"><foreignObject width="28.453125" height="24"><div xmlns="http://www.w3.org/1999/xhtml" class="labelBkg" style="display: table-cell; white-space: nowrap; line-height: 1.5; max-width: 200px; text-align: center;"><span class="edgeLabel"><p>skip</p></span></div></foreignObject></g></g><g class="edgeLabel" transform="translate(772.4453125, 144)"><g class="label" data-id="L_X3_X6_0" transform="translate(-14.2265625, -12)"><foreignObject width="28.453125" height="24"><div xmlns="http://www.w3.org/1999/xhtml" class="labelBkg" style="display: table-cell; white-space: nowrap; line-height: 1.5; max-width: 200px; text-align: center;"><span class="edgeLabel"><p>skip</p></span></div></foreignObject></g></g><g class="edgeLabel" transform="translate(772.4453125, 91)"><g class="label" data-id="L_X4_X5_2" transform="translate(-14.2265625, -12)"><foreignObject width="28.453125" height="24"><div xmlns="http://www.w3.org/1999/xhtml" class="labelBkg" style="display: table-cell; white-space: nowrap; line-height: 1.5; max-width: 200px; text-align: center;"><span class="edgeLabel"><p>skip</p></span></div></foreignObject></g></g><g class="edgeLabel" transform="translate(665.765625, 302)"><g class="label" data-id="L_X1_X7_0" transform="translate(-21.796875, -12)"><foreignObject width="43.59375" height="24"><div xmlns="http://www.w3.org/1999/xhtml" class="labelBkg" style="display: table-cell; white-space: nowrap; line-height: 1.5; max-width: 200px; text-align: center;"><span class="edgeLabel"><p>dense</p></span></div></foreignObject></g></g><g class="edgeLabel" transform="translate(665.765625, 191)"><g class="label" data-id="L_X2_X6_0" transform="translate(-21.796875, -12)"><foreignObject width="43.59375" height="24"><div xmlns="http://www.w3.org/1999/xhtml" class="labelBkg" style="display: table-cell; white-space: nowrap; line-height: 1.5; max-width: 200px; text-align: center;"><span class="edgeLabel"><p>dense</p></span></div></foreignObject></g></g><g class="edgeLabel" transform="translate(576.515625, 238)"><g class="label" data-id="L_X1_X6_0" transform="translate(-21.796875, -12)"><foreignObject width="43.59375" height="24"><div xmlns="http://www.w3.org/1999/xhtml" class="labelBkg" style="display: table-cell; white-space: nowrap; line-height: 1.5; max-width: 200px; text-align: center;"><span class="edgeLabel"><p>dense</p></span></div></foreignObject></g></g></g><g class="nodes"><g class="node default" id="my-svg-flowchart-X0-0" data-look="classic" transform="translate(79, 270)"><rect class="basic label-container" style="" x="-46" y="-27" width="92" height="54"/><g class="label" style="" transform="translate(-16, -12)"><rect/><foreignObject width="32" height="24"><div xmlns="http://www.w3.org/1999/xhtml" style="display: table-cell; white-space: nowrap; line-height: 1.5; max-width: 200px; text-align: center;"><span class="nodeLabel"><p>输入</p></span></div></foreignObject></g></g><g class="node default" id="my-svg-flowchart-X1-1" data-look="classic" transform="translate(217.453125, 270)"><rect class="basic label-container" style="" x="-42.453125" y="-27" width="84.90625" height="54"/><g class="label" style="" transform="translate(-12.453125, -12)"><rect/><foreignObject width="24.90625" height="24"><div xmlns="http://www.w3.org/1999/xhtml" style="display: table-cell; white-space: nowrap; line-height: 1.5; max-width: 200px; text-align: center;"><span class="nodeLabel"><p>层1</p></span></div></foreignObject></g></g><g class="node default" id="my-svg-flowchart-X2-3" data-look="classic" transform="translate(352.359375, 137)"><rect class="basic label-container" style="" x="-42.453125" y="-27" width="84.90625" height="54"/><g class="label" style="" transform="translate(-12.453125, -12)"><rect/><foreignObject width="24.90625" height="24"><div xmlns="http://www.w3.org/1999/xhtml" style="display: table-cell; white-space: nowrap; line-height: 1.5; max-width: 200px; text-align: center;"><span class="nodeLabel"><p>层2</p></span></div></foreignObject></g></g><g class="node default" id="my-svg-flowchart-X3-5" data-look="classic" transform="translate(487.265625, 106)"><rect class="basic label-container" style="" x="-42.453125" y="-27" width="84.90625" height="54"/><g class="label" style="" transform="translate(-12.453125, -12)"><rect/><foreignObject width="24.90625" height="24"><div xmlns="http://www.w3.org/1999/xhtml" style="display: table-cell; white-space: nowrap; line-height: 1.5; max-width: 200px; text-align: center;"><span class="nodeLabel"><p>层3</p></span></div></foreignObject></g></g><g class="node default" id="my-svg-flowchart-X4-7" data-look="classic" transform="translate(665.765625, 75)"><rect class="basic label-container" style="" x="-42.453125" y="-27" width="84.90625" height="54"/><g class="label" style="" transform="translate(-12.453125, -12)"><rect/><foreignObject width="24.90625" height="24"><div xmlns="http://www.w3.org/1999/xhtml" style="display: table-cell; white-space: nowrap; line-height: 1.5; max-width: 200px; text-align: center;"><span class="nodeLabel"><p>层4</p></span></div></foreignObject></g></g><g class="node default" id="my-svg-flowchart-X5-9" data-look="classic" transform="translate(890.671875, 75)"><rect class="basic label-container" style="" x="-54" y="-27" width="108" height="54"/><g class="label" style="" transform="translate(-24, -12)"><rect/><foreignObject width="48" height="24"><div xmlns="http://www.w3.org/1999/xhtml" style="display: table-cell; white-space: nowrap; line-height: 1.5; max-width: 200px; text-align: center;"><span class="nodeLabel"><p>上采样</p></span></div></foreignObject></g></g><g class="node default" id="my-svg-flowchart-X6-11" data-look="classic" transform="translate(1038.6484375, 156)"><rect class="basic label-container" style="" x="-43.9765625" y="-27" width="87.953125" height="54"/><g class="label" style="" transform="translate(-13.9765625, -12)"><rect/><foreignObject width="27.953125" height="24"><div xmlns="http://www.w3.org/1999/xhtml" style="display: table-cell; white-space: nowrap; line-height: 1.5; max-width: 200px; text-align: center;"><span class="nodeLabel"><p>层3'</p></span></div></foreignObject></g></g><g class="node default" id="my-svg-flowchart-X7-13" data-look="classic" transform="translate(1176.6015625, 250)"><rect class="basic label-container" style="" x="-43.9765625" y="-27" width="87.953125" height="54"/><g class="label" style="" transform="translate(-13.9765625, -12)"><rect/><foreignObject width="27.953125" height="24"><div xmlns="http://www.w3.org/1999/xhtml" style="display: table-cell; white-space: nowrap; line-height: 1.5; max-width: 200px; text-align: center;"><span class="nodeLabel"><p>层2'</p></span></div></foreignObject></g></g><g class="node default" id="my-svg-flowchart-X8-15" data-look="classic" transform="translate(1314.5546875, 302)"><rect class="basic label-container" style="" x="-43.9765625" y="-27" width="87.953125" height="54"/><g class="label" style="" transform="translate(-13.9765625, -12)"><rect/><foreignObject width="27.953125" height="24"><div xmlns="http://www.w3.org/1999/xhtml" style="display: table-cell; white-space: nowrap; line-height: 1.5; max-width: 200px; text-align: center;"><span class="nodeLabel"><p>层1'</p></span></div></foreignObject></g></g><g class="node default" id="my-svg-flowchart-Y-17" data-look="classic" transform="translate(1454.53125, 302)"><rect class="basic label-container" style="" x="-46" y="-27" width="92" height="54"/><g class="label" style="" transform="translate(-16, -12)"><rect/><foreignObject width="32" height="24"><div xmlns="http://www.w3.org/1999/xhtml" style="display: table-cell; white-space: nowrap; line-height: 1.5; max-width: 200px; text-align: center;"><span class="nodeLabel"><p>输出</p></span></div></foreignObject></g></g></g></g></g><defs><filter id="my-svg-drop-shadow" height="130%" width="130%"><feDropShadow dx="4" dy="4" stdDeviation="0" flood-opacity="0.06" flood-color="#000000"/></filter></defs><defs><filter id="my-svg-drop-shadow-small" height="150%" width="150%"><feDropShadow dx="2" dy="2" stdDeviation="0" flood-opacity="0.06" flood-color="#000000"/></filter></defs><linearGradient id="my-svg-gradient" gradientUnits="objectBoundingBox" x1="0%" y1="0%" x2="100%" y2="0%"><stop offset="0%" stop-color="hsl(0, 0%, 83.3333333333%)" stop-opacity="1"/><stop offset="100%" stop-color="hsl(0, 0%, 88.9215686275%)" stop-opacity="1"/></linearGradient></svg>