<?xml version="1.0" encoding="UTF-8"?>
<svg xmlns="http://www.w3.org/2000/svg" xmlns:xlink="http://www.w3.org/1999/xlink" width="397.65" height="156.7" viewBox="0 0 397.65 156.7">
<defs>
<g>
<g id="glyph-0-0">
<path d="M 4.75 0 L 4.75 -4.84375 L 3.890625 -4.84375 L 3.890625 -1.671875 C 3.890625 -0.859375 3.28125 -0.484375 2.578125 -0.484375 C 1.8125 -0.484375 1.734375 -0.765625 1.734375 -1.234375 L 1.734375 -4.84375 L 0.890625 -4.84375 L 0.890625 -1.1875 C 0.890625 -0.40625 1.140625 0.125 2.046875 0.125 C 2.625 0.125 3.390625 -0.046875 3.921875 -0.53125 L 3.921875 0 Z M 4.75 0 "/>
</g>
<g id="glyph-0-1">
<path d="M 5.234375 -2.4375 C 5.234375 -3.734375 4.546875 -4.96875 3.5 -4.96875 C 2.84375 -4.96875 2.21875 -4.734375 1.71875 -4.3125 L 1.71875 -4.84375 L 0.890625 -4.84375 L 0.890625 2.109375 L 1.75 2.109375 L 1.75 -0.5 C 2.078125 -0.1875 2.5625 0.125 3.21875 0.125 C 4.28125 0.125 5.234375 -0.953125 5.234375 -2.4375 Z M 4.390625 -2.4375 C 4.390625 -1.3125 3.609375 -0.546875 2.796875 -0.546875 C 2.359375 -0.546875 2.078125 -0.765625 1.859375 -1.0625 C 1.75 -1.21875 1.75 -1.25 1.75 -1.4375 L 1.75 -3.625 C 2 -4.015625 2.4375 -4.265625 2.90625 -4.265625 C 3.734375 -4.265625 4.390625 -3.4375 4.390625 -2.4375 Z M 4.390625 -2.4375 "/>
</g>
<g id="glyph-0-2">
<path d="M 4.625 0 L 4.625 -0.625 L 3.265625 -0.625 L 3.265625 -7.390625 L 3.046875 -7.390625 C 2.40625 -6.734375 1.5 -6.703125 0.96875 -6.671875 L 0.96875 -6.046875 C 1.328125 -6.046875 1.859375 -6.078125 2.40625 -6.296875 L 2.40625 -0.625 L 1.03125 -0.625 L 1.03125 0 Z M 4.625 0 "/>
</g>
<g id="glyph-0-3">
<path d="M 1.96875 -3.9375 L 1.96875 -4.84375 L 1.0625 -4.84375 L 1.0625 -3.9375 Z M 1.96875 0 L 1.96875 -0.90625 L 1.0625 -0.90625 L 1.0625 0 Z M 1.96875 0 "/>
</g>
<g id="glyph-0-4">
<path d="M 4.890625 -2.21875 C 4.890625 -3.578125 3.953125 -4.65625 2.828125 -4.65625 C 2.40625 -4.65625 1.984375 -4.5 1.671875 -4.203125 L 1.671875 -6.453125 L 4.53125 -6.453125 L 4.53125 -7.15625 L 0.890625 -7.15625 L 0.890625 -3.125 L 1.609375 -3.125 C 1.78125 -3.5625 2.1875 -3.984375 2.828125 -3.984375 C 3.34375 -3.984375 3.921875 -3.546875 3.921875 -2.234375 C 3.921875 -0.421875 2.59375 -0.421875 2.5 -0.421875 C 1.765625 -0.421875 1.09375 -0.84375 0.78125 -1.4375 L 0.421875 -0.828125 C 0.875 -0.203125 1.625 0.234375 2.515625 0.234375 C 3.8125 0.234375 4.890625 -0.84375 4.890625 -2.21875 Z M 4.890625 -2.21875 "/>
</g>
<g id="glyph-0-5">
<path d="M 4.890625 0 L 4.890625 -0.78125 L 2.90625 -0.78125 C 2.78125 -0.78125 2.65625 -0.765625 2.515625 -0.765625 L 1.328125 -0.765625 C 1.671875 -1.0625 2.515625 -1.890625 2.84375 -2.203125 C 3.046875 -2.40625 3.609375 -2.859375 3.8125 -3.046875 C 4.3125 -3.546875 4.890625 -4.125 4.890625 -5.046875 C 4.890625 -6.296875 4.015625 -7.390625 2.578125 -7.390625 C 1.328125 -7.390625 0.71875 -6.546875 0.453125 -5.609375 C 0.59375 -5.421875 0.640625 -5.359375 0.671875 -5.328125 C 0.6875 -5.296875 0.796875 -5.15625 0.90625 -5 C 1.125 -5.84375 1.421875 -6.703125 2.421875 -6.703125 C 3.453125 -6.703125 4 -5.875 4 -5.03125 C 4 -4.09375 3.375 -3.484375 2.734375 -2.828125 L 1.890625 -2.046875 L 0.546875 -0.703125 L 0.546875 0 Z M 4.890625 0 "/>
</g>
<g id="glyph-0-6">
<path d="M 6.8125 -0.15625 C 6.953125 -0.3125 6.8125 -0.453125 6.703125 -0.5625 L 4.546875 -2.71875 L 6.703125 -4.890625 C 6.8125 -5 6.953125 -5.140625 6.8125 -5.296875 C 6.640625 -5.4375 6.5 -5.296875 6.390625 -5.1875 L 4.25 -3.046875 L 2.078125 -5.203125 C 1.96875 -5.3125 1.828125 -5.453125 1.671875 -5.296875 C 1.515625 -5.140625 1.671875 -5 1.78125 -4.890625 L 3.9375 -2.71875 L 1.78125 -0.5625 C 1.671875 -0.453125 1.515625 -0.3125 1.671875 -0.15625 C 1.828125 -0.015625 1.96875 -0.15625 2.078125 -0.265625 L 4.25 -2.421875 L 6.40625 -0.265625 C 6.515625 -0.15625 6.65625 -0.015625 6.8125 -0.15625 Z M 6.8125 -0.15625 "/>
</g>
<g id="glyph-0-7">
<path d="M 7.859375 -2.71875 C 7.859375 -2.9375 7.65625 -2.9375 7.5 -2.9375 L 4.453125 -2.9375 L 4.453125 -6 C 4.453125 -6.15625 4.453125 -6.359375 4.25 -6.359375 C 4.03125 -6.359375 4.03125 -6.15625 4.03125 -6 L 4.03125 -2.9375 L 0.96875 -2.9375 C 0.8125 -2.9375 0.609375 -2.9375 0.609375 -2.71875 C 0.609375 -2.515625 0.8125 -2.515625 0.96875 -2.515625 L 4.03125 -2.515625 L 4.03125 0.546875 C 4.03125 0.703125 4.03125 0.90625 4.25 0.90625 C 4.453125 0.90625 4.453125 0.703125 4.453125 0.546875 L 4.453125 -2.515625 L 7.5 -2.515625 C 7.65625 -2.515625 7.859375 -2.515625 7.859375 -2.71875 Z M 7.859375 -2.71875 "/>
</g>
<g id="glyph-0-8">
<path d="M 3.921875 -1.390625 C 3.921875 -2 3.515625 -2.359375 3.5 -2.40625 C 3.078125 -2.78125 2.78125 -2.84375 2.234375 -2.9375 C 1.640625 -3.0625 1.140625 -3.171875 1.140625 -3.703125 C 1.140625 -4.390625 1.921875 -4.390625 2.0625 -4.390625 C 2.40625 -4.390625 2.984375 -4.34375 3.609375 -3.96875 L 3.734375 -4.671875 C 3.171875 -4.9375 2.71875 -5.03125 2.171875 -5.03125 C 1.890625 -5.03125 0.359375 -5.03125 0.359375 -3.59375 C 0.359375 -3.0625 0.671875 -2.71875 0.953125 -2.515625 C 1.28125 -2.265625 1.53125 -2.21875 2.125 -2.109375 C 2.515625 -2.03125 3.15625 -1.890625 3.15625 -1.3125 C 3.15625 -0.5625 2.296875 -0.5625 2.125 -0.5625 C 1.25 -0.5625 0.625 -0.96875 0.4375 -1.09375 L 0.3125 -0.359375 C 0.65625 -0.1875 1.25 0.125 2.140625 0.125 C 2.328125 0.125 2.9375 0.125 3.40625 -0.234375 C 3.734375 -0.484375 3.921875 -0.921875 3.921875 -1.390625 Z M 3.921875 -1.390625 "/>
</g>
<g id="glyph-0-9">
<path d="M 5.140625 0 L 3.0625 -2.96875 L 4.890625 -4.84375 L 3.921875 -4.84375 L 1.703125 -2.578125 L 1.703125 -7.5625 L 0.921875 -7.5625 L 0.921875 0 L 1.671875 0 L 1.671875 -1.53125 L 2.546875 -2.4375 L 4.25 0 Z M 5.140625 0 "/>
</g>
<g id="glyph-0-10">
<path d="M 1.703125 0 L 1.703125 -4.84375 L 0.890625 -4.84375 L 0.890625 0 Z M 1.78125 -6.171875 L 1.78125 -7.140625 L 0.8125 -7.140625 L 0.8125 -6.171875 Z M 1.78125 -6.171875 "/>
</g>
<g id="glyph-0-11">
<path d="M 3.625 2.71875 C 3.09375 2.203125 1.71875 0.796875 1.71875 -2.71875 C 1.71875 -3.34375 1.75 -4.609375 2.1875 -5.90625 C 2.640625 -7.171875 3.265625 -7.8125 3.625 -8.171875 L 2.953125 -8.171875 C 2.609375 -7.859375 1.875 -7.1875 1.375 -5.84375 C 0.9375 -4.671875 0.859375 -3.515625 0.859375 -2.71875 C 0.859375 0.796875 2.4375 2.25 2.953125 2.71875 Z M 3.625 2.71875 "/>
</g>
<g id="glyph-0-12">
<path d="M 4.984375 -2.421875 C 4.984375 -3.8125 4.265625 -5.03125 3.21875 -5.03125 C 2.875 -5.03125 2.046875 -4.953125 1.375 -4.140625 C 1.515625 -5.890625 2.375 -6.765625 3.375 -6.765625 C 3.796875 -6.765625 4.140625 -6.6875 4.53125 -6.53125 L 4.53125 -7.171875 C 3.96875 -7.390625 3.515625 -7.390625 3.375 -7.390625 C 1.828125 -7.390625 0.453125 -5.859375 0.453125 -3.515625 C 0.453125 -0.421875 1.8125 0.234375 2.734375 0.234375 C 3.390625 0.234375 3.859375 -0.015625 4.28125 -0.5 C 4.78125 -1.0625 4.984375 -1.5625 4.984375 -2.421875 Z M 4.09375 -2.421875 C 4.09375 -2.046875 4.09375 -1.546875 3.828125 -1.09375 C 3.640625 -0.796875 3.359375 -0.421875 2.734375 -0.421875 C 1.578125 -0.421875 1.421875 -2.03125 1.390625 -2.390625 C 1.390625 -2.546875 1.390625 -2.5625 1.390625 -2.6875 C 1.390625 -3.5 1.890625 -4.375 2.796875 -4.375 C 3.3125 -4.375 3.625 -4.09375 3.84375 -3.703125 C 4.0625 -3.296875 4.09375 -2.90625 4.09375 -2.421875 Z M 4.09375 -2.421875 "/>
</g>
<g id="glyph-0-13">
<path d="M 5.140625 -1.859375 L 5.140625 -2.53125 L 4.0625 -2.53125 L 4.0625 -7.15625 L 3.0625 -7.15625 L 0.3125 -2.53125 L 0.3125 -1.859375 L 3.203125 -1.859375 L 3.203125 0 L 4.0625 0 L 4.0625 -1.859375 Z M 3.265625 -2.53125 L 1.15625 -2.53125 C 1.71875 -3.46875 3.25 -6.046875 3.265625 -6.671875 Z M 3.265625 -2.53125 "/>
</g>
<g id="glyph-0-14">
<path d="M 3.375 -2.71875 C 3.375 -6.25 1.796875 -7.703125 1.28125 -8.171875 L 0.609375 -8.171875 C 1.140625 -7.65625 2.515625 -6.25 2.515625 -2.71875 C 2.515625 -2.109375 2.484375 -0.84375 2.046875 0.453125 C 1.59375 1.71875 0.96875 2.359375 0.609375 2.71875 L 1.28125 2.71875 C 1.625 2.40625 2.359375 1.734375 2.859375 0.390625 C 3.296875 -0.78125 3.375 -1.9375 3.375 -2.71875 Z M 3.375 -2.71875 "/>
</g>
<g id="glyph-0-15">
<path d="M 4.984375 -3.5625 C 4.984375 -4.421875 4.9375 -5.4375 4.484375 -6.3125 C 4.03125 -7.125 3.28125 -7.390625 2.71875 -7.390625 C 2.078125 -7.390625 1.3125 -7.09375 0.875 -6.125 C 0.515625 -5.328125 0.453125 -4.421875 0.453125 -3.5625 C 0.453125 -2.6875 0.5 -1.890625 0.828125 -1.09375 C 1.265625 -0.046875 2.09375 0.234375 2.71875 0.234375 C 3.515625 0.234375 4.203125 -0.203125 4.546875 -0.953125 C 4.875 -1.671875 4.984375 -2.390625 4.984375 -3.5625 Z M 4.140625 -3.6875 C 4.140625 -2.96875 4.140625 -2.28125 3.9375 -1.59375 C 3.65625 -0.59375 3.078125 -0.421875 2.71875 -0.421875 C 2.15625 -0.421875 1.71875 -0.84375 1.5 -1.625 C 1.3125 -2.25 1.3125 -2.828125 1.3125 -3.6875 C 1.3125 -4.375 1.3125 -5.03125 1.5 -5.625 C 1.5625 -5.828125 1.828125 -6.734375 2.71875 -6.734375 C 3.5625 -6.734375 3.84375 -5.90625 3.921875 -5.703125 C 4.140625 -5.09375 4.140625 -4.359375 4.140625 -3.6875 Z M 4.140625 -3.6875 "/>
</g>
<g id="glyph-0-16">
<path d="M 4.984375 -1.96875 C 4.984375 -2.953125 4.21875 -3.625 3.484375 -3.859375 C 4.3125 -4.3125 4.6875 -5.046875 4.6875 -5.734375 C 4.6875 -6.671875 3.78125 -7.390625 2.703125 -7.390625 C 1.859375 -7.390625 1.0625 -6.953125 0.609375 -6.1875 L 1 -5.609375 C 1.3125 -6.375 2.03125 -6.765625 2.6875 -6.765625 C 3.265625 -6.765625 3.796875 -6.4375 3.796875 -5.734375 C 3.796875 -5.078125 3.34375 -4.421875 2.6875 -4.28125 C 2.625 -4.265625 2.59375 -4.265625 1.828125 -4.203125 L 1.828125 -3.53125 L 2.59375 -3.53125 C 3.78125 -3.53125 4.015625 -2.515625 4.015625 -1.96875 C 4.015625 -1.125 3.515625 -0.421875 2.671875 -0.421875 C 1.921875 -0.421875 1.0625 -0.8125 0.578125 -1.546875 L 0.453125 -0.890625 C 1.25 0.125 2.25 0.234375 2.6875 0.234375 C 4.03125 0.234375 4.984375 -0.8125 4.984375 -1.96875 Z M 4.984375 -1.96875 "/>
</g>
<g id="glyph-0-17">
<path d="M 4.984375 -1.96875 C 4.984375 -2.953125 4.21875 -3.625 3.484375 -3.875 C 4.453125 -4.1875 4.828125 -4.90625 4.828125 -5.484375 C 4.828125 -6.515625 3.90625 -7.390625 2.71875 -7.390625 C 1.5 -7.390625 0.609375 -6.484375 0.609375 -5.484375 C 0.609375 -4.90625 0.984375 -4.1875 1.953125 -3.875 C 1.171875 -3.59375 0.453125 -2.90625 0.453125 -1.96875 C 0.453125 -0.78125 1.46875 0.234375 2.71875 0.234375 C 4.015625 0.234375 4.984375 -0.8125 4.984375 -1.96875 Z M 4.0625 -5.484375 C 4.0625 -4.703125 3.515625 -4.203125 2.71875 -4.203125 C 1.890625 -4.203125 1.375 -4.734375 1.375 -5.484375 C 1.375 -6.234375 1.90625 -6.765625 2.71875 -6.765625 C 3.578125 -6.765625 4.0625 -6.1875 4.0625 -5.484375 Z M 4.09375 -1.96875 C 4.09375 -0.921875 3.421875 -0.421875 2.71875 -0.421875 C 1.96875 -0.421875 1.34375 -0.953125 1.34375 -1.96875 C 1.34375 -3.125 2.125 -3.53125 2.71875 -3.53125 C 3.34375 -3.53125 4.09375 -3.09375 4.09375 -1.96875 Z M 4.09375 -1.96875 "/>
</g>
<g id="glyph-0-18">
<path d="M 4.984375 -3.65625 C 4.984375 -6.703125 3.6875 -7.390625 2.765625 -7.390625 C 2 -7.390625 1.546875 -7.0625 1.171875 -6.65625 C 0.484375 -5.921875 0.453125 -5.203125 0.453125 -4.734375 C 0.453125 -3.34375 1.171875 -2.109375 2.21875 -2.109375 C 2.90625 -2.109375 3.59375 -2.4375 4.0625 -3.015625 C 3.953125 -1.265625 3.109375 -0.421875 2.25 -0.421875 C 1.875 -0.421875 1.515625 -0.515625 1.125 -0.84375 L 0.78125 -0.265625 C 1.15625 0.015625 1.5625 0.234375 2.234375 0.234375 C 3.671875 0.234375 4.984375 -1.28125 4.984375 -3.65625 Z M 4.046875 -4.484375 C 4.046875 -3.59375 3.515625 -2.78125 2.65625 -2.78125 C 2.140625 -2.78125 1.828125 -3.03125 1.609375 -3.4375 C 1.359375 -3.859375 1.359375 -4.265625 1.359375 -4.734375 C 1.359375 -5.21875 1.359375 -5.65625 1.671875 -6.140625 C 1.890625 -6.453125 2.1875 -6.765625 2.765625 -6.765625 C 3.828125 -6.765625 4.015625 -5.28125 4.03125 -4.75 C 4.046875 -4.671875 4.046875 -4.5625 4.046875 -4.484375 Z M 4.046875 -4.484375 "/>
</g>
<g id="glyph-0-19">
<path d="M 5.109375 -2.40625 C 5.109375 -3.859375 4.03125 -5.03125 2.71875 -5.03125 C 1.390625 -5.03125 0.328125 -3.828125 0.328125 -2.40625 C 0.328125 -0.953125 1.4375 0.125 2.71875 0.125 C 4.03125 0.125 5.109375 -0.984375 5.109375 -2.40625 Z M 4.265625 -2.515625 C 4.265625 -1.21875 3.515625 -0.578125 2.71875 -0.578125 C 1.96875 -0.578125 1.171875 -1.1875 1.171875 -2.515625 C 1.171875 -3.828125 2 -4.359375 2.71875 -4.359375 C 3.484375 -4.359375 4.265625 -3.796875 4.265625 -2.515625 Z M 4.265625 -2.515625 "/>
</g>
<g id="glyph-0-20">
<path d="M 3.625 -0.296875 L 3.453125 -0.9375 C 3.15625 -0.703125 2.8125 -0.578125 2.46875 -0.578125 C 2.0625 -0.578125 1.90625 -0.90625 1.90625 -1.484375 L 1.90625 -4.203125 L 3.453125 -4.203125 L 3.453125 -4.84375 L 1.90625 -4.84375 L 1.90625 -6.234375 L 1.15625 -6.234375 L 1.15625 -4.84375 L 0.203125 -4.84375 L 0.203125 -4.203125 L 1.125 -4.203125 L 1.125 -1.296875 C 1.125 -0.640625 1.28125 0.125 2.03125 0.125 C 2.796875 0.125 3.34375 -0.15625 3.625 -0.296875 Z M 3.625 -0.296875 "/>
</g>
<g id="glyph-1-0">
<path d="M 0.5 -2.71875 L 9.234375 -2.71875 L 9.234375 -3.40625 L 0.5 -3.40625 Z M 0.5 -2.71875 "/>
</g>
<g id="glyph-1-1">
<path d="M 7.34375 -8.96875 L 6.59375 -8.65625 C 7.359375 -7.046875 8.671875 -5.265625 9.8125 -4.28125 C 9.984375 -4.5 10.28125 -4.8125 10.484375 -4.96875 C 9.34375 -5.828125 8.015625 -7.5 7.34375 -8.96875 Z M 3.53125 -8.9375 C 2.90625 -7.28125 1.78125 -5.765625 0.484375 -4.828125 C 0.671875 -4.671875 1.03125 -4.359375 1.171875 -4.1875 C 1.46875 -4.421875 1.75 -4.6875 2.046875 -4.984375 L 2.046875 -4.234375 L 4.140625 -4.234375 C 3.890625 -2.375 3.296875 -0.640625 0.703125 0.203125 C 0.890625 0.375 1.109375 0.703125 1.203125 0.90625 C 3.984375 -0.09375 4.71875 -2.078125 5 -4.234375 L 7.96875 -4.234375 C 7.859375 -1.5 7.6875 -0.4375 7.421875 -0.15625 C 7.3125 -0.046875 7.171875 -0.015625 6.953125 -0.015625 C 6.703125 -0.015625 6.015625 -0.015625 5.3125 -0.09375 C 5.46875 0.140625 5.5625 0.484375 5.578125 0.734375 C 6.265625 0.78125 6.9375 0.78125 7.3125 0.75 C 7.671875 0.71875 7.921875 0.640625 8.15625 0.375 C 8.546875 -0.046875 8.6875 -1.296875 8.84375 -4.640625 C 8.859375 -4.75 8.859375 -5.03125 8.859375 -5.03125 L 2.09375 -5.03125 C 3.015625 -6.03125 3.84375 -7.3125 4.40625 -8.703125 Z M 3.53125 -8.9375 "/>
</g>
<g id="glyph-1-2">
<path d="M 7.359375 -7.671875 L 7.359375 -1.75 L 8.109375 -1.75 L 8.109375 -7.671875 Z M 9.328125 -9.09375 L 9.328125 -0.15625 C 9.328125 0.015625 9.265625 0.078125 9.078125 0.09375 C 8.90625 0.09375 8.328125 0.09375 7.671875 0.0625 C 7.796875 0.296875 7.890625 0.640625 7.921875 0.84375 C 8.828125 0.859375 9.34375 0.84375 9.65625 0.703125 C 9.96875 0.5625 10.09375 0.34375 10.09375 -0.171875 L 10.09375 -9.09375 Z M 1.375 -2.40625 L 1.375 0.875 L 2.078125 0.875 L 2.078125 0.296875 L 5.265625 0.296875 L 5.265625 0.796875 L 5.984375 0.796875 L 5.984375 -2.40625 L 4.078125 -2.40625 L 4.078125 -3.265625 L 6.53125 -3.265625 L 6.53125 -3.875 L 4.078125 -3.875 L 4.078125 -4.609375 L 5.71875 -4.609375 L 5.71875 -5.21875 L 4.078125 -5.21875 L 4.078125 -5.921875 L 5.984375 -5.921875 L 5.984375 -6.5 L 6.625 -6.5 L 6.625 -8.125 L 4.234375 -8.125 C 4.140625 -8.4375 3.921875 -8.890625 3.734375 -9.21875 L 2.984375 -9.015625 C 3.125 -8.75 3.265625 -8.421875 3.359375 -8.125 L 0.71875 -8.125 L 0.71875 -6.4375 L 1.3125 -6.4375 L 1.3125 -5.921875 L 3.34375 -5.921875 L 3.34375 -5.21875 L 1.578125 -5.21875 L 1.578125 -4.609375 L 3.34375 -4.609375 L 3.34375 -3.875 L 0.734375 -3.875 L 0.734375 -3.265625 L 3.34375 -3.265625 L 3.34375 -2.40625 Z M 3.34375 -7.15625 L 3.34375 -6.53125 L 1.453125 -6.53125 L 1.453125 -7.5 L 5.875 -7.5 L 5.875 -6.53125 L 4.078125 -6.53125 L 4.078125 -7.15625 Z M 2.078125 -0.34375 L 2.078125 -1.703125 L 5.265625 -1.703125 L 5.265625 -0.34375 Z M 2.078125 -0.34375 "/>
</g>
<g id="glyph-1-3">
<path d="M 6.796875 -3.921875 C 6.890625 -4 7.203125 -4.0625 7.59375 -4.0625 L 8.109375 -4.0625 C 7.75 -2.515625 7.03125 -0.890625 5.671875 0.5 C 5.875 0.59375 6.140625 0.78125 6.28125 0.90625 C 7.28125 -0.140625 7.921875 -1.3125 8.359375 -2.515625 L 8.359375 -0.203125 C 8.359375 0.28125 8.390625 0.453125 8.546875 0.578125 C 8.6875 0.703125 8.90625 0.75 9.09375 0.75 C 9.203125 0.75 9.4375 0.75 9.5625 0.75 C 9.75 0.75 9.953125 0.703125 10.0625 0.625 C 10.203125 0.53125 10.28125 0.390625 10.328125 0.1875 C 10.375 -0.015625 10.421875 -0.640625 10.421875 -1.171875 C 10.265625 -1.234375 10.0625 -1.34375 9.9375 -1.453125 C 9.9375 -0.90625 9.921875 -0.4375 9.90625 -0.234375 C 9.875 -0.109375 9.84375 -0.015625 9.796875 0.015625 C 9.734375 0.0625 9.640625 0.078125 9.546875 0.078125 C 9.453125 0.078125 9.328125 0.078125 9.265625 0.078125 C 9.171875 0.078125 9.09375 0.046875 9.0625 0.015625 C 9.015625 -0.015625 9 -0.09375 9 -0.15625 L 9 -3.484375 L 8.65625 -3.484375 L 8.796875 -4.0625 L 10.375 -4.0625 L 10.375 -4.75 L 8.921875 -4.75 C 9.109375 -5.890625 9.15625 -6.953125 9.15625 -7.84375 L 10.203125 -7.84375 L 10.203125 -8.5625 L 6.796875 -8.5625 L 6.796875 -7.84375 L 8.484375 -7.84375 C 8.484375 -6.96875 8.453125 -5.890625 8.25 -4.75 L 7.453125 -4.75 C 7.578125 -5.484375 7.78125 -6.65625 7.859375 -7.171875 L 7.203125 -7.171875 C 7.125 -6.65625 6.890625 -5.09375 6.796875 -4.84375 C 6.734375 -4.65625 6.65625 -4.609375 6.515625 -4.5625 C 6.609375 -4.421875 6.75 -4.09375 6.796875 -3.921875 Z M 5.6875 -5.96875 L 5.6875 -4.625 L 4.359375 -4.625 L 4.359375 -5.96875 Z M 5.6875 -6.578125 L 4.359375 -6.578125 L 4.359375 -7.84375 L 5.6875 -7.84375 Z M 3.671875 -0.078125 C 3.8125 -0.265625 4.078125 -0.453125 5.859375 -1.5625 C 5.953125 -1.3125 6.03125 -1.078125 6.078125 -0.890625 L 6.6875 -1.171875 C 6.515625 -1.734375 6.109375 -2.65625 5.71875 -3.359375 L 5.171875 -3.125 C 5.328125 -2.8125 5.484375 -2.46875 5.625 -2.125 L 4.359375 -1.40625 L 4.359375 -3.953125 L 6.328125 -3.953125 L 6.328125 -8.53125 L 3.703125 -8.53125 L 3.703125 -1.640625 C 3.703125 -1.140625 3.421875 -0.78125 3.25 -0.640625 C 3.390625 -0.515625 3.59375 -0.234375 3.671875 -0.078125 Z M 1.71875 -9.15625 L 1.71875 -6.84375 L 0.578125 -6.84375 L 0.578125 -6.078125 L 1.703125 -6.078125 C 1.4375 -4.59375 0.90625 -2.828125 0.328125 -1.875 C 0.453125 -1.703125 0.65625 -1.390625 0.75 -1.171875 C 1.109375 -1.78125 1.453125 -2.703125 1.71875 -3.6875 L 1.71875 0.859375 L 2.46875 0.859375 L 2.46875 -4.53125 C 2.703125 -4.046875 2.953125 -3.5 3.078125 -3.1875 L 3.546875 -3.84375 C 3.390625 -4.140625 2.703125 -5.3125 2.46875 -5.671875 L 2.46875 -6.078125 L 3.40625 -6.078125 L 3.40625 -6.84375 L 2.46875 -6.84375 L 2.46875 -9.15625 Z M 1.71875 -9.15625 "/>
</g>
<g id="glyph-1-4">
<path d="M 9.046875 -7.015625 C 8.65625 -6.578125 7.984375 -5.984375 7.5 -5.609375 L 8.09375 -5.21875 C 8.59375 -5.5625 9.234375 -6.078125 9.734375 -6.59375 Z M 0.609375 -3.671875 L 1.03125 -3.015625 C 1.75 -3.375 2.640625 -3.84375 3.484375 -4.296875 L 3.3125 -4.921875 C 2.328125 -4.4375 1.28125 -3.953125 0.609375 -3.671875 Z M 0.921875 -6.53125 C 1.515625 -6.15625 2.234375 -5.609375 2.578125 -5.25 L 3.15625 -5.75 C 2.796875 -6.125 2.078125 -6.640625 1.484375 -6.984375 Z M 7.390625 -4.453125 C 8.140625 -3.984375 9.078125 -3.34375 9.53125 -2.90625 L 10.140625 -3.390625 C 9.65625 -3.828125 8.6875 -4.46875 7.96875 -4.890625 Z M 0.5625 -2.203125 L 0.5625 -1.4375 L 5.015625 -1.4375 L 5.015625 0.875 L 5.890625 0.875 L 5.890625 -1.4375 L 10.359375 -1.4375 L 10.359375 -2.203125 L 5.890625 -2.203125 L 5.890625 -3.09375 L 5.015625 -3.09375 L 5.015625 -2.203125 Z M 4.75 -9.03125 C 4.90625 -8.78125 5.109375 -8.46875 5.25 -8.171875 L 0.78125 -8.171875 L 0.78125 -7.421875 L 4.78125 -7.421875 C 4.453125 -6.90625 4.078125 -6.453125 3.9375 -6.3125 C 3.78125 -6.125 3.609375 -6 3.453125 -5.96875 C 3.53125 -5.78125 3.640625 -5.4375 3.6875 -5.265625 C 3.84375 -5.328125 4.09375 -5.390625 5.34375 -5.484375 C 4.828125 -4.953125 4.359375 -4.53125 4.140625 -4.359375 C 3.765625 -4.046875 3.484375 -3.84375 3.234375 -3.8125 C 3.328125 -3.59375 3.4375 -3.234375 3.46875 -3.09375 C 3.703125 -3.203125 4.078125 -3.25 6.9375 -3.53125 C 7.0625 -3.3125 7.171875 -3.125 7.234375 -2.9375 L 7.890625 -3.234375 C 7.671875 -3.734375 7.109375 -4.53125 6.625 -5.078125 L 6.015625 -4.828125 C 6.1875 -4.625 6.375 -4.375 6.546875 -4.140625 L 4.609375 -3.96875 C 5.578125 -4.734375 6.53125 -5.6875 7.40625 -6.703125 L 6.734375 -7.09375 C 6.515625 -6.78125 6.25 -6.484375 6 -6.1875 L 4.59375 -6.109375 C 4.953125 -6.484375 5.3125 -6.953125 5.625 -7.421875 L 10.265625 -7.421875 L 10.265625 -8.171875 L 6.203125 -8.171875 C 6.046875 -8.5 5.796875 -8.921875 5.546875 -9.234375 Z M 4.75 -9.03125 "/>
</g>
<g id="glyph-1-5">
<path d="M 4.09375 -3.046875 C 4.96875 -2.859375 6.078125 -2.46875 6.6875 -2.171875 L 7.03125 -2.71875 C 6.40625 -3.015625 5.3125 -3.375 4.4375 -3.546875 Z M 3 -1.65625 C 4.5 -1.46875 6.390625 -1.03125 7.4375 -0.671875 L 7.796875 -1.28125 C 6.734375 -1.625 4.859375 -2.046875 3.375 -2.21875 Z M 0.921875 -8.6875 L 0.921875 0.875 L 1.703125 0.875 L 1.703125 0.421875 L 9.1875 0.421875 L 9.1875 0.875 L 10 0.875 L 10 -8.6875 Z M 1.703125 -0.3125 L 1.703125 -7.9375 L 9.1875 -7.9375 L 9.1875 -0.3125 Z M 4.515625 -7.71875 C 3.96875 -6.828125 3.03125 -5.984375 2.09375 -5.421875 C 2.265625 -5.3125 2.546875 -5.0625 2.671875 -4.921875 C 3 -5.140625 3.34375 -5.40625 3.671875 -5.703125 C 4 -5.359375 4.40625 -5.03125 4.84375 -4.734375 C 3.921875 -4.296875 2.875 -3.96875 1.890625 -3.78125 C 2.046875 -3.625 2.21875 -3.296875 2.296875 -3.109375 C 3.359375 -3.359375 4.5 -3.765625 5.546875 -4.3125 C 6.453125 -3.828125 7.484375 -3.453125 8.515625 -3.234375 C 8.609375 -3.421875 8.828125 -3.703125 8.96875 -3.84375 C 8.015625 -4.03125 7.0625 -4.3125 6.203125 -4.71875 C 7.03125 -5.25 7.703125 -5.875 8.171875 -6.609375 L 7.703125 -6.875 L 7.578125 -6.84375 L 4.75 -6.84375 C 4.921875 -7.0625 5.078125 -7.265625 5.203125 -7.484375 Z M 4.125 -6.140625 L 4.203125 -6.21875 L 7.03125 -6.21875 C 6.625 -5.796875 6.109375 -5.40625 5.515625 -5.078125 C 4.96875 -5.390625 4.484375 -5.75 4.125 -6.140625 Z M 4.125 -6.140625 "/>
</g>
</g>
<clipPath id="clip-0">
<path clip-rule="nonzero" d="M 0 102 L 397.648438 102 L 397.648438 123 L 0 123 Z M 0 102 "/>
</clipPath>
<clipPath id="clip-1">
<path clip-rule="nonzero" d="M 0 136 L 397.648438 136 L 397.648438 156.699219 L 0 156.699219 Z M 0 136 "/>
</clipPath>
</defs>
<path fill-rule="nonzero" fill="rgb(39.99939%, 100%, 39.99939%)" fill-opacity="1" stroke-width="0.79701" stroke-linecap="butt" stroke-linejoin="miter" stroke="rgb(0%, 0%, 0%)" stroke-opacity="1" stroke-miterlimit="10" d="M -113.3865 85.039719 L -113.3865 104.883469 L 113.386937 104.883469 L 113.386937 85.039719 Z M -113.3865 85.039719 " transform="matrix(1, 0, 0, -1, 198.824, 105.278)"/>
<g fill="rgb(0%, 0%, 0%)" fill-opacity="1">
<use xlink:href="#glyph-0-0" x="110.361" y="13.043"/>
<use xlink:href="#glyph-0-1" x="116.001005" y="13.043"/>
<use xlink:href="#glyph-0-2" x="121.641009" y="13.043"/>
<use xlink:href="#glyph-0-3" x="127.095559" y="13.043"/>
</g>
<g fill="rgb(0%, 0%, 0%)" fill-opacity="1">
<use xlink:href="#glyph-0-4" x="134.961021" y="13.043"/>
<use xlink:href="#glyph-0-2" x="140.415571" y="13.043"/>
<use xlink:href="#glyph-0-5" x="145.870121" y="13.043"/>
<use xlink:href="#glyph-0-6" x="151.324671" y="13.043"/>
<use xlink:href="#glyph-0-4" x="159.81195" y="13.043"/>
<use xlink:href="#glyph-0-5" x="165.2665" y="13.043"/>
<use xlink:href="#glyph-0-6" x="170.72105" y="13.043"/>
<use xlink:href="#glyph-0-4" x="179.20833" y="13.043"/>
<use xlink:href="#glyph-0-5" x="184.66288" y="13.043"/>
</g>
<g fill="rgb(0%, 0%, 0%)" fill-opacity="1">
<use xlink:href="#glyph-0-7" x="193.75016" y="13.043"/>
</g>
<g fill="rgb(0%, 0%, 0%)" fill-opacity="1">
<use xlink:href="#glyph-0-8" x="205.870171" y="13.043"/>
<use xlink:href="#glyph-0-9" x="210.048356" y="13.043"/>
<use xlink:href="#glyph-0-10" x="215.382906" y="13.043"/>
<use xlink:href="#glyph-0-1" x="217.990181" y="13.043"/>
<use xlink:href="#glyph-0-11" x="223.630185" y="13.043"/>
<use xlink:href="#glyph-0-4" x="227.873825" y="13.043"/>
<use xlink:href="#glyph-0-2" x="233.328375" y="13.043"/>
<use xlink:href="#glyph-0-5" x="238.782925" y="13.043"/>
<use xlink:href="#glyph-0-6" x="244.237475" y="13.043"/>
<use xlink:href="#glyph-0-12" x="252.724755" y="13.043"/>
<use xlink:href="#glyph-0-13" x="258.179305" y="13.043"/>
<use xlink:href="#glyph-0-6" x="263.633855" y="13.043"/>
<use xlink:href="#glyph-0-12" x="272.121135" y="13.043"/>
<use xlink:href="#glyph-0-13" x="277.575685" y="13.043"/>
<use xlink:href="#glyph-0-14" x="283.030235" y="13.043"/>
</g>
<path fill="none" stroke-width="0.79701" stroke-linecap="butt" stroke-linejoin="miter" stroke="rgb(0%, 0%, 0%)" stroke-opacity="1" stroke-miterlimit="10" d="M 0.00021875 85.039719 L 0.00021875 71.664719 " transform="matrix(1, 0, 0, -1, 198.824, 105.278)"/>
<path fill="none" stroke-width="0.79701" stroke-linecap="round" stroke-linejoin="round" stroke="rgb(0%, 0%, 0%)" stroke-opacity="1" stroke-miterlimit="10" d="M -2.551542 3.109594 C -2.082792 1.242406 -1.047636 0.3635 -0.00076125 0.00021875 C -1.047636 -0.363063 -2.082792 -1.245875 -2.551542 -3.109156 " transform="matrix(0, 1, 1, 0, 198.824, 34.01248)"/>
<path fill-rule="nonzero" fill="rgb(50%, 100%, 50%)" fill-opacity="1" stroke-width="0.79701" stroke-linecap="butt" stroke-linejoin="miter" stroke="rgb(0%, 0%, 0%)" stroke-opacity="1" stroke-miterlimit="10" d="M -125.577906 51.024094 L -125.577906 70.867844 L 125.574437 70.867844 L 125.574437 51.024094 Z M -125.577906 51.024094 " transform="matrix(1, 0, 0, -1, 198.824, 105.278)"/>
<g fill="rgb(0%, 0%, 0%)" fill-opacity="1">
<use xlink:href="#glyph-0-0" x="99.452" y="47.06"/>
<use xlink:href="#glyph-0-1" x="105.092005" y="47.06"/>
<use xlink:href="#glyph-0-5" x="110.732009" y="47.06"/>
<use xlink:href="#glyph-0-3" x="116.186559" y="47.06"/>
</g>
<g fill="rgb(0%, 0%, 0%)" fill-opacity="1">
<use xlink:href="#glyph-0-5" x="124.052021" y="47.06"/>
<use xlink:href="#glyph-0-4" x="129.506571" y="47.06"/>
<use xlink:href="#glyph-0-12" x="134.961121" y="47.06"/>
<use xlink:href="#glyph-0-6" x="140.415671" y="47.06"/>
<use xlink:href="#glyph-0-2" x="148.90295" y="47.06"/>
<use xlink:href="#glyph-0-15" x="154.3575" y="47.06"/>
<use xlink:href="#glyph-0-15" x="159.81205" y="47.06"/>
<use xlink:href="#glyph-0-6" x="165.2666" y="47.06"/>
<use xlink:href="#glyph-0-2" x="173.75388" y="47.06"/>
<use xlink:href="#glyph-0-15" x="179.20843" y="47.06"/>
<use xlink:href="#glyph-0-15" x="184.66298" y="47.06"/>
</g>
<g fill="rgb(0%, 0%, 0%)" fill-opacity="1">
<use xlink:href="#glyph-0-7" x="193.75026" y="47.06"/>
</g>
<g fill="rgb(0%, 0%, 0%)" fill-opacity="1">
<use xlink:href="#glyph-0-8" x="205.870271" y="47.06"/>
<use xlink:href="#glyph-0-9" x="210.048456" y="47.06"/>
<use xlink:href="#glyph-0-10" x="215.383006" y="47.06"/>
<use xlink:href="#glyph-0-1" x="217.990281" y="47.06"/>
<use xlink:href="#glyph-0-11" x="223.630285" y="47.06"/>
<use xlink:href="#glyph-0-5" x="227.873925" y="47.06"/>
<use xlink:href="#glyph-0-4" x="233.328475" y="47.06"/>
<use xlink:href="#glyph-0-12" x="238.783025" y="47.06"/>
<use xlink:href="#glyph-0-6" x="244.237575" y="47.06"/>
<use xlink:href="#glyph-0-2" x="252.724855" y="47.06"/>
<use xlink:href="#glyph-0-16" x="258.179405" y="47.06"/>
<use xlink:href="#glyph-0-12" x="263.633955" y="47.06"/>
<use xlink:href="#glyph-0-6" x="269.088505" y="47.06"/>
<use xlink:href="#glyph-0-2" x="277.575785" y="47.06"/>
<use xlink:href="#glyph-0-16" x="283.030335" y="47.06"/>
<use xlink:href="#glyph-0-12" x="288.484885" y="47.06"/>
<use xlink:href="#glyph-0-14" x="293.939435" y="47.06"/>
</g>
<path fill="none" stroke-width="0.79701" stroke-linecap="butt" stroke-linejoin="miter" stroke="rgb(0%, 0%, 0%)" stroke-opacity="1" stroke-miterlimit="10" d="M 0.00021875 51.024094 L 0.00021875 37.649094 " transform="matrix(1, 0, 0, -1, 198.824, 105.278)"/>
<path fill="none" stroke-width="0.79701" stroke-linecap="round" stroke-linejoin="round" stroke="rgb(0%, 0%, 0%)" stroke-opacity="1" stroke-miterlimit="10" d="M -2.551997 3.109594 C -2.083247 1.242406 -1.048091 0.3635 -0.00121625 0.00021875 C -1.048091 -0.363063 -2.083247 -1.245875 -2.551997 -3.109156 " transform="matrix(0, 1, 1, 0, 198.824, 68.02856)"/>
<path fill-rule="nonzero" fill="rgb(59.999084%, 100%, 59.999084%)" fill-opacity="1" stroke-width="0.79701" stroke-linecap="butt" stroke-linejoin="miter" stroke="rgb(0%, 0%, 0%)" stroke-opacity="1" stroke-miterlimit="10" d="M -149.812281 17.008469 L -149.812281 36.852219 L 149.812719 36.852219 L 149.812719 17.008469 Z M -149.812281 17.008469 " transform="matrix(1, 0, 0, -1, 198.824, 105.278)"/>
<g fill="rgb(0%, 0%, 0%)" fill-opacity="1">
<use xlink:href="#glyph-0-0" x="99.452" y="81.076"/>
<use xlink:href="#glyph-0-1" x="105.092005" y="81.076"/>
<use xlink:href="#glyph-0-16" x="110.732009" y="81.076"/>
<use xlink:href="#glyph-0-3" x="116.186559" y="81.076"/>
</g>
<g fill="rgb(0%, 0%, 0%)" fill-opacity="1">
<use xlink:href="#glyph-0-2" x="124.052021" y="81.076"/>
<use xlink:href="#glyph-0-5" x="129.506571" y="81.076"/>
<use xlink:href="#glyph-0-17" x="134.961121" y="81.076"/>
<use xlink:href="#glyph-0-6" x="140.415671" y="81.076"/>
<use xlink:href="#glyph-0-2" x="148.90295" y="81.076"/>
<use xlink:href="#glyph-0-18" x="154.3575" y="81.076"/>
<use xlink:href="#glyph-0-12" x="159.81205" y="81.076"/>
<use xlink:href="#glyph-0-6" x="165.2666" y="81.076"/>
<use xlink:href="#glyph-0-2" x="173.75388" y="81.076"/>
<use xlink:href="#glyph-0-18" x="179.20843" y="81.076"/>
<use xlink:href="#glyph-0-12" x="184.66298" y="81.076"/>
</g>
<g fill="rgb(0%, 0%, 0%)" fill-opacity="1">
<use xlink:href="#glyph-0-7" x="193.75026" y="81.076"/>
</g>
<g fill="rgb(0%, 0%, 0%)" fill-opacity="1">
<use xlink:href="#glyph-0-8" x="205.870271" y="81.076"/>
<use xlink:href="#glyph-0-9" x="210.048456" y="81.076"/>
<use xlink:href="#glyph-0-10" x="215.383006" y="81.076"/>
<use xlink:href="#glyph-0-1" x="217.990281" y="81.076"/>
<use xlink:href="#glyph-0-11" x="223.630285" y="81.076"/>
<use xlink:href="#glyph-0-2" x="227.873925" y="81.076"/>
<use xlink:href="#glyph-0-5" x="233.328475" y="81.076"/>
<use xlink:href="#glyph-0-17" x="238.783025" y="81.076"/>
<use xlink:href="#glyph-0-6" x="244.237575" y="81.076"/>
<use xlink:href="#glyph-0-5" x="252.724855" y="81.076"/>
<use xlink:href="#glyph-0-17" x="258.179405" y="81.076"/>
<use xlink:href="#glyph-0-15" x="263.633955" y="81.076"/>
<use xlink:href="#glyph-0-6" x="269.088505" y="81.076"/>
<use xlink:href="#glyph-0-5" x="277.575785" y="81.076"/>
<use xlink:href="#glyph-0-17" x="283.030335" y="81.076"/>
<use xlink:href="#glyph-0-15" x="288.484885" y="81.076"/>
<use xlink:href="#glyph-0-14" x="293.939435" y="81.076"/>
</g>
<path fill="none" stroke-width="0.79701" stroke-linecap="butt" stroke-linejoin="miter" stroke="rgb(0%, 0%, 0%)" stroke-opacity="1" stroke-miterlimit="10" d="M 0.00021875 17.008469 L 0.00021875 3.633469 " transform="matrix(1, 0, 0, -1, 198.824, 105.278)"/>
<path fill="none" stroke-width="0.79701" stroke-linecap="round" stroke-linejoin="round" stroke="rgb(0%, 0%, 0%)" stroke-opacity="1" stroke-miterlimit="10" d="M -2.548556 3.109594 C -2.083712 1.242406 -1.04465 0.3635 -0.00168125 0.00021875 C -1.04465 -0.363063 -2.083712 -1.245875 -2.548556 -3.109156 " transform="matrix(0, 1, 1, 0, 198.824, 102.04465)"/>
<g clip-path="url(#clip-0)">
<path fill-rule="nonzero" fill="rgb(69.999695%, 100%, 69.999695%)" fill-opacity="1" stroke-width="0.79701" stroke-linecap="butt" stroke-linejoin="miter" stroke="rgb(0%, 0%, 0%)" stroke-opacity="1" stroke-miterlimit="10" d="M -198.429469 -17.007156 L -198.429469 2.836594 L 198.426 2.836594 L 198.426 -17.007156 Z M -198.429469 -17.007156 " transform="matrix(1, 0, 0, -1, 198.824, 105.278)"/>
</g>
<g fill="rgb(0%, 0%, 0%)" fill-opacity="1">
<use xlink:href="#glyph-0-0" x="104.906" y="115.092"/>
<use xlink:href="#glyph-0-1" x="110.546005" y="115.092"/>
<use xlink:href="#glyph-0-13" x="116.186009" y="115.092"/>
<use xlink:href="#glyph-0-3" x="121.640559" y="115.092"/>
</g>
<g fill="rgb(0%, 0%, 0%)" fill-opacity="1">
<use xlink:href="#glyph-0-12" x="129.506021" y="115.092"/>
<use xlink:href="#glyph-0-13" x="134.960571" y="115.092"/>
<use xlink:href="#glyph-0-6" x="140.415121" y="115.092"/>
<use xlink:href="#glyph-0-16" x="148.9024" y="115.092"/>
<use xlink:href="#glyph-0-17" x="154.35695" y="115.092"/>
<use xlink:href="#glyph-0-17" x="159.8115" y="115.092"/>
<use xlink:href="#glyph-0-6" x="165.26605" y="115.092"/>
<use xlink:href="#glyph-0-16" x="173.75333" y="115.092"/>
<use xlink:href="#glyph-0-17" x="179.20788" y="115.092"/>
<use xlink:href="#glyph-0-17" x="184.66243" y="115.092"/>
</g>
<g fill="rgb(0%, 0%, 0%)" fill-opacity="1">
<use xlink:href="#glyph-0-7" x="193.74971" y="115.092"/>
</g>
<g fill="rgb(0%, 0%, 0%)" fill-opacity="1">
<use xlink:href="#glyph-0-8" x="205.869721" y="115.092"/>
<use xlink:href="#glyph-0-9" x="210.047906" y="115.092"/>
<use xlink:href="#glyph-0-10" x="215.382456" y="115.092"/>
<use xlink:href="#glyph-0-1" x="217.989731" y="115.092"/>
<use xlink:href="#glyph-0-11" x="223.629735" y="115.092"/>
<use xlink:href="#glyph-0-12" x="227.873375" y="115.092"/>
<use xlink:href="#glyph-0-13" x="233.327925" y="115.092"/>
<use xlink:href="#glyph-0-6" x="238.782475" y="115.092"/>
<use xlink:href="#glyph-0-4" x="247.269755" y="115.092"/>
<use xlink:href="#glyph-0-12" x="252.724305" y="115.092"/>
<use xlink:href="#glyph-0-17" x="258.178855" y="115.092"/>
<use xlink:href="#glyph-0-6" x="263.633405" y="115.092"/>
<use xlink:href="#glyph-0-4" x="272.120685" y="115.092"/>
<use xlink:href="#glyph-0-12" x="277.575235" y="115.092"/>
<use xlink:href="#glyph-0-17" x="283.029785" y="115.092"/>
<use xlink:href="#glyph-0-14" x="288.484335" y="115.092"/>
</g>
<path fill="none" stroke-width="0.79701" stroke-linecap="butt" stroke-linejoin="miter" stroke="rgb(0%, 0%, 0%)" stroke-opacity="1" stroke-miterlimit="10" d="M 0.00021875 -17.007156 L 0.00021875 -30.386063 " transform="matrix(1, 0, 0, -1, 198.824, 105.278)"/>
<path fill="none" stroke-width="0.79701" stroke-linecap="round" stroke-linejoin="round" stroke="rgb(0%, 0%, 0%)" stroke-opacity="1" stroke-miterlimit="10" d="M -2.549421 3.109594 C -2.084577 1.242406 -1.045515 0.3635 0.00136 0.00021875 C -1.045515 -0.363063 -2.084577 -1.245875 -2.549421 -3.109156 " transform="matrix(0, 1, 1, 0, 198.824, 136.06114)"/>
<g clip-path="url(#clip-1)">
<path fill-rule="nonzero" fill="rgb(79.998779%, 100%, 79.998779%)" fill-opacity="1" stroke-width="0.79701" stroke-linecap="butt" stroke-linejoin="miter" stroke="rgb(0%, 0%, 0%)" stroke-opacity="1" stroke-miterlimit="10" d="M -198.429469 -51.022781 L -198.429469 -31.182938 L 198.426 -31.182938 L 198.426 -51.022781 Z M -198.429469 -51.022781 " transform="matrix(1, 0, 0, -1, 198.824, 105.278)"/>
</g>
<g fill="rgb(0%, 0%, 0%)" fill-opacity="1">
<use xlink:href="#glyph-0-19" x="125.825" y="150.548"/>
<use xlink:href="#glyph-0-0" x="131.27955" y="150.548"/>
<use xlink:href="#glyph-0-20" x="136.919555" y="150.548"/>
<use xlink:href="#glyph-0-3" x="140.85774" y="150.548"/>
</g>
<g fill="rgb(0%, 0%, 0%)" fill-opacity="1">
<use xlink:href="#glyph-0-5" x="148.723201" y="150.548"/>
<use xlink:href="#glyph-0-6" x="154.177751" y="150.548"/>
<use xlink:href="#glyph-0-16" x="162.665031" y="150.548"/>
<use xlink:href="#glyph-0-17" x="168.119581" y="150.548"/>
<use xlink:href="#glyph-0-17" x="173.574131" y="150.548"/>
<use xlink:href="#glyph-0-6" x="179.028681" y="150.548"/>
<use xlink:href="#glyph-0-16" x="187.515961" y="150.548"/>
<use xlink:href="#glyph-0-17" x="192.970511" y="150.548"/>
<use xlink:href="#glyph-0-17" x="198.425061" y="150.548"/>
</g>
<g fill="rgb(0%, 0%, 0%)" fill-opacity="1">
<use xlink:href="#glyph-1-0" x="207.528" y="150.548"/>
<use xlink:href="#glyph-1-1" x="217.280735" y="150.548"/>
<use xlink:href="#glyph-1-2" x="228.189835" y="150.548"/>
<use xlink:href="#glyph-1-3" x="239.098935" y="150.548"/>
<use xlink:href="#glyph-1-4" x="250.008035" y="150.548"/>
<use xlink:href="#glyph-1-5" x="260.917135" y="150.548"/>
</g>
</svg>
