<?xml version="1.0" encoding="UTF-8"?>
<svg xmlns="http://www.w3.org/2000/svg" xmlns:xlink="http://www.w3.org/1999/xlink" width="411.248" height="192.996" viewBox="0 0 411.248 192.996">
<defs>
<g>
<g id="glyph-0-0">
<path d="M 3.171875 -4.671875 L 8.875 -4.671875 L 8.875 -3.4375 L 3.171875 -3.4375 Z M 3.171875 -6 L 3.171875 -7.234375 L 8.875 -7.234375 L 8.875 -6 Z M 3.171875 -2.109375 L 8.875 -2.109375 L 8.875 -0.875 L 3.171875 -0.875 Z M 5.109375 -10.171875 C 5.0625 -9.703125 4.921875 -9.125 4.78125 -8.609375 L 1.71875 -8.609375 L 1.71875 1.0625 L 3.171875 1.0625 L 3.171875 0.453125 L 8.875 0.453125 L 8.875 1.046875 L 10.40625 1.046875 L 10.40625 -8.609375 L 6.28125 -8.609375 C 6.484375 -9.03125 6.671875 -9.5 6.84375 -9.984375 Z M 5.109375 -10.171875 "/>
</g>
<g id="glyph-0-1">
<path d="M 0.625 -9.28125 L 0.625 -7.828125 L 4.953125 -7.828125 L 4.953125 1.046875 L 6.5 1.046875 L 6.5 -4.671875 C 7.71875 -3.984375 9.078125 -3.109375 9.78125 -2.46875 L 10.84375 -3.796875 C 9.921875 -4.546875 8.0625 -5.578125 6.75 -6.234375 L 6.5 -5.921875 L 6.5 -7.828125 L 11.34375 -7.828125 L 11.34375 -9.28125 Z M 0.625 -9.28125 "/>
</g>
<g id="glyph-0-2">
<path d="M 0.546875 -9.71875 L 0.546875 -8.265625 L 4.90625 -8.265625 C 4.8125 -7.84375 4.71875 -7.40625 4.609375 -7 L 1.109375 -7 L 1.109375 1.078125 L 2.578125 1.078125 L 2.578125 -5.65625 L 3.859375 -5.65625 L 3.859375 0.703125 L 5.296875 0.703125 L 5.296875 -5.65625 L 6.625 -5.65625 L 6.625 0.703125 L 8.046875 0.703125 L 8.046875 -5.65625 L 9.46875 -5.65625 L 9.46875 -0.453125 C 9.46875 -0.28125 9.40625 -0.234375 9.234375 -0.234375 C 9.078125 -0.234375 8.546875 -0.234375 8.0625 -0.25 C 8.25 0.09375 8.46875 0.671875 8.515625 1.046875 C 9.328125 1.046875 9.9375 1.015625 10.359375 0.8125 C 10.8125 0.578125 10.921875 0.234375 10.921875 -0.4375 L 10.921875 -7 L 6.171875 -7 C 6.328125 -7.390625 6.484375 -7.8125 6.625 -8.265625 L 11.4375 -8.265625 L 11.4375 -9.71875 Z M 0.546875 -9.71875 "/>
</g>
<g id="glyph-0-3">
<path d="M 4.8125 -10 L 4.8125 -0.96875 L 0.515625 -0.96875 L 0.515625 0.484375 L 11.453125 0.484375 L 11.453125 -0.96875 L 6.359375 -0.96875 L 6.359375 -5.109375 L 10.609375 -5.109375 L 10.609375 -6.5625 L 6.359375 -6.5625 L 6.359375 -10 Z M 4.8125 -10 "/>
</g>
<g id="glyph-0-4">
<path d="M 7.921875 -4.546875 C 7.921875 -1.984375 8.984375 -0.078125 10.28125 1.1875 L 11.421875 0.6875 C 10.21875 -0.59375 9.28125 -2.25 9.28125 -4.546875 C 9.28125 -6.84375 10.21875 -8.484375 11.421875 -9.78125 L 10.28125 -10.28125 C 8.984375 -9.015625 7.921875 -7.09375 7.921875 -4.546875 Z M 7.921875 -4.546875 "/>
</g>
<g id="glyph-0-5">
<path d="M 4.03125 -4.546875 C 4.03125 -7.09375 2.96875 -9.015625 1.671875 -10.28125 L 0.53125 -9.78125 C 1.734375 -8.484375 2.671875 -6.84375 2.671875 -4.546875 C 2.671875 -2.25 1.734375 -0.59375 0.53125 0.6875 L 1.671875 1.1875 C 2.96875 -0.078125 4.03125 -1.984375 4.03125 -4.546875 Z M 4.03125 -4.546875 "/>
</g>
<g id="glyph-0-6">
<path d="M 8.484375 -0.375 C 9.21875 0.046875 10.203125 0.6875 10.65625 1.09375 L 11.75 0.234375 C 11.21875 -0.171875 10.21875 -0.765625 9.5 -1.140625 Z M 2 -10.15625 L 2 -7.6875 L 0.53125 -7.6875 L 0.53125 -6.359375 L 1.90625 -6.359375 C 1.59375 -4.921875 0.953125 -3.28125 0.25 -2.328125 C 0.46875 -2 0.78125 -1.4375 0.90625 -1.046875 C 1.3125 -1.640625 1.6875 -2.46875 2 -3.375 L 2 1.0625 L 3.328125 1.0625 L 3.328125 -4.046875 C 3.5625 -3.546875 3.796875 -3.03125 3.9375 -2.671875 L 4.671875 -3.796875 C 4.5 -4.09375 3.640625 -5.390625 3.328125 -5.796875 L 3.328125 -6.359375 L 4.40625 -6.359375 L 4.40625 -6.046875 L 7.296875 -6.046875 L 7.296875 -5.421875 L 4.890625 -5.421875 L 4.890625 -1.21875 L 11.1875 -1.21875 L 11.1875 -5.421875 L 8.625 -5.421875 L 8.625 -6.046875 L 11.625 -6.046875 L 11.625 -7.25 L 10 -7.25 L 10 -8.03125 L 11.328125 -8.03125 L 11.328125 -9.1875 L 10 -9.1875 L 10 -10.140625 L 8.65625 -10.140625 L 8.65625 -9.1875 L 7.359375 -9.1875 L 7.359375 -10.140625 L 6.015625 -10.140625 L 6.015625 -9.1875 L 4.75 -9.1875 L 4.75 -8.03125 L 6.015625 -8.03125 L 6.015625 -7.25 L 4.53125 -7.25 L 4.53125 -7.6875 L 3.328125 -7.6875 L 3.328125 -10.15625 Z M 7.359375 -7.25 L 7.359375 -8.03125 L 8.65625 -8.03125 L 8.65625 -7.25 Z M 6.125 -2.859375 L 7.296875 -2.859375 L 7.296875 -2.203125 L 6.125 -2.203125 Z M 8.625 -2.859375 L 9.890625 -2.859375 L 9.890625 -2.203125 L 8.625 -2.203125 Z M 6.125 -4.4375 L 7.296875 -4.4375 L 7.296875 -3.796875 L 6.125 -3.796875 Z M 8.625 -4.4375 L 9.890625 -4.4375 L 9.890625 -3.796875 L 8.625 -3.796875 Z M 6.40625 -1.21875 C 5.890625 -0.734375 4.890625 -0.140625 4.046875 0.171875 C 4.34375 0.421875 4.78125 0.84375 5 1.09375 C 5.84375 0.765625 6.921875 0.140625 7.578125 -0.421875 Z M 6.40625 -1.21875 "/>
</g>
<g id="glyph-0-7">
<path d="M 4.96875 -10.15625 C 4.828125 -9.546875 4.609375 -8.796875 4.34375 -8.15625 L 1.03125 -8.15625 L 1.03125 1.0625 L 2.46875 1.0625 L 2.46875 -6.734375 L 9.53125 -6.734375 L 9.53125 -0.609375 C 9.53125 -0.40625 9.4375 -0.34375 9.234375 -0.34375 C 8.984375 -0.328125 8.15625 -0.328125 7.46875 -0.375 C 7.671875 0.015625 7.890625 0.671875 7.9375 1.078125 C 9.03125 1.078125 9.78125 1.046875 10.296875 0.828125 C 10.796875 0.59375 10.96875 0.171875 10.96875 -0.578125 L 10.96875 -8.15625 L 5.96875 -8.15625 C 6.234375 -8.671875 6.53125 -9.28125 6.796875 -9.890625 Z M 4.921875 -4.34375 L 7 -4.34375 L 7 -2.734375 L 4.921875 -2.734375 Z M 3.625 -5.578125 L 3.625 -0.640625 L 4.921875 -0.640625 L 4.921875 -1.484375 L 8.3125 -1.484375 L 8.3125 -5.578125 Z M 3.625 -5.578125 "/>
</g>
<g id="glyph-0-8">
<path d="M 0.84375 -9.34375 C 1.421875 -8.671875 2.125 -7.71875 2.421875 -7.125 L 3.609375 -7.9375 C 3.28125 -8.53125 2.515625 -9.421875 1.953125 -10.0625 Z M 3.203125 -6.1875 L 0.46875 -6.1875 L 0.46875 -4.859375 L 1.828125 -4.859375 L 1.828125 -1.609375 C 1.296875 -1.359375 0.703125 -0.890625 0.140625 -0.265625 L 1.1875 1.1875 C 1.609375 0.453125 2.109375 -0.375 2.453125 -0.375 C 2.71875 -0.375 3.140625 0.015625 3.6875 0.328125 C 4.59375 0.828125 5.609375 0.96875 7.1875 0.96875 C 8.46875 0.96875 10.453125 0.890625 11.328125 0.84375 C 11.34375 0.40625 11.59375 -0.34375 11.765625 -0.765625 C 10.53125 -0.578125 8.53125 -0.453125 7.25 -0.453125 C 5.859375 -0.453125 4.734375 -0.53125 3.921875 -1.03125 C 3.625 -1.1875 3.390625 -1.34375 3.203125 -1.46875 Z M 4.484375 -4.640625 C 4.59375 -4.765625 5.109375 -4.828125 5.640625 -4.828125 L 7.296875 -4.828125 L 7.296875 -3.765625 L 3.78125 -3.765625 L 3.78125 -2.421875 L 7.296875 -2.421875 L 7.296875 -0.734375 L 8.78125 -0.734375 L 8.78125 -2.421875 L 11.3125 -2.421875 L 11.3125 -3.765625 L 8.78125 -3.765625 L 8.78125 -4.828125 L 10.8125 -4.828125 L 10.8125 -6.15625 L 8.78125 -6.15625 L 8.78125 -7.34375 L 7.296875 -7.34375 L 7.296875 -6.15625 L 5.890625 -6.15625 C 6.171875 -6.640625 6.4375 -7.1875 6.703125 -7.75 L 11.1875 -7.75 L 11.1875 -8.984375 L 7.203125 -8.984375 L 7.5 -9.78125 L 6 -10.171875 C 5.90625 -9.765625 5.765625 -9.359375 5.640625 -8.984375 L 3.890625 -8.984375 L 3.890625 -7.75 L 5.15625 -7.75 C 4.96875 -7.265625 4.796875 -6.90625 4.6875 -6.734375 C 4.453125 -6.3125 4.25 -6.0625 4 -5.984375 C 4.171875 -5.609375 4.40625 -4.9375 4.484375 -4.640625 Z M 4.484375 -4.640625 "/>
</g>
<g id="glyph-0-9">
<path d="M 1.65625 -10.140625 L 1.65625 -7.890625 L 0.4375 -7.890625 L 0.4375 -6.578125 L 1.65625 -6.578125 L 1.65625 -4.4375 C 1.140625 -4.296875 0.640625 -4.171875 0.25 -4.09375 L 0.5625 -2.71875 L 1.65625 -3.03125 L 1.65625 -0.53125 C 1.65625 -0.375 1.609375 -0.328125 1.46875 -0.328125 C 1.328125 -0.3125 0.921875 -0.3125 0.5 -0.328125 C 0.671875 0.046875 0.84375 0.640625 0.875 0.984375 C 1.609375 1 2.140625 0.9375 2.5 0.734375 C 2.859375 0.5 2.96875 0.140625 2.96875 -0.515625 L 2.96875 -3.40625 L 4.03125 -3.734375 L 3.84375 -5.015625 L 2.96875 -4.78125 L 2.96875 -6.578125 L 3.953125 -6.578125 L 3.953125 -7.890625 L 2.96875 -7.890625 L 2.96875 -10.140625 Z M 6.546875 -7.875 L 8.90625 -7.875 C 8.71875 -7.40625 8.421875 -6.78125 8.15625 -6.328125 L 6.53125 -6.328125 L 7.203125 -6.609375 C 7.09375 -6.953125 6.828125 -7.46875 6.546875 -7.875 Z M 6.71875 -9.859375 C 6.84375 -9.640625 6.984375 -9.34375 7.09375 -9.078125 L 4.5625 -9.078125 L 4.5625 -7.875 L 6.1875 -7.875 L 5.375 -7.578125 C 5.609375 -7.203125 5.84375 -6.703125 5.96875 -6.328125 L 4.21875 -6.328125 L 4.21875 -5.109375 L 6.734375 -5.109375 C 6.59375 -4.78125 6.421875 -4.421875 6.234375 -4.0625 L 4.046875 -4.0625 L 4.046875 -2.859375 L 5.53125 -2.859375 C 5.21875 -2.359375 4.90625 -1.90625 4.609375 -1.53125 C 5.3125 -1.3125 6.0625 -1.046875 6.8125 -0.734375 C 6.0625 -0.421875 5.078125 -0.234375 3.84375 -0.140625 C 4.046875 0.140625 4.28125 0.65625 4.390625 1.046875 C 6.078125 0.8125 7.34375 0.484375 8.28125 -0.078125 C 9.140625 0.328125 9.921875 0.734375 10.453125 1.09375 L 11.3125 0.015625 C 10.8125 -0.3125 10.125 -0.671875 9.359375 -1 C 9.765625 -1.5 10.0625 -2.109375 10.28125 -2.859375 L 11.609375 -2.859375 L 11.609375 -4.0625 L 7.6875 -4.0625 C 7.828125 -4.34375 7.96875 -4.65625 8.09375 -4.921875 L 7.125 -5.109375 L 11.453125 -5.109375 L 11.453125 -6.328125 L 9.515625 -6.328125 C 9.734375 -6.703125 10 -7.140625 10.25 -7.578125 L 9.234375 -7.875 L 11.21875 -7.875 L 11.21875 -9.078125 L 8.578125 -9.078125 C 8.4375 -9.40625 8.25 -9.75 8.0625 -10.046875 Z M 8.84375 -2.859375 C 8.65625 -2.328125 8.40625 -1.90625 8.0625 -1.546875 C 7.5625 -1.75 7.046875 -1.9375 6.546875 -2.109375 L 7.015625 -2.859375 Z M 8.84375 -2.859375 "/>
</g>
<g id="glyph-1-0">
<path d="M 7.109375 -0.578125 L 7.109375 -0.734375 C 7.109375 -1.3125 6.84375 -1.3125 6.4375 -1.3125 L 4.59375 -1.296875 L 2.84375 -1.265625 L 2.84375 -3.71875 L 5.984375 -3.71875 C 6.359375 -3.71875 6.5625 -3.796875 6.5625 -4.28125 C 6.5625 -4.71875 6.40625 -4.84375 5.984375 -4.84375 L 2.84375 -4.84375 L 2.84375 -7.046875 L 3.4375 -7.046875 L 6.234375 -7.015625 C 6.65625 -7.015625 6.9375 -7.015625 6.9375 -7.59375 L 6.9375 -7.6875 C 6.9375 -8.0625 6.84375 -8.265625 6.359375 -8.265625 L 1.65625 -8.265625 C 1.234375 -8.265625 1.09375 -8.125 1.09375 -7.6875 L 1.09375 -0.578125 C 1.09375 -0.140625 1.21875 0 1.65625 0 L 6.53125 0 C 7 0 7.109375 -0.15625 7.109375 -0.578125 Z M 7.109375 -0.578125 "/>
</g>
<g id="glyph-1-1">
<path d="M 5.96875 -0.578125 L 5.96875 -3.890625 C 5.96875 -5.109375 5.453125 -5.609375 4.234375 -5.609375 C 2.96875 -5.609375 2.4375 -4.703125 2.28125 -4.375 L 2.265625 -4.375 L 2.265625 -4.96875 C 2.265625 -5.359375 2.1875 -5.546875 1.703125 -5.546875 L 1.296875 -5.546875 C 0.859375 -5.546875 0.71875 -5.421875 0.71875 -4.96875 L 0.71875 -0.578125 C 0.71875 -0.140625 0.84375 0 1.296875 0 L 1.765625 0 C 2.21875 0 2.34375 -0.15625 2.34375 -0.578125 L 2.34375 -3.21875 C 2.34375 -4.25 3.03125 -4.75 3.65625 -4.75 C 4.234375 -4.75 4.34375 -4.46875 4.34375 -3.859375 L 4.34375 -0.578125 C 4.34375 -0.1875 4.4375 0 4.921875 0 L 5.40625 0 C 5.859375 0 5.96875 -0.15625 5.96875 -0.578125 Z M 5.96875 -0.578125 "/>
</g>
<g id="glyph-1-2">
<path d="M 5.46875 -0.59375 C 5.46875 -0.734375 5.421875 -1.28125 5.390625 -1.4375 C 5.390625 -1.46875 5.359375 -1.59375 5.25 -1.59375 C 5.203125 -1.59375 5.171875 -1.59375 5.0625 -1.46875 C 4.859375 -1.296875 4.296875 -0.796875 3.3125 -0.796875 C 2.0625 -0.796875 2.0625 -2.015625 2.0625 -2.765625 C 2.0625 -3.734375 2.125 -4.75 3.34375 -4.75 C 4.125 -4.75 4.453125 -4.546875 4.875 -4.203125 C 5.015625 -4.0625 5.046875 -4.0625 5.09375 -4.0625 C 5.21875 -4.0625 5.234375 -4.171875 5.25 -4.21875 C 5.265625 -4.3125 5.390625 -4.984375 5.390625 -5.046875 C 5.390625 -5.15625 5.3125 -5.203125 5.109375 -5.296875 C 4.53125 -5.5625 4.171875 -5.671875 3.328125 -5.671875 C 1.546875 -5.671875 0.4375 -4.84375 0.4375 -2.75 C 0.4375 -0.765625 1.46875 0.125 3.28125 0.125 C 3.59375 0.125 4.3125 0.125 5.109375 -0.28125 C 5.453125 -0.46875 5.46875 -0.484375 5.46875 -0.59375 Z M 5.46875 -0.59375 "/>
</g>
<g id="glyph-1-3">
<path d="M 6.1875 -2.6875 C 6.1875 -4.65625 5.234375 -5.671875 3.28125 -5.671875 C 1.296875 -5.671875 0.375 -4.609375 0.375 -2.6875 C 0.375 -0.734375 1.40625 0.125 3.28125 0.125 C 5.15625 0.125 6.1875 -0.734375 6.1875 -2.6875 Z M 4.5625 -2.828125 C 4.5625 -1.890625 4.5625 -0.796875 3.28125 -0.796875 C 2 -0.796875 2 -1.875 2 -2.828125 C 2 -3.75 2 -4.8125 3.28125 -4.8125 C 4.5625 -4.8125 4.5625 -3.765625 4.5625 -2.828125 Z M 4.5625 -2.828125 "/>
</g>
<g id="glyph-1-4">
<path d="M 5.96875 -0.578125 L 5.96875 -7.71875 C 5.96875 -8.109375 5.875 -8.296875 5.390625 -8.296875 L 4.953125 -8.296875 C 4.5 -8.296875 4.375 -8.140625 4.375 -7.71875 L 4.375 -5.015625 C 3.84375 -5.515625 3.234375 -5.609375 2.875 -5.609375 C 0.4375 -5.609375 0.4375 -3.3125 0.4375 -2.71875 C 0.4375 -2.171875 0.4375 0.125 2.8125 0.125 C 3.3125 0.125 3.828125 -0.015625 4.34375 -0.5625 C 4.34375 -0.125 4.5 0 4.90625 0 L 5.390625 0 C 5.84375 0 5.96875 -0.15625 5.96875 -0.578125 Z M 4.34375 -1.5 C 4.34375 -1.296875 4.34375 -1.1875 4 -0.9375 C 3.6875 -0.75 3.421875 -0.734375 3.28125 -0.734375 C 2.0625 -0.734375 2.0625 -1.828125 2.0625 -2.71875 C 2.0625 -3.625 2.0625 -4.75 3.40625 -4.75 C 3.75 -4.75 4.078125 -4.625 4.34375 -4.375 Z M 4.34375 -1.5 "/>
</g>
<g id="glyph-1-5">
<path d="M 5.71875 -3.109375 C 5.71875 -4.65625 5.015625 -5.671875 3.234375 -5.671875 C 1.3125 -5.671875 0.375 -4.609375 0.375 -2.78125 C 0.375 -0.828125 1.5 0.125 3.375 0.125 C 3.84375 0.125 4.515625 0.078125 5.3125 -0.328125 C 5.5625 -0.453125 5.65625 -0.484375 5.65625 -0.640625 C 5.65625 -0.71875 5.625 -1.0625 5.609375 -1.15625 C 5.5625 -1.53125 5.546875 -1.546875 5.4375 -1.546875 C 5.390625 -1.546875 5.359375 -1.546875 5.234375 -1.421875 C 4.53125 -0.8125 3.8125 -0.734375 3.4375 -0.734375 C 2.078125 -0.734375 1.9375 -1.796875 1.90625 -2.5625 L 5.15625 -2.5625 C 5.421875 -2.5625 5.71875 -2.5625 5.71875 -3.109375 Z M 4.40625 -3.1875 L 1.90625 -3.1875 C 1.953125 -3.921875 2.1875 -4.8125 3.234375 -4.8125 C 4.1875 -4.8125 4.359375 -4.125 4.40625 -3.1875 Z M 4.40625 -3.1875 "/>
</g>
<g id="glyph-1-6">
<path d="M 4.25 -4.71875 L 4.25 -5.28125 C 4.25 -5.515625 4.25 -5.609375 4.046875 -5.609375 C 3.703125 -5.609375 2.828125 -5.484375 2.265625 -4.203125 L 2.265625 -4.96875 C 2.265625 -5.359375 2.171875 -5.546875 1.6875 -5.546875 L 1.296875 -5.546875 C 0.875 -5.546875 0.734375 -5.421875 0.734375 -4.96875 L 0.734375 -0.578125 C 0.734375 -0.140625 0.859375 0 1.296875 0 L 1.75 0 C 2.203125 0 2.3125 -0.15625 2.3125 -0.578125 L 2.3125 -2.75 C 2.3125 -3.890625 3.265625 -4.34375 4.015625 -4.40625 C 4.234375 -4.40625 4.25 -4.40625 4.25 -4.71875 Z M 4.25 -4.71875 "/>
</g>
<g id="glyph-1-7">
<path d="M 6.734375 -7.59375 L 6.734375 -7.6875 C 6.734375 -8.0625 6.65625 -8.265625 6.171875 -8.265625 L 1.65625 -8.265625 C 1.234375 -8.265625 1.09375 -8.125 1.09375 -7.6875 L 1.09375 -0.578125 C 1.09375 -0.140625 1.21875 0 1.65625 0 L 2.265625 0 C 2.71875 0 2.84375 -0.15625 2.84375 -0.578125 L 2.84375 -3.578125 L 5.625 -3.578125 C 5.984375 -3.578125 6.1875 -3.65625 6.1875 -4.140625 C 6.1875 -4.578125 6.03125 -4.703125 5.625 -4.703125 L 2.84375 -4.703125 L 2.84375 -7.046875 L 3.359375 -7.046875 L 6.0625 -7.015625 C 6.46875 -7.015625 6.734375 -7.015625 6.734375 -7.59375 Z M 6.734375 -7.59375 "/>
</g>
<g id="glyph-1-8">
<path d="M 7.65625 -5.71875 C 7.65625 -7.515625 6.484375 -8.296875 4.65625 -8.296875 L 1.65625 -8.296875 C 1.234375 -8.296875 1.09375 -8.15625 1.09375 -7.71875 L 1.09375 -0.578125 C 1.09375 -0.140625 1.21875 0 1.65625 0 L 2.265625 0 C 2.71875 0 2.84375 -0.15625 2.84375 -0.578125 L 2.84375 -3.203125 L 4.65625 -3.203125 C 6.53125 -3.203125 7.65625 -4 7.65625 -5.71875 Z M 6 -5.71875 C 6 -4.90625 5.875 -4.140625 4.265625 -4.140625 L 2.8125 -4.140625 L 2.8125 -7.265625 L 4.28125 -7.265625 C 5.84375 -7.265625 6 -6.546875 6 -5.71875 Z M 6 -5.71875 "/>
</g>
<g id="glyph-1-9">
<path d="M 8.390625 -0.578125 L 8.390625 -7.71875 C 8.390625 -8.109375 8.3125 -8.296875 7.8125 -8.296875 L 7.5 -8.296875 C 7.046875 -8.296875 6.921875 -8.140625 6.921875 -7.71875 L 6.921875 -1.453125 L 6.90625 -1.453125 L 3.625 -7.8125 C 3.375 -8.296875 3.015625 -8.296875 2.765625 -8.296875 L 1.65625 -8.296875 C 1.234375 -8.296875 1.09375 -8.15625 1.09375 -7.71875 L 1.09375 -0.578125 C 1.09375 -0.140625 1.21875 0 1.65625 0 L 1.984375 0 C 2.4375 0 2.5625 -0.15625 2.5625 -0.578125 L 2.5625 -6.84375 L 5.859375 -0.484375 C 6.109375 0 6.46875 0 6.703125 0 L 7.8125 0 C 8.265625 0 8.390625 -0.15625 8.390625 -0.578125 Z M 8.390625 -0.578125 "/>
</g>
<g id="glyph-1-10">
<path d="M 9.484375 -2.984375 C 9.484375 -3.484375 8.984375 -3.484375 8.859375 -3.484375 L 5.625 -3.484375 L 5.625 -6.734375 C 5.625 -6.859375 5.625 -7.375 5.109375 -7.375 C 4.609375 -7.375 4.609375 -6.859375 4.609375 -6.734375 L 4.609375 -3.484375 L 1.359375 -3.484375 C 1.25 -3.484375 0.734375 -3.484375 0.734375 -2.984375 C 0.734375 -2.484375 1.25 -2.484375 1.359375 -2.484375 L 4.609375 -2.484375 L 4.609375 0.765625 C 4.609375 0.890625 4.609375 1.40625 5.109375 1.40625 C 5.625 1.40625 5.625 0.890625 5.625 0.765625 L 5.625 -2.484375 L 8.859375 -2.484375 C 8.984375 -2.484375 9.484375 -2.484375 9.484375 -2.984375 Z M 9.484375 -2.984375 "/>
</g>
<g id="glyph-2-0">
<path d="M 8.28125 -7.578125 C 8.28125 -7.609375 8.265625 -7.6875 8.171875 -7.6875 C 8.140625 -7.6875 8.125 -7.671875 8 -7.5625 L 7.234375 -6.71875 C 7.140625 -6.875 6.640625 -7.6875 5.4375 -7.6875 C 3 -7.6875 0.546875 -5.28125 0.546875 -2.75 C 0.546875 -0.953125 1.828125 0.234375 3.5 0.234375 C 4.453125 0.234375 5.28125 -0.203125 5.859375 -0.703125 C 6.875 -1.59375 7.0625 -2.578125 7.0625 -2.625 C 7.0625 -2.71875 6.953125 -2.71875 6.921875 -2.71875 C 6.859375 -2.71875 6.8125 -2.703125 6.78125 -2.625 C 6.6875 -2.296875 6.4375 -1.53125 5.6875 -0.890625 C 4.921875 -0.28125 4.25 -0.09375 3.671875 -0.09375 C 2.6875 -0.09375 1.53125 -0.671875 1.53125 -2.359375 C 1.53125 -2.984375 1.765625 -4.75 2.859375 -6.03125 C 3.515625 -6.8125 4.546875 -7.34375 5.515625 -7.34375 C 6.625 -7.34375 7.28125 -6.515625 7.28125 -5.25 C 7.28125 -4.8125 7.234375 -4.796875 7.234375 -4.6875 C 7.234375 -4.578125 7.359375 -4.578125 7.40625 -4.578125 C 7.546875 -4.578125 7.546875 -4.609375 7.609375 -4.796875 Z M 8.28125 -7.578125 "/>
</g>
<g id="glyph-2-1">
<path d="M 3.296875 -3.453125 L 5.15625 -3.453125 C 6.703125 -3.453125 8.21875 -4.578125 8.21875 -5.796875 C 8.21875 -6.640625 7.5 -7.453125 6.078125 -7.453125 L 2.546875 -7.453125 C 2.328125 -7.453125 2.21875 -7.453125 2.21875 -7.234375 C 2.21875 -7.109375 2.3125 -7.109375 2.53125 -7.109375 C 2.671875 -7.109375 2.875 -7.09375 3 -7.09375 C 3.171875 -7.0625 3.234375 -7.03125 3.234375 -6.921875 C 3.234375 -6.875 3.234375 -6.84375 3.203125 -6.703125 L 1.734375 -0.84375 C 1.625 -0.421875 1.609375 -0.34375 0.734375 -0.34375 C 0.5625 -0.34375 0.4375 -0.34375 0.4375 -0.125 C 0.4375 0 0.5625 0 0.59375 0 C 0.90625 0 1.671875 -0.03125 1.984375 -0.03125 C 2.21875 -0.03125 2.453125 -0.015625 2.6875 -0.015625 C 2.921875 -0.015625 3.15625 0 3.390625 0 C 3.46875 0 3.609375 0 3.609375 -0.21875 C 3.609375 -0.34375 3.515625 -0.34375 3.296875 -0.34375 C 2.90625 -0.34375 2.59375 -0.34375 2.59375 -0.53125 C 2.59375 -0.59375 2.625 -0.65625 2.625 -0.71875 Z M 4.09375 -6.703125 C 4.1875 -7.078125 4.203125 -7.109375 4.671875 -7.109375 L 5.71875 -7.109375 C 6.625 -7.109375 7.203125 -6.8125 7.203125 -6.0625 C 7.203125 -5.640625 6.984375 -4.703125 6.5625 -4.3125 C 6.015625 -3.8125 5.359375 -3.734375 4.890625 -3.734375 L 3.34375 -3.734375 Z M 4.09375 -6.703125 "/>
</g>
<g id="glyph-3-0">
<path d="M 2.5 -5.078125 C 2.5 -5.296875 2.484375 -5.296875 2.265625 -5.296875 C 1.9375 -4.984375 1.515625 -4.796875 0.765625 -4.796875 L 0.765625 -4.53125 C 0.984375 -4.53125 1.40625 -4.53125 1.875 -4.734375 L 1.875 -0.65625 C 1.875 -0.359375 1.84375 -0.265625 1.09375 -0.265625 L 0.8125 -0.265625 L 0.8125 0 C 1.140625 -0.03125 1.828125 -0.03125 2.1875 -0.03125 C 2.546875 -0.03125 3.234375 -0.03125 3.5625 0 L 3.5625 -0.265625 L 3.28125 -0.265625 C 2.53125 -0.265625 2.5 -0.359375 2.5 -0.65625 Z M 2.5 -5.078125 "/>
</g>
<g id="glyph-3-1">
<path d="M 2.25 -1.625 C 2.375 -1.75 2.703125 -2.015625 2.84375 -2.125 C 3.328125 -2.578125 3.796875 -3.015625 3.796875 -3.734375 C 3.796875 -4.6875 3 -5.296875 2.015625 -5.296875 C 1.046875 -5.296875 0.421875 -4.578125 0.421875 -3.859375 C 0.421875 -3.46875 0.734375 -3.421875 0.84375 -3.421875 C 1.015625 -3.421875 1.265625 -3.53125 1.265625 -3.84375 C 1.265625 -4.25 0.859375 -4.25 0.765625 -4.25 C 1 -4.84375 1.53125 -5.03125 1.921875 -5.03125 C 2.65625 -5.03125 3.046875 -4.40625 3.046875 -3.734375 C 3.046875 -2.90625 2.46875 -2.296875 1.515625 -1.34375 L 0.515625 -0.296875 C 0.421875 -0.21875 0.421875 -0.203125 0.421875 0 L 3.5625 0 L 3.796875 -1.421875 L 3.546875 -1.421875 C 3.53125 -1.265625 3.46875 -0.875 3.375 -0.71875 C 3.328125 -0.65625 2.71875 -0.65625 2.59375 -0.65625 L 1.171875 -0.65625 Z M 2.25 -1.625 "/>
</g>
<g id="glyph-3-2">
<path d="M 2.015625 -2.65625 C 2.640625 -2.65625 3.046875 -2.203125 3.046875 -1.359375 C 3.046875 -0.359375 2.484375 -0.078125 2.0625 -0.078125 C 1.625 -0.078125 1.015625 -0.234375 0.734375 -0.65625 C 1.03125 -0.65625 1.234375 -0.84375 1.234375 -1.09375 C 1.234375 -1.359375 1.046875 -1.53125 0.78125 -1.53125 C 0.578125 -1.53125 0.34375 -1.40625 0.34375 -1.078125 C 0.34375 -0.328125 1.15625 0.171875 2.078125 0.171875 C 3.125 0.171875 3.875 -0.5625 3.875 -1.359375 C 3.875 -2.03125 3.34375 -2.625 2.53125 -2.8125 C 3.15625 -3.03125 3.640625 -3.5625 3.640625 -4.203125 C 3.640625 -4.84375 2.921875 -5.296875 2.09375 -5.296875 C 1.234375 -5.296875 0.59375 -4.84375 0.59375 -4.234375 C 0.59375 -3.9375 0.78125 -3.8125 1 -3.8125 C 1.25 -3.8125 1.40625 -3.984375 1.40625 -4.21875 C 1.40625 -4.515625 1.140625 -4.625 0.96875 -4.625 C 1.3125 -5.0625 1.921875 -5.09375 2.0625 -5.09375 C 2.265625 -5.09375 2.875 -5.03125 2.875 -4.203125 C 2.875 -3.65625 2.640625 -3.3125 2.53125 -3.1875 C 2.296875 -2.9375 2.109375 -2.921875 1.625 -2.890625 C 1.46875 -2.890625 1.40625 -2.875 1.40625 -2.765625 C 1.40625 -2.65625 1.484375 -2.65625 1.625 -2.65625 Z M 2.015625 -2.65625 "/>
</g>
<g id="glyph-3-3">
<path d="M 3.140625 -5.15625 C 3.140625 -5.3125 3.140625 -5.375 2.96875 -5.375 C 2.875 -5.375 2.859375 -5.375 2.78125 -5.265625 L 0.234375 -1.5625 L 0.234375 -1.3125 L 2.484375 -1.3125 L 2.484375 -0.640625 C 2.484375 -0.34375 2.46875 -0.265625 1.84375 -0.265625 L 1.671875 -0.265625 L 1.671875 0 C 2.34375 -0.03125 2.359375 -0.03125 2.8125 -0.03125 C 3.265625 -0.03125 3.28125 -0.03125 3.953125 0 L 3.953125 -0.265625 L 3.78125 -0.265625 C 3.15625 -0.265625 3.140625 -0.34375 3.140625 -0.640625 L 3.140625 -1.3125 L 3.984375 -1.3125 L 3.984375 -1.5625 L 3.140625 -1.5625 Z M 2.546875 -4.515625 L 2.546875 -1.5625 L 0.515625 -1.5625 Z M 2.546875 -4.515625 "/>
</g>
<g id="glyph-4-0">
<path d="M 8 -4.875 L 8 -0.921875 L 8.65625 -0.921875 L 8.65625 -4.875 Z M 9.390625 -5.28125 L 9.390625 -0.046875 C 9.390625 0.0625 9.34375 0.09375 9.234375 0.109375 C 9.078125 0.109375 8.65625 0.109375 8.140625 0.09375 C 8.25 0.296875 8.34375 0.59375 8.359375 0.78125 C 9.015625 0.78125 9.4375 0.765625 9.703125 0.65625 C 9.984375 0.53125 10.0625 0.34375 10.0625 -0.046875 L 10.0625 -5.28125 Z M 0.78125 -3.59375 C 0.859375 -3.6875 1.171875 -3.75 1.53125 -3.75 L 2.390625 -3.75 L 2.390625 -2.25 C 1.65625 -2.078125 0.984375 -1.921875 0.453125 -1.828125 L 0.640625 -1.046875 L 2.390625 -1.5 L 2.390625 0.859375 L 3.109375 0.859375 L 3.109375 -1.671875 L 4.015625 -1.921875 L 3.953125 -2.609375 L 3.109375 -2.40625 L 3.109375 -3.75 L 3.984375 -3.75 L 3.984375 -4.5 L 3.109375 -4.5 L 3.109375 -6.15625 L 2.390625 -6.15625 L 2.390625 -4.5 L 1.4375 -4.5 C 1.71875 -5.265625 2 -6.171875 2.21875 -7.109375 L 4 -7.109375 L 4 -7.859375 L 2.359375 -7.859375 C 2.453125 -8.25 2.515625 -8.640625 2.578125 -9.015625 L 1.8125 -9.15625 C 1.765625 -8.71875 1.71875 -8.28125 1.640625 -7.859375 L 0.515625 -7.859375 L 0.515625 -7.109375 L 1.5 -7.109375 C 1.296875 -6.203125 1.09375 -5.46875 1 -5.1875 C 0.84375 -4.6875 0.703125 -4.34375 0.53125 -4.28125 C 0.609375 -4.09375 0.734375 -3.75 0.78125 -3.59375 Z M 7.1875 -9.1875 C 6.46875 -8.046875 5.109375 -6.96875 3.796875 -6.359375 C 3.984375 -6.1875 4.203125 -5.9375 4.328125 -5.75 C 4.625 -5.90625 4.921875 -6.078125 5.203125 -6.265625 L 5.203125 -5.796875 L 9.234375 -5.796875 L 9.234375 -6.34375 C 9.515625 -6.171875 9.8125 -6.015625 10.09375 -5.859375 C 10.203125 -6.078125 10.421875 -6.34375 10.625 -6.5 C 9.484375 -6.984375 8.4375 -7.609375 7.609375 -8.546875 L 7.859375 -8.90625 Z M 5.515625 -6.484375 C 6.125 -6.921875 6.703125 -7.453125 7.1875 -8 C 7.75 -7.390625 8.34375 -6.90625 9.015625 -6.484375 Z M 6.703125 -4.421875 L 6.703125 -3.5625 L 5.203125 -3.5625 L 5.203125 -4.421875 Z M 4.53125 -5.078125 L 4.53125 0.828125 L 5.203125 0.828125 L 5.203125 -1.421875 L 6.703125 -1.421875 L 6.703125 0.015625 C 6.703125 0.109375 6.671875 0.125 6.59375 0.140625 C 6.484375 0.140625 6.1875 0.140625 5.859375 0.125 C 5.953125 0.328125 6.046875 0.625 6.0625 0.8125 C 6.53125 0.8125 6.875 0.8125 7.09375 0.6875 C 7.328125 0.5625 7.390625 0.359375 7.390625 0.015625 L 7.390625 -5.078125 Z M 5.203125 -2.9375 L 6.703125 -2.9375 L 6.703125 -2.046875 L 5.203125 -2.046875 Z M 5.203125 -2.9375 "/>
</g>
<g id="glyph-4-1">
<path d="M 1.140625 -3.71875 L 1.140625 0.234375 L 8.875 0.234375 L 8.875 0.84375 L 9.765625 0.84375 L 9.765625 -3.71875 L 8.875 -3.71875 L 8.875 -0.59375 L 5.875 -0.59375 L 5.875 -4.40625 L 9.328125 -4.40625 L 9.328125 -8.171875 L 8.4375 -8.171875 L 8.4375 -5.203125 L 5.875 -5.203125 L 5.875 -9.15625 L 4.984375 -9.15625 L 4.984375 -5.203125 L 2.484375 -5.203125 L 2.484375 -8.171875 L 1.640625 -8.171875 L 1.640625 -4.40625 L 4.984375 -4.40625 L 4.984375 -0.59375 L 2.046875 -0.59375 L 2.046875 -3.71875 Z M 1.140625 -3.71875 "/>
</g>
</g>
<clipPath id="clip-0">
<path clip-rule="nonzero" d="M 25 167 L 94 167 L 94 192.996094 L 25 192.996094 Z M 25 167 "/>
</clipPath>
<clipPath id="clip-1">
<path clip-rule="nonzero" d="M 24 167 L 94 167 L 94 192.996094 L 24 192.996094 Z M 24 167 "/>
</clipPath>
<clipPath id="clip-2">
<path clip-rule="nonzero" d="M 251 167 L 320 167 L 320 192.996094 L 251 192.996094 Z M 251 167 "/>
</clipPath>
<clipPath id="clip-3">
<path clip-rule="nonzero" d="M 251 167 L 321 167 L 321 192.996094 L 251 192.996094 Z M 251 167 "/>
</clipPath>
<clipPath id="clip-4">
<path clip-rule="nonzero" d="M 336 167 L 405 167 L 405 192.996094 L 336 192.996094 Z M 336 167 "/>
</clipPath>
<clipPath id="clip-5">
<path clip-rule="nonzero" d="M 336 167 L 406 167 L 406 192.996094 L 336 192.996094 Z M 336 167 "/>
</clipPath>
</defs>
<g fill="rgb(0%, 0%, 0%)" fill-opacity="1">
<use xlink:href="#glyph-0-0" x="3.985" y="14.505"/>
<use xlink:href="#glyph-0-1" x="15.94017" y="14.505"/>
<use xlink:href="#glyph-0-2" x="27.89534" y="14.505"/>
<use xlink:href="#glyph-0-3" x="39.85051" y="14.505"/>
<use xlink:href="#glyph-0-4" x="51.80568" y="14.505"/>
</g>
<g fill="rgb(0%, 0%, 0%)" fill-opacity="1">
<use xlink:href="#glyph-1-0" x="63.76" y="14.505"/>
<use xlink:href="#glyph-1-1" x="71.435219" y="14.505"/>
<use xlink:href="#glyph-1-2" x="78.14207" y="14.505"/>
<use xlink:href="#glyph-1-3" x="83.988148" y="14.505"/>
</g>
<g fill="rgb(0%, 0%, 0%)" fill-opacity="1">
<use xlink:href="#glyph-1-4" x="90.934101" y="14.505"/>
<use xlink:href="#glyph-1-5" x="97.640952" y="14.505"/>
<use xlink:href="#glyph-1-6" x="103.750044" y="14.505"/>
</g>
<g fill="rgb(0%, 0%, 0%)" fill-opacity="1">
<use xlink:href="#glyph-0-5" x="108.198" y="14.505"/>
</g>
<g fill="rgb(0%, 0%, 0%)" fill-opacity="1">
<use xlink:href="#glyph-1-7" x="249.479" y="14.505"/>
<use xlink:href="#glyph-1-8" x="256.783609" y="14.505"/>
<use xlink:href="#glyph-1-9" x="265.188093" y="14.505"/>
</g>
<g fill="rgb(0%, 0%, 0%)" fill-opacity="1">
<use xlink:href="#glyph-0-4" x="274.681" y="14.505"/>
<use xlink:href="#glyph-0-0" x="286.63617" y="14.505"/>
<use xlink:href="#glyph-0-3" x="298.59134" y="14.505"/>
<use xlink:href="#glyph-0-2" x="310.54651" y="14.505"/>
<use xlink:href="#glyph-0-1" x="322.50168" y="14.505"/>
</g>
<g fill="rgb(0%, 0%, 0%)" fill-opacity="1">
<use xlink:href="#glyph-1-10" x="338.844" y="14.505"/>
</g>
<g fill="rgb(0%, 0%, 0%)" fill-opacity="1">
<use xlink:href="#glyph-0-6" x="353.465" y="14.505"/>
<use xlink:href="#glyph-0-7" x="365.42017" y="14.505"/>
<use xlink:href="#glyph-0-8" x="377.37534" y="14.505"/>
<use xlink:href="#glyph-0-9" x="389.33051" y="14.505"/>
<use xlink:href="#glyph-0-5" x="401.28568" y="14.505"/>
</g>
<path fill-rule="nonzero" fill="rgb(87.998962%, 87.998962%, 100%)" fill-opacity="1" stroke-width="0.3985" stroke-linecap="butt" stroke-linejoin="miter" stroke="rgb(0%, 0%, 0%)" stroke-opacity="1" stroke-miterlimit="10" d="M -147.4035 143.152625 L -79.37225 143.152625 L -79.37225 168.664344 L -147.4035 168.664344 Z M -147.4035 143.152625 " transform="matrix(1, 0, 0, -1, 172.466, 208.387)"/>
<g fill="rgb(0%, 0%, 0%)" fill-opacity="1">
<use xlink:href="#glyph-2-0" x="52.815" y="55.391"/>
</g>
<g fill="rgb(0%, 0%, 0%)" fill-opacity="1">
<use xlink:href="#glyph-3-0" x="60.612" y="57.027"/>
</g>
<path fill-rule="nonzero" fill="rgb(87.998962%, 87.998962%, 100%)" fill-opacity="1" stroke-width="0.3985" stroke-linecap="butt" stroke-linejoin="miter" stroke="rgb(0%, 0%, 0%)" stroke-opacity="1" stroke-miterlimit="10" d="M -147.4035 100.633094 L -79.37225 100.633094 L -79.37225 126.144813 L -147.4035 126.144813 Z M -147.4035 100.633094 " transform="matrix(1, 0, 0, -1, 172.466, 208.387)"/>
<g fill="rgb(0%, 0%, 0%)" fill-opacity="1">
<use xlink:href="#glyph-2-0" x="52.815" y="97.911"/>
</g>
<g fill="rgb(0%, 0%, 0%)" fill-opacity="1">
<use xlink:href="#glyph-3-1" x="60.612" y="99.547"/>
</g>
<path fill-rule="nonzero" fill="rgb(87.998962%, 87.998962%, 100%)" fill-opacity="1" stroke-width="0.3985" stroke-linecap="butt" stroke-linejoin="miter" stroke="rgb(0%, 0%, 0%)" stroke-opacity="1" stroke-miterlimit="10" d="M -147.4035 58.109656 L -79.37225 58.109656 L -79.37225 83.621375 L -147.4035 83.621375 Z M -147.4035 58.109656 " transform="matrix(1, 0, 0, -1, 172.466, 208.387)"/>
<g fill="rgb(0%, 0%, 0%)" fill-opacity="1">
<use xlink:href="#glyph-2-0" x="52.815" y="140.43"/>
</g>
<g fill="rgb(0%, 0%, 0%)" fill-opacity="1">
<use xlink:href="#glyph-3-2" x="60.612" y="142.067"/>
</g>
<g clip-path="url(#clip-0)">
<path fill-rule="nonzero" fill="rgb(87.998962%, 87.998962%, 100%)" fill-opacity="1" d="M 25.0625 192.796875 L 93.09375 192.796875 L 93.09375 167.285156 L 25.0625 167.285156 Z M 25.0625 192.796875 "/>
</g>
<g clip-path="url(#clip-1)">
<path fill="none" stroke-width="0.3985" stroke-linecap="butt" stroke-linejoin="miter" stroke="rgb(0%, 0%, 0%)" stroke-opacity="1" stroke-miterlimit="10" d="M -147.4035 15.590125 L -79.37225 15.590125 L -79.37225 41.101844 L -147.4035 41.101844 Z M -147.4035 15.590125 " transform="matrix(1, 0, 0, -1, 172.466, 208.387)"/>
</g>
<g fill="rgb(0%, 0%, 0%)" fill-opacity="1">
<use xlink:href="#glyph-2-0" x="52.815" y="182.95"/>
</g>
<g fill="rgb(0%, 0%, 0%)" fill-opacity="1">
<use xlink:href="#glyph-3-3" x="60.612" y="184.586"/>
</g>
<path fill="none" stroke-width="0.3985" stroke-linecap="butt" stroke-linejoin="miter" stroke="rgb(0%, 0%, 0%)" stroke-opacity="1" stroke-miterlimit="10" d="M -113.387875 142.953406 L -113.387875 129.406531 " transform="matrix(1, 0, 0, -1, 172.466, 208.387)"/>
<path fill-rule="nonzero" fill="rgb(0%, 0%, 0%)" fill-opacity="1" stroke-width="0.3985" stroke-linecap="butt" stroke-linejoin="miter" stroke="rgb(0%, 0%, 0%)" stroke-opacity="1" stroke-miterlimit="10" d="M 4.214132 -0.000635 L 0.64382 1.347021 L 1.819601 -0.000635 L 0.64382 -1.344385 Z M 4.214132 -0.000635 " transform="matrix(0, 1, 1, 0, 59.07876, 77.26243)"/>
<path fill="none" stroke-width="0.3985" stroke-linecap="butt" stroke-linejoin="miter" stroke="rgb(0%, 0%, 0%)" stroke-opacity="1" stroke-miterlimit="10" d="M -113.387875 100.433875 L -113.387875 86.887 " transform="matrix(1, 0, 0, -1, 172.466, 208.387)"/>
<path fill-rule="nonzero" fill="rgb(0%, 0%, 0%)" fill-opacity="1" stroke-width="0.3985" stroke-linecap="butt" stroke-linejoin="miter" stroke="rgb(0%, 0%, 0%)" stroke-opacity="1" stroke-miterlimit="10" d="M 4.213434 -0.000635 L 0.643121 1.347021 L 1.818902 -0.000635 L 0.643121 -1.344385 Z M 4.213434 -0.000635 " transform="matrix(0, 1, 1, 0, 59.07876, 119.78266)"/>
<path fill="none" stroke-width="0.3985" stroke-linecap="butt" stroke-linejoin="miter" stroke="rgb(0%, 0%, 0%)" stroke-opacity="1" stroke-miterlimit="10" d="M -113.387875 57.910438 L -113.387875 44.367469 " transform="matrix(1, 0, 0, -1, 172.466, 208.387)"/>
<path fill-rule="nonzero" fill="rgb(0%, 0%, 0%)" fill-opacity="1" stroke-width="0.3985" stroke-linecap="butt" stroke-linejoin="miter" stroke="rgb(0%, 0%, 0%)" stroke-opacity="1" stroke-miterlimit="10" d="M 4.212765 -0.000635 L 0.642452 1.347021 L 1.818234 -0.000635 L 0.642452 -1.344385 Z M 4.212765 -0.000635 " transform="matrix(0, 1, 1, 0, 59.07876, 162.30286)"/>
<g clip-path="url(#clip-2)">
<path fill-rule="nonzero" fill="rgb(87.998962%, 100%, 87.998962%)" fill-opacity="1" d="M 251.835938 192.796875 L 319.871094 192.796875 L 319.871094 167.285156 L 251.835938 167.285156 Z M 251.835938 192.796875 "/>
</g>
<g clip-path="url(#clip-3)">
<path fill="none" stroke-width="0.3985" stroke-linecap="butt" stroke-linejoin="miter" stroke="rgb(0%, 0%, 0%)" stroke-opacity="1" stroke-miterlimit="10" d="M 79.369937 15.590125 L 147.405094 15.590125 L 147.405094 41.101844 L 79.369937 41.101844 Z M 79.369937 15.590125 " transform="matrix(1, 0, 0, -1, 172.466, 208.387)"/>
</g>
<g fill="rgb(0%, 0%, 0%)" fill-opacity="1">
<use xlink:href="#glyph-2-1" x="279.984" y="182.95"/>
</g>
<g fill="rgb(0%, 0%, 0%)" fill-opacity="1">
<use xlink:href="#glyph-3-3" x="286.987" y="184.586"/>
</g>
<path fill-rule="nonzero" fill="rgb(87.998962%, 100%, 87.998962%)" fill-opacity="1" stroke-width="0.3985" stroke-linecap="butt" stroke-linejoin="miter" stroke="rgb(0%, 0%, 0%)" stroke-opacity="1" stroke-miterlimit="10" d="M 79.369937 58.109656 L 147.405094 58.109656 L 147.405094 83.621375 L 79.369937 83.621375 Z M 79.369937 58.109656 " transform="matrix(1, 0, 0, -1, 172.466, 208.387)"/>
<g fill="rgb(0%, 0%, 0%)" fill-opacity="1">
<use xlink:href="#glyph-2-1" x="279.984" y="140.43"/>
</g>
<g fill="rgb(0%, 0%, 0%)" fill-opacity="1">
<use xlink:href="#glyph-3-2" x="286.987" y="142.067"/>
</g>
<path fill-rule="nonzero" fill="rgb(87.998962%, 100%, 87.998962%)" fill-opacity="1" stroke-width="0.3985" stroke-linecap="butt" stroke-linejoin="miter" stroke="rgb(0%, 0%, 0%)" stroke-opacity="1" stroke-miterlimit="10" d="M 79.369937 100.633094 L 147.405094 100.633094 L 147.405094 126.144813 L 79.369937 126.144813 Z M 79.369937 100.633094 " transform="matrix(1, 0, 0, -1, 172.466, 208.387)"/>
<g fill="rgb(0%, 0%, 0%)" fill-opacity="1">
<use xlink:href="#glyph-2-1" x="279.984" y="97.911"/>
</g>
<g fill="rgb(0%, 0%, 0%)" fill-opacity="1">
<use xlink:href="#glyph-3-1" x="286.987" y="99.547"/>
</g>
<path fill-rule="nonzero" fill="rgb(87.998962%, 100%, 87.998962%)" fill-opacity="1" stroke-width="0.3985" stroke-linecap="butt" stroke-linejoin="miter" stroke="rgb(0%, 0%, 0%)" stroke-opacity="1" stroke-miterlimit="10" d="M 79.369937 143.152625 L 147.405094 143.152625 L 147.405094 168.664344 L 79.369937 168.664344 Z M 79.369937 143.152625 " transform="matrix(1, 0, 0, -1, 172.466, 208.387)"/>
<g fill="rgb(0%, 0%, 0%)" fill-opacity="1">
<use xlink:href="#glyph-2-1" x="279.984" y="55.391"/>
</g>
<g fill="rgb(0%, 0%, 0%)" fill-opacity="1">
<use xlink:href="#glyph-3-0" x="286.987" y="57.027"/>
</g>
<path fill="none" stroke-width="0.3985" stroke-linecap="butt" stroke-linejoin="miter" stroke="rgb(0%, 0%, 0%)" stroke-opacity="1" stroke-miterlimit="10" d="M 113.385562 41.301063 L 113.385562 54.847938 " transform="matrix(1, 0, 0, -1, 172.466, 208.387)"/>
<path fill-rule="nonzero" fill="rgb(0%, 0%, 0%)" fill-opacity="1" stroke-width="0.3985" stroke-linecap="butt" stroke-linejoin="miter" stroke="rgb(0%, 0%, 0%)" stroke-opacity="1" stroke-miterlimit="10" d="M 4.214361 0.0016775 L 0.644049 1.345428 L 1.815924 0.0016775 L 0.644049 -1.345979 Z M 4.214361 0.0016775 " transform="matrix(0, -1, -1, 0, 285.85324, 155.25733)"/>
<path fill="none" stroke-width="0.3985" stroke-linecap="butt" stroke-linejoin="miter" stroke="rgb(0%, 0%, 0%)" stroke-opacity="1" stroke-miterlimit="10" d="M 113.385562 83.820594 L 113.385562 97.367469 " transform="matrix(1, 0, 0, -1, 172.466, 208.387)"/>
<path fill-rule="nonzero" fill="rgb(0%, 0%, 0%)" fill-opacity="1" stroke-width="0.3985" stroke-linecap="butt" stroke-linejoin="miter" stroke="rgb(0%, 0%, 0%)" stroke-opacity="1" stroke-miterlimit="10" d="M 4.213662 0.0016775 L 0.64335 1.345428 L 1.819131 0.0016775 L 0.64335 -1.345979 Z M 4.213662 0.0016775 " transform="matrix(0, -1, -1, 0, 285.85324, 112.7371)"/>
<path fill="none" stroke-width="0.3985" stroke-linecap="butt" stroke-linejoin="miter" stroke="rgb(0%, 0%, 0%)" stroke-opacity="1" stroke-miterlimit="10" d="M 113.385562 126.344031 L 113.385562 139.887 " transform="matrix(1, 0, 0, -1, 172.466, 208.387)"/>
<path fill-rule="nonzero" fill="rgb(0%, 0%, 0%)" fill-opacity="1" stroke-width="0.3985" stroke-linecap="butt" stroke-linejoin="miter" stroke="rgb(0%, 0%, 0%)" stroke-opacity="1" stroke-miterlimit="10" d="M 4.212994 0.0016775 L 0.642681 1.345428 L 1.818463 0.0016775 L 0.642681 -1.345979 Z M 4.212994 0.0016775 " transform="matrix(0, -1, -1, 0, 285.85324, 70.2169)"/>
<path fill="none" stroke-width="0.3985" stroke-linecap="butt" stroke-linejoin="miter" stroke="rgb(0%, 0%, 0%)" stroke-opacity="1" stroke-miterlimit="10" d="M -79.173031 28.347938 L 76.108219 28.347938 " transform="matrix(1, 0, 0, -1, 172.466, 208.387)"/>
<path fill-rule="nonzero" fill="rgb(0%, 0%, 0%)" fill-opacity="1" stroke-width="0.3985" stroke-linecap="butt" stroke-linejoin="miter" stroke="rgb(0%, 0%, 0%)" stroke-opacity="1" stroke-miterlimit="10" d="M 4.214522 0.0011375 L 0.64421 1.344887 L 1.816085 0.0011375 L 0.64421 -1.346519 Z M 4.214522 0.0011375 " transform="matrix(1, 0, 0, -1, 246.85579, 180.0402)"/>
<path fill="none" stroke-width="0.3985" stroke-linecap="butt" stroke-linejoin="miter" stroke="rgb(0%, 0%, 0%)" stroke-opacity="1" stroke-miterlimit="10" d="M -79.173031 70.867469 L 76.108219 70.867469 " transform="matrix(1, 0, 0, -1, 172.466, 208.387)"/>
<path fill-rule="nonzero" fill="rgb(0%, 0%, 0%)" fill-opacity="1" stroke-width="0.3985" stroke-linecap="butt" stroke-linejoin="miter" stroke="rgb(0%, 0%, 0%)" stroke-opacity="1" stroke-miterlimit="10" d="M 4.214522 0.00046875 L 0.64421 1.344219 L 1.816085 0.00046875 L 0.64421 -1.347188 Z M 4.214522 0.00046875 " transform="matrix(1, 0, 0, -1, 246.85579, 137.52)"/>
<path fill="none" stroke-width="0.3985" stroke-linecap="butt" stroke-linejoin="miter" stroke="rgb(0%, 0%, 0%)" stroke-opacity="1" stroke-miterlimit="10" d="M -79.173031 113.387 L 76.108219 113.387 " transform="matrix(1, 0, 0, -1, 172.466, 208.387)"/>
<path fill-rule="nonzero" fill="rgb(0%, 0%, 0%)" fill-opacity="1" stroke-width="0.3985" stroke-linecap="butt" stroke-linejoin="miter" stroke="rgb(0%, 0%, 0%)" stroke-opacity="1" stroke-miterlimit="10" d="M 4.214522 -0.00024 L 0.64421 1.347416 L 1.816085 -0.00024 L 0.64421 -1.34399 Z M 4.214522 -0.00024 " transform="matrix(1, 0, 0, -1, 246.85579, 94.99976)"/>
<path fill="none" stroke-width="0.3985" stroke-linecap="butt" stroke-linejoin="miter" stroke="rgb(0%, 0%, 0%)" stroke-opacity="1" stroke-miterlimit="10" d="M -79.173031 155.906531 L 76.108219 155.906531 " transform="matrix(1, 0, 0, -1, 172.466, 208.387)"/>
<path fill-rule="nonzero" fill="rgb(0%, 0%, 0%)" fill-opacity="1" stroke-width="0.3985" stroke-linecap="butt" stroke-linejoin="miter" stroke="rgb(0%, 0%, 0%)" stroke-opacity="1" stroke-miterlimit="10" d="M 4.214522 -0.00090875 L 0.64421 1.346747 L 1.816085 -0.00090875 L 0.64421 -1.344659 Z M 4.214522 -0.00090875 " transform="matrix(1, 0, 0, -1, 246.85579, 52.47956)"/>
<path fill-rule="nonzero" fill="rgb(100%, 92.498779%, 84.999084%)" fill-opacity="1" stroke-width="0.3985" stroke-linecap="butt" stroke-linejoin="miter" stroke="rgb(0%, 0%, 0%)" stroke-opacity="1" stroke-miterlimit="10" d="M 164.412906 143.152625 L 232.444156 143.152625 L 232.444156 168.664344 L 164.412906 168.664344 Z M 164.412906 143.152625 " transform="matrix(1, 0, 0, -1, 172.466, 208.387)"/>
<g fill="rgb(0%, 0%, 0%)" fill-opacity="1">
<use xlink:href="#glyph-4-0" x="359.982" y="56.627"/>
<use xlink:href="#glyph-4-1" x="370.89109" y="56.627"/>
</g>
<path fill-rule="nonzero" fill="rgb(100%, 92.498779%, 84.999084%)" fill-opacity="1" stroke-width="0.3985" stroke-linecap="butt" stroke-linejoin="miter" stroke="rgb(0%, 0%, 0%)" stroke-opacity="1" stroke-miterlimit="10" d="M 164.412906 100.633094 L 232.444156 100.633094 L 232.444156 126.144813 L 164.412906 126.144813 Z M 164.412906 100.633094 " transform="matrix(1, 0, 0, -1, 172.466, 208.387)"/>
<g fill="rgb(0%, 0%, 0%)" fill-opacity="1">
<use xlink:href="#glyph-4-0" x="359.982" y="99.147"/>
<use xlink:href="#glyph-4-1" x="370.89109" y="99.147"/>
</g>
<path fill-rule="nonzero" fill="rgb(100%, 92.498779%, 84.999084%)" fill-opacity="1" stroke-width="0.3985" stroke-linecap="butt" stroke-linejoin="miter" stroke="rgb(0%, 0%, 0%)" stroke-opacity="1" stroke-miterlimit="10" d="M 164.412906 58.109656 L 232.444156 58.109656 L 232.444156 83.621375 L 164.412906 83.621375 Z M 164.412906 58.109656 " transform="matrix(1, 0, 0, -1, 172.466, 208.387)"/>
<g fill="rgb(0%, 0%, 0%)" fill-opacity="1">
<use xlink:href="#glyph-4-0" x="359.982" y="141.667"/>
<use xlink:href="#glyph-4-1" x="370.89109" y="141.667"/>
</g>
<g clip-path="url(#clip-4)">
<path fill-rule="nonzero" fill="rgb(100%, 92.498779%, 84.999084%)" fill-opacity="1" d="M 336.878906 192.796875 L 404.910156 192.796875 L 404.910156 167.285156 L 336.878906 167.285156 Z M 336.878906 192.796875 "/>
</g>
<g clip-path="url(#clip-5)">
<path fill="none" stroke-width="0.3985" stroke-linecap="butt" stroke-linejoin="miter" stroke="rgb(0%, 0%, 0%)" stroke-opacity="1" stroke-miterlimit="10" d="M 164.412906 15.590125 L 232.444156 15.590125 L 232.444156 41.101844 L 164.412906 41.101844 Z M 164.412906 15.590125 " transform="matrix(1, 0, 0, -1, 172.466, 208.387)"/>
</g>
<g fill="rgb(0%, 0%, 0%)" fill-opacity="1">
<use xlink:href="#glyph-4-0" x="359.982" y="184.186"/>
<use xlink:href="#glyph-4-1" x="370.89109" y="184.186"/>
</g>
<path fill="none" stroke-width="0.3985" stroke-linecap="butt" stroke-linejoin="miter" stroke="rgb(0%, 0%, 0%)" stroke-opacity="1" stroke-miterlimit="10" d="M 147.604312 155.906531 L 161.147281 155.906531 " transform="matrix(1, 0, 0, -1, 172.466, 208.387)"/>
<path fill-rule="nonzero" fill="rgb(0%, 0%, 0%)" fill-opacity="1" stroke-width="0.3985" stroke-linecap="butt" stroke-linejoin="miter" stroke="rgb(0%, 0%, 0%)" stroke-opacity="1" stroke-miterlimit="10" d="M 4.213175 -0.00090875 L 0.642862 1.346747 L 1.818644 -0.00090875 L 0.642862 -1.344659 Z M 4.213175 -0.00090875 " transform="matrix(1, 0, 0, -1, 331.8962, 52.47956)"/>
<path fill="none" stroke-width="0.3985" stroke-linecap="butt" stroke-linejoin="miter" stroke="rgb(0%, 0%, 0%)" stroke-opacity="1" stroke-miterlimit="10" d="M 147.604312 113.387 L 161.147281 113.387 " transform="matrix(1, 0, 0, -1, 172.466, 208.387)"/>
<path fill-rule="nonzero" fill="rgb(0%, 0%, 0%)" fill-opacity="1" stroke-width="0.3985" stroke-linecap="butt" stroke-linejoin="miter" stroke="rgb(0%, 0%, 0%)" stroke-opacity="1" stroke-miterlimit="10" d="M 4.213175 -0.00024 L 0.642862 1.347416 L 1.818644 -0.00024 L 0.642862 -1.34399 Z M 4.213175 -0.00024 " transform="matrix(1, 0, 0, -1, 331.8962, 94.99976)"/>
<path fill="none" stroke-width="0.3985" stroke-linecap="butt" stroke-linejoin="miter" stroke="rgb(0%, 0%, 0%)" stroke-opacity="1" stroke-miterlimit="10" d="M 147.604312 70.867469 L 161.147281 70.867469 " transform="matrix(1, 0, 0, -1, 172.466, 208.387)"/>
<path fill-rule="nonzero" fill="rgb(0%, 0%, 0%)" fill-opacity="1" stroke-width="0.3985" stroke-linecap="butt" stroke-linejoin="miter" stroke="rgb(0%, 0%, 0%)" stroke-opacity="1" stroke-miterlimit="10" d="M 4.213175 0.00046875 L 0.642862 1.344219 L 1.818644 0.00046875 L 0.642862 -1.347188 Z M 4.213175 0.00046875 " transform="matrix(1, 0, 0, -1, 331.8962, 137.52)"/>
<path fill="none" stroke-width="0.3985" stroke-linecap="butt" stroke-linejoin="miter" stroke="rgb(0%, 0%, 0%)" stroke-opacity="1" stroke-miterlimit="10" d="M 147.604312 28.347938 L 161.147281 28.347938 " transform="matrix(1, 0, 0, -1, 172.466, 208.387)"/>
<path fill-rule="nonzero" fill="rgb(0%, 0%, 0%)" fill-opacity="1" stroke-width="0.3985" stroke-linecap="butt" stroke-linejoin="miter" stroke="rgb(0%, 0%, 0%)" stroke-opacity="1" stroke-miterlimit="10" d="M 4.213175 0.0011375 L 0.642862 1.344887 L 1.818644 0.0011375 L 0.642862 -1.346519 Z M 4.213175 0.0011375 " transform="matrix(1, 0, 0, -1, 331.8962, 180.0402)"/>
</svg>
