<?xml version="1.0" encoding="UTF-8"?>
<svg xmlns="http://www.w3.org/2000/svg" xmlns:xlink="http://www.w3.org/1999/xlink" width="108.12" height="111.15" viewBox="0 0 108.12 111.15">
<defs>
<clipPath id="clip-0">
<path clip-rule="nonzero" d="M 39 88 L 69 88 L 69 111.148438 L 39 111.148438 Z M 39 88 "/>
</clipPath>
<clipPath id="clip-1">
<path clip-rule="nonzero" d="M 85 65 L 108.121094 65 L 108.121094 94 L 85 94 Z M 85 65 "/>
</clipPath>
<clipPath id="clip-2">
<path clip-rule="nonzero" d="M 85 42 L 108.121094 42 L 108.121094 72 L 85 72 Z M 85 42 "/>
</clipPath>
<clipPath id="clip-3">
<path clip-rule="nonzero" d="M 85 20 L 108.121094 20 L 108.121094 49 L 85 49 Z M 85 20 "/>
</clipPath>
</defs>
<path fill-rule="nonzero" fill="rgb(79.998779%, 79.998779%, 100%)" fill-opacity="1" stroke-width="0.3985" stroke-linecap="butt" stroke-linejoin="miter" stroke="rgb(50%, 50%, 100%)" stroke-opacity="1" stroke-miterlimit="10" d="M 8.504031 22.676625 C 8.504031 27.375844 4.695438 31.180531 0.000125 31.180531 C -4.695187 31.180531 -8.503781 27.375844 -8.503781 22.676625 C -8.503781 17.981313 -4.695187 14.172719 0.000125 14.172719 C 4.695438 14.172719 8.504031 17.981313 8.504031 22.676625 Z M 8.504031 22.676625 " transform="matrix(1, 0, 0, -1, 8.703, 113.786)"/>
<path fill-rule="nonzero" fill="rgb(79.998779%, 79.998779%, 100%)" fill-opacity="1" stroke-width="0.3985" stroke-linecap="butt" stroke-linejoin="miter" stroke="rgb(50%, 50%, 100%)" stroke-opacity="1" stroke-miterlimit="10" d="M 8.504031 45.356313 C 8.504031 50.051625 4.695438 53.860219 0.000125 53.860219 C -4.695187 53.860219 -8.503781 50.051625 -8.503781 45.356313 C -8.503781 40.657094 -4.695187 36.852406 0.000125 36.852406 C 4.695438 36.852406 8.504031 40.657094 8.504031 45.356313 Z M 8.504031 45.356313 " transform="matrix(1, 0, 0, -1, 8.703, 113.786)"/>
<path fill-rule="nonzero" fill="rgb(79.998779%, 79.998779%, 100%)" fill-opacity="1" stroke-width="0.3985" stroke-linecap="butt" stroke-linejoin="miter" stroke="rgb(50%, 50%, 100%)" stroke-opacity="1" stroke-miterlimit="10" d="M 8.504031 68.032094 C 8.504031 72.727406 4.695438 76.536 0.000125 76.536 C -4.695187 76.536 -8.503781 72.727406 -8.503781 68.032094 C -8.503781 63.336781 -4.695187 59.528188 0.000125 59.528188 C 4.695438 59.528188 8.504031 63.336781 8.504031 68.032094 Z M 8.504031 68.032094 " transform="matrix(1, 0, 0, -1, 8.703, 113.786)"/>
<path fill-rule="nonzero" fill="rgb(79.998779%, 79.998779%, 100%)" fill-opacity="1" stroke-width="0.3985" stroke-linecap="butt" stroke-linejoin="miter" stroke="rgb(50%, 50%, 100%)" stroke-opacity="1" stroke-miterlimit="10" d="M 8.504031 90.711781 C 8.504031 95.407094 4.695438 99.215688 0.000125 99.215688 C -4.695187 99.215688 -8.503781 95.407094 -8.503781 90.711781 C -8.503781 86.012563 -4.695187 82.207875 0.000125 82.207875 C 4.695438 82.207875 8.504031 86.012563 8.504031 90.711781 Z M 8.504031 90.711781 " transform="matrix(1, 0, 0, -1, 8.703, 113.786)"/>
<g clip-path="url(#clip-0)">
<path fill="none" stroke-width="0.3985" stroke-linecap="butt" stroke-linejoin="miter" stroke="rgb(100%, 50%, 50%)" stroke-opacity="1" stroke-miterlimit="10" d="M 53.8595 11.340688 C 53.8595 16.036 50.050906 19.844594 45.355594 19.844594 C 40.656375 19.844594 36.851688 16.036 36.851688 11.340688 C 36.851688 6.641469 40.656375 2.832875 45.355594 2.832875 C 50.050906 2.832875 53.8595 6.641469 53.8595 11.340688 Z M 53.8595 11.340688 " transform="matrix(1, 0, 0, -1, 8.703, 113.786)"/>
</g>
<path fill="none" stroke-width="0.3985" stroke-linecap="butt" stroke-linejoin="miter" stroke="rgb(100%, 50%, 50%)" stroke-opacity="1" stroke-miterlimit="10" d="M 53.8595 34.016469 C 53.8595 38.711781 50.050906 42.520375 45.355594 42.520375 C 40.656375 42.520375 36.851688 38.711781 36.851688 34.016469 C 36.851688 29.321156 40.656375 25.512563 45.355594 25.512563 C 50.050906 25.512563 53.8595 29.321156 53.8595 34.016469 Z M 53.8595 34.016469 " transform="matrix(1, 0, 0, -1, 8.703, 113.786)"/>
<path fill="none" stroke-width="0.3985" stroke-linecap="butt" stroke-linejoin="miter" stroke="rgb(100%, 50%, 50%)" stroke-opacity="1" stroke-miterlimit="10" d="M 53.8595 56.69225 C 53.8595 61.391469 50.050906 65.196156 45.355594 65.196156 C 40.656375 65.196156 36.851688 61.391469 36.851688 56.69225 C 36.851688 51.996938 40.656375 48.188344 45.355594 48.188344 C 50.050906 48.188344 53.8595 51.996938 53.8595 56.69225 Z M 53.8595 56.69225 " transform="matrix(1, 0, 0, -1, 8.703, 113.786)"/>
<path fill="none" stroke-width="0.3985" stroke-linecap="butt" stroke-linejoin="miter" stroke="rgb(100%, 50%, 50%)" stroke-opacity="1" stroke-miterlimit="10" d="M 53.8595 79.371938 C 53.8595 84.06725 50.050906 87.875844 45.355594 87.875844 C 40.656375 87.875844 36.851688 84.06725 36.851688 79.371938 C 36.851688 74.672719 40.656375 70.868031 45.355594 70.868031 C 50.050906 70.868031 53.8595 74.672719 53.8595 79.371938 Z M 53.8595 79.371938 " transform="matrix(1, 0, 0, -1, 8.703, 113.786)"/>
<path fill="none" stroke-width="0.3985" stroke-linecap="butt" stroke-linejoin="miter" stroke="rgb(100%, 50%, 50%)" stroke-opacity="1" stroke-miterlimit="10" d="M 53.8595 102.047719 C 53.8595 106.746938 50.050906 110.551625 45.355594 110.551625 C 40.656375 110.551625 36.851688 106.746938 36.851688 102.047719 C 36.851688 97.352406 40.656375 93.543813 45.355594 93.543813 C 50.050906 93.543813 53.8595 97.352406 53.8595 102.047719 Z M 53.8595 102.047719 " transform="matrix(1, 0, 0, -1, 8.703, 113.786)"/>
<path fill="none" stroke-width="0.79701" stroke-linecap="butt" stroke-linejoin="miter" stroke="rgb(100%, 29.998779%, 29.998779%)" stroke-opacity="1" stroke-miterlimit="10" d="M 34.01575 45.356313 L 56.695438 68.032094 " transform="matrix(1, 0, 0, -1, 8.703, 113.786)"/>
<path fill="none" stroke-width="0.79701" stroke-linecap="butt" stroke-linejoin="miter" stroke="rgb(100%, 29.998779%, 29.998779%)" stroke-opacity="1" stroke-miterlimit="10" d="M 34.01575 90.711781 L 56.695438 113.387563 " transform="matrix(1, 0, 0, -1, 8.703, 113.786)"/>
<path fill="none" stroke-width="0.79701" stroke-linecap="butt" stroke-linejoin="miter" stroke="rgb(100%, 29.998779%, 29.998779%)" stroke-opacity="1" stroke-miterlimit="10" d="M 34.01575 68.032094 L 56.695438 45.356313 " transform="matrix(1, 0, 0, -1, 8.703, 113.786)"/>
<path fill="none" stroke-width="0.79701" stroke-linecap="butt" stroke-linejoin="miter" stroke="rgb(100%, 29.998779%, 29.998779%)" stroke-opacity="1" stroke-miterlimit="10" d="M 34.01575 113.387563 L 56.695438 90.711781 " transform="matrix(1, 0, 0, -1, 8.703, 113.786)"/>
<path fill-rule="nonzero" fill="rgb(79.998779%, 100%, 79.998779%)" fill-opacity="1" d="M 107.917969 79.769531 C 107.917969 75.074219 104.109375 71.265625 99.414062 71.265625 C 94.714844 71.265625 90.910156 75.074219 90.910156 79.769531 C 90.910156 84.464844 94.714844 88.273438 99.414062 88.273438 C 104.109375 88.273438 107.917969 84.464844 107.917969 79.769531 Z M 107.917969 79.769531 "/>
<g clip-path="url(#clip-1)">
<path fill="none" stroke-width="0.3985" stroke-linecap="butt" stroke-linejoin="miter" stroke="rgb(0%, 39.99939%, 0%)" stroke-opacity="1" stroke-miterlimit="10" d="M 99.214969 34.016469 C 99.214969 38.711781 95.406375 42.520375 90.711062 42.520375 C 86.011844 42.520375 82.207156 38.711781 82.207156 34.016469 C 82.207156 29.321156 86.011844 25.512563 90.711062 25.512563 C 95.406375 25.512563 99.214969 29.321156 99.214969 34.016469 Z M 99.214969 34.016469 " transform="matrix(1, 0, 0, -1, 8.703, 113.786)"/>
</g>
<path fill-rule="nonzero" fill="rgb(79.998779%, 100%, 79.998779%)" fill-opacity="1" d="M 107.917969 57.09375 C 107.917969 52.394531 104.109375 48.589844 99.414062 48.589844 C 94.714844 48.589844 90.910156 52.394531 90.910156 57.09375 C 90.910156 61.789062 94.714844 65.597656 99.414062 65.597656 C 104.109375 65.597656 107.917969 61.789062 107.917969 57.09375 Z M 107.917969 57.09375 "/>
<g clip-path="url(#clip-2)">
<path fill="none" stroke-width="0.3985" stroke-linecap="butt" stroke-linejoin="miter" stroke="rgb(0%, 39.99939%, 0%)" stroke-opacity="1" stroke-miterlimit="10" d="M 99.214969 56.69225 C 99.214969 61.391469 95.406375 65.196156 90.711062 65.196156 C 86.011844 65.196156 82.207156 61.391469 82.207156 56.69225 C 82.207156 51.996938 86.011844 48.188344 90.711062 48.188344 C 95.406375 48.188344 99.214969 51.996938 99.214969 56.69225 Z M 99.214969 56.69225 " transform="matrix(1, 0, 0, -1, 8.703, 113.786)"/>
</g>
<path fill-rule="nonzero" fill="rgb(79.998779%, 100%, 79.998779%)" fill-opacity="1" d="M 107.917969 34.414062 C 107.917969 29.71875 104.109375 25.910156 99.414062 25.910156 C 94.714844 25.910156 90.910156 29.71875 90.910156 34.414062 C 90.910156 39.113281 94.714844 42.917969 99.414062 42.917969 C 104.109375 42.917969 107.917969 39.113281 107.917969 34.414062 Z M 107.917969 34.414062 "/>
<g clip-path="url(#clip-3)">
<path fill="none" stroke-width="0.3985" stroke-linecap="butt" stroke-linejoin="miter" stroke="rgb(0%, 39.99939%, 0%)" stroke-opacity="1" stroke-miterlimit="10" d="M 99.214969 79.371938 C 99.214969 84.06725 95.406375 87.875844 90.711062 87.875844 C 86.011844 87.875844 82.207156 84.06725 82.207156 79.371938 C 82.207156 74.672719 86.011844 70.868031 90.711062 70.868031 C 95.406375 70.868031 99.214969 74.672719 99.214969 79.371938 Z M 99.214969 79.371938 " transform="matrix(1, 0, 0, -1, 8.703, 113.786)"/>
</g>
<path fill="none" stroke-width="0.3985" stroke-linecap="butt" stroke-linejoin="miter" stroke="rgb(75%, 75%, 75%)" stroke-opacity="1" stroke-miterlimit="10" d="M 8.445438 20.56725 L 36.468875 13.563344 " transform="matrix(1, 0, 0, -1, 8.703, 113.786)"/>
<path fill="none" stroke-width="0.31879" stroke-linecap="round" stroke-linejoin="round" stroke="rgb(75%, 75%, 75%)" stroke-opacity="1" stroke-miterlimit="10" d="M -1.196272 1.595351 C -1.094902 0.996574 -0.000630564 0.098401 0.297809 -0.000134468 C 0.000314954 -0.0986642 -1.095869 -0.996816 -1.196302 -1.593696 " transform="matrix(0.97012, 0.24252, 0.24252, -0.97012, 45.17206, 100.22452)"/>
<path fill="none" stroke-width="0.3985" stroke-linecap="butt" stroke-linejoin="miter" stroke="rgb(75%, 75%, 75%)" stroke-opacity="1" stroke-miterlimit="10" d="M 6.961063 27.899281 L 38.027469 51.200063 " transform="matrix(1, 0, 0, -1, 8.703, 113.786)"/>
<path fill="none" stroke-width="0.31879" stroke-linecap="round" stroke-linejoin="round" stroke="rgb(75%, 75%, 75%)" stroke-opacity="1" stroke-miterlimit="10" d="M -1.196305 1.595769 C -1.093964 0.996531 -0.000190525 0.0980559 0.298255 0.00117505 C -0.000192478 -0.0972624 -1.093984 -0.995716 -1.195556 -1.593389 " transform="matrix(0.79997, -0.59999, -0.59999, -0.79997, 46.73086, 62.58614)"/>
<path fill="none" stroke-width="0.3985" stroke-linecap="butt" stroke-linejoin="miter" stroke="rgb(75%, 75%, 75%)" stroke-opacity="1" stroke-miterlimit="10" d="M 4.316531 30.235219 L 40.812625 94.0985 " transform="matrix(1, 0, 0, -1, 8.703, 113.786)"/>
<path fill="none" stroke-width="0.31879" stroke-linecap="round" stroke-linejoin="round" stroke="rgb(75%, 75%, 75%)" stroke-opacity="1" stroke-miterlimit="10" d="M -1.195078 1.592879 C -1.097204 0.996415 0.000750661 0.0985659 0.300193 -0.00028052 C 0.00123446 -0.0991247 -1.096727 -0.996481 -1.196544 -1.593429 " transform="matrix(0.49611, -0.8682, -0.8682, -0.49611, 49.51489, 19.68627)"/>
<path fill="none" stroke-width="0.3985" stroke-linecap="butt" stroke-linejoin="miter" stroke="rgb(75%, 75%, 75%)" stroke-opacity="1" stroke-miterlimit="10" d="M 6.964969 40.133656 L 38.027469 16.836781 " transform="matrix(1, 0, 0, -1, 8.703, 113.786)"/>
<path fill="none" stroke-width="0.31879" stroke-linecap="round" stroke-linejoin="round" stroke="rgb(75%, 75%, 75%)" stroke-opacity="1" stroke-miterlimit="10" d="M -1.195952 1.593484 C -1.094381 0.995811 -0.000588741 0.0973574 0.297859 -0.00108005 C -0.000586788 -0.0979609 -1.094361 -0.996436 -1.196701 -1.595674 " transform="matrix(0.79997, 0.59999, 0.59999, -0.79997, 46.73112, 96.94933)"/>
<path fill="none" stroke-width="0.3985" stroke-linecap="butt" stroke-linejoin="miter" stroke="rgb(75%, 75%, 75%)" stroke-opacity="1" stroke-miterlimit="10" d="M 8.445438 47.469594 L 36.468875 54.4735 " transform="matrix(1, 0, 0, -1, 8.703, 113.786)"/>
<path fill="none" stroke-width="0.31879" stroke-linecap="round" stroke-linejoin="round" stroke="rgb(75%, 75%, 75%)" stroke-opacity="1" stroke-miterlimit="10" d="M -1.196066 1.593568 C -1.095633 0.996689 0.00055113 0.0985369 0.298045 0.00000713602 C -0.000394387 -0.0985284 -1.094666 -0.996702 -1.196035 -1.595478 " transform="matrix(0.97012, -0.24252, -0.24252, -0.97012, 45.1718, 59.31057)"/>
<path fill="none" stroke-width="0.3985" stroke-linecap="butt" stroke-linejoin="miter" stroke="rgb(75%, 75%, 75%)" stroke-opacity="1" stroke-miterlimit="10" d="M 5.437625 52.153188 L 39.632938 94.899281 " transform="matrix(1, 0, 0, -1, 8.703, 113.786)"/>
<path fill="none" stroke-width="0.31879" stroke-linecap="round" stroke-linejoin="round" stroke="rgb(75%, 75%, 75%)" stroke-opacity="1" stroke-miterlimit="10" d="M -1.197249 1.595024 C -1.094142 0.997135 -0.00146746 0.100306 0.298697 0.000251997 C -0.00146683 -0.0998038 -1.095966 -0.99542 -1.196019 -1.595749 " transform="matrix(0.62466, -0.78082, -0.78082, -0.62466, 48.33705, 18.88573)"/>
<path fill="none" stroke-width="0.3985" stroke-linecap="butt" stroke-linejoin="miter" stroke="rgb(75%, 75%, 75%)" stroke-opacity="1" stroke-miterlimit="10" d="M 5.437625 61.239125 L 39.632938 18.493031 " transform="matrix(1, 0, 0, -1, 8.703, 113.786)"/>
<path fill="none" stroke-width="0.31879" stroke-linecap="round" stroke-linejoin="round" stroke="rgb(75%, 75%, 75%)" stroke-opacity="1" stroke-miterlimit="10" d="M -1.19509 1.594481 C -1.098088 0.996592 -0.000537938 0.0985356 0.299626 -0.00152021 C -0.000538563 -0.101574 -1.096264 -0.995963 -1.19388 -1.593241 " transform="matrix(0.62466, 0.78082, 0.78082, -0.62466, 48.33746, 95.29244)"/>
<path fill="none" stroke-width="0.3985" stroke-linecap="butt" stroke-linejoin="miter" stroke="rgb(75%, 75%, 75%)" stroke-opacity="1" stroke-miterlimit="10" d="M 8.445438 65.926625 L 36.468875 58.918813 " transform="matrix(1, 0, 0, -1, 8.703, 113.786)"/>
<path fill="none" stroke-width="0.31879" stroke-linecap="round" stroke-linejoin="round" stroke="rgb(75%, 75%, 75%)" stroke-opacity="1" stroke-miterlimit="10" d="M -1.19583 1.593006 C -1.095408 0.99802 -0.00113625 0.0998466 0.297303 0.00131109 C 0.00075666 -0.101008 -1.096375 -0.995371 -1.195861 -1.59604 " transform="matrix(0.97012, 0.24252, 0.24252, -0.97012, 45.1722, 54.86667)"/>
<path fill="none" stroke-width="0.3985" stroke-linecap="butt" stroke-linejoin="miter" stroke="rgb(75%, 75%, 75%)" stroke-opacity="1" stroke-miterlimit="10" d="M 6.961063 73.258656 L 38.027469 96.555531 " transform="matrix(1, 0, 0, -1, 8.703, 113.786)"/>
<path fill="none" stroke-width="0.31879" stroke-linecap="round" stroke-linejoin="round" stroke="rgb(75%, 75%, 75%)" stroke-opacity="1" stroke-miterlimit="10" d="M -1.197462 1.59401 C -1.095121 0.994772 0.000996524 0.099422 0.297098 -0.000583989 C -0.00134928 -0.0990215 -1.095141 -0.997475 -1.196713 -1.595148 " transform="matrix(0.79997, -0.59999, -0.59999, -0.79997, 46.73073, 17.22857)"/>
<path fill="none" stroke-width="0.3985" stroke-linecap="butt" stroke-linejoin="miter" stroke="rgb(75%, 75%, 75%)" stroke-opacity="1" stroke-miterlimit="10" d="M 4.316531 83.157094 L 40.812625 19.293813 " transform="matrix(1, 0, 0, -1, 8.703, 113.786)"/>
<path fill="none" stroke-width="0.31879" stroke-linecap="round" stroke-linejoin="round" stroke="rgb(75%, 75%, 75%)" stroke-opacity="1" stroke-miterlimit="10" d="M -1.19536 1.592441 C -1.095543 0.995494 -0.00097363 0.100075 0.297985 0.00123129 C 0.00193433 -0.0995533 -1.09602 -0.997402 -1.193894 -1.593866 " transform="matrix(0.49611, 0.8682, 0.8682, -0.49611, 49.51516, 94.4919)"/>
<path fill="none" stroke-width="0.3985" stroke-linecap="butt" stroke-linejoin="miter" stroke="rgb(75%, 75%, 75%)" stroke-opacity="1" stroke-miterlimit="10" d="M 6.964969 85.493031 L 38.027469 62.19225 " transform="matrix(1, 0, 0, -1, 8.703, 113.786)"/>
<path fill="none" stroke-width="0.31879" stroke-linecap="round" stroke-linejoin="round" stroke="rgb(75%, 75%, 75%)" stroke-opacity="1" stroke-miterlimit="10" d="M -1.197165 1.594868 C -1.095594 0.997195 0.00132328 0.101085 0.296646 0.000303976 C 0.000544013 -0.099702 -1.095574 -0.995052 -1.194789 -1.591946 " transform="matrix(0.79997, 0.59999, 0.59999, -0.79997, 46.73126, 51.59179)"/>
<path fill="none" stroke-width="0.3985" stroke-linecap="butt" stroke-linejoin="miter" stroke="rgb(75%, 75%, 75%)" stroke-opacity="1" stroke-miterlimit="10" d="M 8.445438 92.825063 L 36.468875 99.832875 " transform="matrix(1, 0, 0, -1, 8.703, 113.786)"/>
<path fill="none" stroke-width="0.31879" stroke-linecap="round" stroke-linejoin="round" stroke="rgb(75%, 75%, 75%)" stroke-opacity="1" stroke-miterlimit="10" d="M -1.195486 1.595197 C -1.095993 0.99454 0.00113295 0.100209 0.298623 0.001685 C -0.000757005 -0.100643 -1.09405 -0.995027 -1.195409 -1.593795 " transform="matrix(0.97014, -0.24251, -0.24251, -0.97014, 45.17164, 13.95296)"/>
<path fill="none" stroke-width="0.3985" stroke-linecap="butt" stroke-linejoin="miter" stroke="rgb(75%, 75%, 75%)" stroke-opacity="1" stroke-miterlimit="10" d="M 53.14075 15.231313 L 82.519656 29.918813 " transform="matrix(1, 0, 0, -1, 8.703, 113.786)"/>
<path fill="none" stroke-width="0.31879" stroke-linecap="round" stroke-linejoin="round" stroke="rgb(75%, 75%, 75%)" stroke-opacity="1" stroke-miterlimit="10" d="M -1.194873 1.595471 C -1.097032 0.996228 0.000133855 0.098245 0.30063 0.000411922 C 0.00188269 -0.0991736 -1.097015 -0.995429 -1.194845 -1.592927 " transform="matrix(0.89436, -0.44717, -0.44717, -0.89436, 91.2235, 83.86527)"/>
<path fill="none" stroke-width="0.3985" stroke-linecap="butt" stroke-linejoin="miter" stroke="rgb(75%, 75%, 75%)" stroke-opacity="1" stroke-miterlimit="10" d="M 51.511844 17.493031 L 84.238406 50.219594 " transform="matrix(1, 0, 0, -1, 8.703, 113.786)"/>
<path fill="none" stroke-width="0.31879" stroke-linecap="round" stroke-linejoin="round" stroke="rgb(75%, 75%, 75%)" stroke-opacity="1" stroke-miterlimit="10" d="M -1.193725 1.593462 C -1.094287 0.996835 -0.000471114 0.101894 0.300605 -0.000305827 C 0.00229105 -0.0997437 -1.09705 -0.994684 -1.193725 -1.594074 " transform="matrix(0.7071, -0.7071, -0.7071, -0.7071, 92.93957, 63.56781)"/>
<path fill="none" stroke-width="0.3985" stroke-linecap="butt" stroke-linejoin="miter" stroke="rgb(75%, 75%, 75%)" stroke-opacity="1" stroke-miterlimit="10" d="M 50.183719 18.578969 L 85.632937 71.750844 " transform="matrix(1, 0, 0, -1, 8.703, 113.786)"/>
<path fill="none" stroke-width="0.31879" stroke-linecap="round" stroke-linejoin="round" stroke="rgb(75%, 75%, 75%)" stroke-opacity="1" stroke-miterlimit="10" d="M -1.195386 1.592954 C -1.097881 0.995975 0.00180784 0.0999573 0.297587 0.00136145 C -0.00144415 -0.0993964 -1.093563 -0.996479 -1.196496 -1.595623 " transform="matrix(0.55467, -0.83202, -0.83202, -0.55467, 94.33607, 42.03351)"/>
<path fill="none" stroke-width="0.3985" stroke-linecap="butt" stroke-linejoin="miter" stroke="rgb(75%, 75%, 75%)" stroke-opacity="1" stroke-miterlimit="10" d="M 53.14075 52.805531 L 82.519656 38.114125 " transform="matrix(1, 0, 0, -1, 8.703, 113.786)"/>
<path fill="none" stroke-width="0.31879" stroke-linecap="round" stroke-linejoin="round" stroke="rgb(75%, 75%, 75%)" stroke-opacity="1" stroke-miterlimit="10" d="M -1.195222 1.593069 C -1.097384 0.995592 0.00149455 0.0993841 0.300235 -0.00019298 C -0.000250693 -0.0980284 -1.097366 -0.996003 -1.195194 -1.595229 " transform="matrix(0.89438, 0.4472, 0.4472, -0.89438, 91.22375, 75.67025)"/>
<path fill="none" stroke-width="0.3985" stroke-linecap="butt" stroke-linejoin="miter" stroke="rgb(75%, 75%, 75%)" stroke-opacity="1" stroke-miterlimit="10" d="M 54.062625 56.696156 L 81.554812 56.696156 " transform="matrix(1, 0, 0, -1, 8.703, 113.786)"/>
<path fill="none" stroke-width="0.31879" stroke-linecap="round" stroke-linejoin="round" stroke="rgb(75%, 75%, 75%)" stroke-opacity="1" stroke-miterlimit="10" d="M -1.197306 1.592736 C -1.095744 0.99508 0.0019125 0.100549 0.298788 -0.00101375 C 0.0019125 -0.09867 -1.095744 -0.997108 -1.197306 -1.594764 " transform="matrix(1, 0, 0, -1, 90.2559, 57.08883)"/>
<path fill="none" stroke-width="0.3985" stroke-linecap="butt" stroke-linejoin="miter" stroke="rgb(75%, 75%, 75%)" stroke-opacity="1" stroke-miterlimit="10" d="M 53.14075 60.590688 L 82.519656 75.278188 " transform="matrix(1, 0, 0, -1, 8.703, 113.786)"/>
<path fill="none" stroke-width="0.31879" stroke-linecap="round" stroke-linejoin="round" stroke="rgb(75%, 75%, 75%)" stroke-opacity="1" stroke-miterlimit="10" d="M -1.195938 1.593341 C -1.09635 0.997592 0.000815898 0.0996091 0.299565 -0.00171811 C 0.000817695 -0.101304 -1.096332 -0.994065 -1.19591 -1.595057 " transform="matrix(0.89436, -0.44717, -0.44717, -0.89436, 91.2235, 38.50742)"/>
<path fill="none" stroke-width="0.3985" stroke-linecap="butt" stroke-linejoin="miter" stroke="rgb(75%, 75%, 75%)" stroke-opacity="1" stroke-miterlimit="10" d="M 50.187625 94.813344 L 85.632937 41.641469 " transform="matrix(1, 0, 0, -1, 8.703, 113.786)"/>
<path fill="none" stroke-width="0.31879" stroke-linecap="round" stroke-linejoin="round" stroke="rgb(75%, 75%, 75%)" stroke-opacity="1" stroke-miterlimit="10" d="M -1.195452 1.594471 C -1.09577 0.997494 -0.000400565 0.098244 0.300798 0.000736471 C -0.000398924 -0.0989429 -1.096837 -0.997127 -1.194342 -1.594106 " transform="matrix(0.55467, 0.83202, 0.83202, -0.55467, 94.33645, 72.14467)"/>
<path fill="none" stroke-width="0.3985" stroke-linecap="butt" stroke-linejoin="miter" stroke="rgb(75%, 75%, 75%)" stroke-opacity="1" stroke-miterlimit="10" d="M 51.511844 95.899281 L 84.238406 63.176625 " transform="matrix(1, 0, 0, -1, 8.703, 113.786)"/>
<path fill="none" stroke-width="0.31879" stroke-linecap="round" stroke-linejoin="round" stroke="rgb(75%, 75%, 75%)" stroke-opacity="1" stroke-miterlimit="10" d="M -1.195625 1.595391 C -1.09342 0.995998 0.000410298 0.101059 0.298727 0.0016223 C 0.000411704 -0.0978184 -1.096168 -0.995535 -1.195602 -1.592167 " transform="matrix(0.70709, 0.7071, 0.7071, -0.70709, 92.93997, 50.61023)"/>
<path fill="none" stroke-width="0.3985" stroke-linecap="butt" stroke-linejoin="miter" stroke="rgb(75%, 75%, 75%)" stroke-opacity="1" stroke-miterlimit="10" d="M 53.14075 98.164906 L 82.519656 83.4735 " transform="matrix(1, 0, 0, -1, 8.703, 113.786)"/>
<path fill="none" stroke-width="0.31879" stroke-linecap="round" stroke-linejoin="round" stroke="rgb(75%, 75%, 75%)" stroke-opacity="1" stroke-miterlimit="10" d="M -1.19607 1.594451 C -1.098232 0.996974 0.000647031 0.100766 0.299387 0.00118897 C 0.000648828 -0.10014 -1.096467 -0.998115 -1.196041 -1.593847 " transform="matrix(0.89438, 0.4472, 0.4472, -0.89438, 91.22389, 30.31249)"/>
</svg>
