<?xml version="1.0" encoding="UTF-8"?>
<svg xmlns="http://www.w3.org/2000/svg" xmlns:xlink="http://www.w3.org/1999/xlink" width="108.12" height="111.15" viewBox="0 0 108.12 111.15">
<defs>
<clipPath id="clip-0">
<path clip-rule="nonzero" d="M 39 88 L 69 88 L 69 111.148438 L 39 111.148438 Z M 39 88 "/>
</clipPath>
<clipPath id="clip-1">
<path clip-rule="nonzero" d="M 85 65 L 108.121094 65 L 108.121094 94 L 85 94 Z M 85 65 "/>
</clipPath>
<clipPath id="clip-2">
<path clip-rule="nonzero" d="M 85 42 L 108.121094 42 L 108.121094 72 L 85 72 Z M 85 42 "/>
</clipPath>
<clipPath id="clip-3">
<path clip-rule="nonzero" d="M 85 20 L 108.121094 20 L 108.121094 49 L 85 49 Z M 85 20 "/>
</clipPath>
</defs>
<path fill-rule="nonzero" fill="rgb(79.998779%, 79.998779%, 100%)" fill-opacity="1" stroke-width="0.3985" stroke-linecap="butt" stroke-linejoin="miter" stroke="rgb(50%, 50%, 100%)" stroke-opacity="1" stroke-miterlimit="10" d="M 8.504031 22.676625 C 8.504031 27.375844 4.695438 31.180531 0.000125 31.180531 C -4.695187 31.180531 -8.503781 27.375844 -8.503781 22.676625 C -8.503781 17.981313 -4.695187 14.172719 0.000125 14.172719 C 4.695438 14.172719 8.504031 17.981313 8.504031 22.676625 Z M 8.504031 22.676625 " transform="matrix(1, 0, 0, -1, 8.703, 113.786)"/>
<path fill-rule="nonzero" fill="rgb(79.998779%, 79.998779%, 100%)" fill-opacity="1" stroke-width="0.3985" stroke-linecap="butt" stroke-linejoin="miter" stroke="rgb(50%, 50%, 100%)" stroke-opacity="1" stroke-miterlimit="10" d="M 8.504031 45.356313 C 8.504031 50.051625 4.695438 53.860219 0.000125 53.860219 C -4.695187 53.860219 -8.503781 50.051625 -8.503781 45.356313 C -8.503781 40.657094 -4.695187 36.852406 0.000125 36.852406 C 4.695438 36.852406 8.504031 40.657094 8.504031 45.356313 Z M 8.504031 45.356313 " transform="matrix(1, 0, 0, -1, 8.703, 113.786)"/>
<path fill-rule="nonzero" fill="rgb(79.998779%, 79.998779%, 100%)" fill-opacity="1" stroke-width="0.3985" stroke-linecap="butt" stroke-linejoin="miter" stroke="rgb(50%, 50%, 100%)" stroke-opacity="1" stroke-miterlimit="10" d="M 8.504031 68.032094 C 8.504031 72.727406 4.695438 76.536 0.000125 76.536 C -4.695187 76.536 -8.503781 72.727406 -8.503781 68.032094 C -8.503781 63.336781 -4.695187 59.528188 0.000125 59.528188 C 4.695438 59.528188 8.504031 63.336781 8.504031 68.032094 Z M 8.504031 68.032094 " transform="matrix(1, 0, 0, -1, 8.703, 113.786)"/>
<path fill-rule="nonzero" fill="rgb(79.998779%, 79.998779%, 100%)" fill-opacity="1" stroke-width="0.3985" stroke-linecap="butt" stroke-linejoin="miter" stroke="rgb(50%, 50%, 100%)" stroke-opacity="1" stroke-miterlimit="10" d="M 8.504031 90.711781 C 8.504031 95.407094 4.695438 99.215688 0.000125 99.215688 C -4.695187 99.215688 -8.503781 95.407094 -8.503781 90.711781 C -8.503781 86.012563 -4.695187 82.207875 0.000125 82.207875 C 4.695438 82.207875 8.504031 86.012563 8.504031 90.711781 Z M 8.504031 90.711781 " transform="matrix(1, 0, 0, -1, 8.703, 113.786)"/>
<g clip-path="url(#clip-0)">
<path fill="none" stroke-width="0.3985" stroke-linecap="butt" stroke-linejoin="miter" stroke="rgb(100%, 50%, 50%)" stroke-opacity="1" stroke-miterlimit="10" d="M 53.8595 11.340688 C 53.8595 16.036 50.050906 19.844594 45.355594 19.844594 C 40.656375 19.844594 36.851688 16.036 36.851688 11.340688 C 36.851688 6.641469 40.656375 2.832875 45.355594 2.832875 C 50.050906 2.832875 53.8595 6.641469 53.8595 11.340688 Z M 53.8595 11.340688 " transform="matrix(1, 0, 0, -1, 8.703, 113.786)"/>
</g>
<path fill="none" stroke-width="0.3985" stroke-linecap="butt" stroke-linejoin="miter" stroke="rgb(100%, 50%, 50%)" stroke-opacity="1" stroke-miterlimit="10" d="M 53.8595 34.016469 C 53.8595 38.711781 50.050906 42.520375 45.355594 42.520375 C 40.656375 42.520375 36.851688 38.711781 36.851688 34.016469 C 36.851688 29.321156 40.656375 25.512563 45.355594 25.512563 C 50.050906 25.512563 53.8595 29.321156 53.8595 34.016469 Z M 53.8595 34.016469 " transform="matrix(1, 0, 0, -1, 8.703, 113.786)"/>
<path fill="none" stroke-width="0.3985" stroke-linecap="butt" stroke-linejoin="miter" stroke="rgb(100%, 50%, 50%)" stroke-opacity="1" stroke-miterlimit="10" d="M 53.8595 56.69225 C 53.8595 61.391469 50.050906 65.196156 45.355594 65.196156 C 40.656375 65.196156 36.851688 61.391469 36.851688 56.69225 C 36.851688 51.996938 40.656375 48.188344 45.355594 48.188344 C 50.050906 48.188344 53.8595 51.996938 53.8595 56.69225 Z M 53.8595 56.69225 " transform="matrix(1, 0, 0, -1, 8.703, 113.786)"/>
<path fill="none" stroke-width="0.3985" stroke-linecap="butt" stroke-linejoin="miter" stroke="rgb(100%, 50%, 50%)" stroke-opacity="1" stroke-miterlimit="10" d="M 53.8595 79.371938 C 53.8595 84.06725 50.050906 87.875844 45.355594 87.875844 C 40.656375 87.875844 36.851688 84.06725 36.851688 79.371938 C 36.851688 74.672719 40.656375 70.868031 45.355594 70.868031 C 50.050906 70.868031 53.8595 74.672719 53.8595 79.371938 Z M 53.8595 79.371938 " transform="matrix(1, 0, 0, -1, 8.703, 113.786)"/>
<path fill="none" stroke-width="0.3985" stroke-linecap="butt" stroke-linejoin="miter" stroke="rgb(100%, 50%, 50%)" stroke-opacity="1" stroke-miterlimit="10" d="M 53.8595 102.047719 C 53.8595 106.746938 50.050906 110.551625 45.355594 110.551625 C 40.656375 110.551625 36.851688 106.746938 36.851688 102.047719 C 36.851688 97.352406 40.656375 93.543813 45.355594 93.543813 C 50.050906 93.543813 53.8595 97.352406 53.8595 102.047719 Z M 53.8595 102.047719 " transform="matrix(1, 0, 0, -1, 8.703, 113.786)"/>
<path fill="none" stroke-width="0.79701" stroke-linecap="butt" stroke-linejoin="miter" stroke="rgb(100%, 29.998779%, 29.998779%)" stroke-opacity="1" stroke-miterlimit="10" d="M 34.01575 45.356313 L 56.695438 68.032094 " transform="matrix(1, 0, 0, -1, 8.703, 113.786)"/>
<path fill="none" stroke-width="0.79701" stroke-linecap="butt" stroke-linejoin="miter" stroke="rgb(100%, 29.998779%, 29.998779%)" stroke-opacity="1" stroke-miterlimit="10" d="M 34.01575 90.711781 L 56.695438 113.387563 " transform="matrix(1, 0, 0, -1, 8.703, 113.786)"/>
<path fill="none" stroke-width="0.79701" stroke-linecap="butt" stroke-linejoin="miter" stroke="rgb(100%, 29.998779%, 29.998779%)" stroke-opacity="1" stroke-miterlimit="10" d="M 34.01575 68.032094 L 56.695438 45.356313 " transform="matrix(1, 0, 0, -1, 8.703, 113.786)"/>
<path fill="none" stroke-width="0.79701" stroke-linecap="butt" stroke-linejoin="miter" stroke="rgb(100%, 29.998779%, 29.998779%)" stroke-opacity="1" stroke-miterlimit="10" d="M 34.01575 113.387563 L 56.695438 90.711781 " transform="matrix(1, 0, 0, -1, 8.703, 113.786)"/>
<path fill-rule="nonzero" fill="rgb(79.998779%, 100%, 79.998779%)" fill-opacity="1" d="M 107.917969 79.769531 C 107.917969 75.074219 104.109375 71.265625 99.414062 71.265625 C 94.714844 71.265625 90.910156 75.074219 90.910156 79.769531 C 90.910156 84.464844 94.714844 88.273438 99.414062 88.273438 C 104.109375 88.273438 107.917969 84.464844 107.917969 79.769531 Z M 107.917969 79.769531 "/>
<g clip-path="url(#clip-1)">
<path fill="none" stroke-width="0.3985" stroke-linecap="butt" stroke-linejoin="miter" stroke="rgb(0%, 39.99939%, 0%)" stroke-opacity="1" stroke-miterlimit="10" d="M 99.214969 34.016469 C 99.214969 38.711781 95.406375 42.520375 90.711062 42.520375 C 86.011844 42.520375 82.207156 38.711781 82.207156 34.016469 C 82.207156 29.321156 86.011844 25.512563 90.711062 25.512563 C 95.406375 25.512563 99.214969 29.321156 99.214969 34.016469 Z M 99.214969 34.016469 " transform="matrix(1, 0, 0, -1, 8.703, 113.786)"/>
</g>
<path fill-rule="nonzero" fill="rgb(79.998779%, 100%, 79.998779%)" fill-opacity="1" d="M 107.917969 57.09375 C 107.917969 52.394531 104.109375 48.589844 99.414062 48.589844 C 94.714844 48.589844 90.910156 52.394531 90.910156 57.09375 C 90.910156 61.789062 94.714844 65.597656 99.414062 65.597656 C 104.109375 65.597656 107.917969 61.789062 107.917969 57.09375 Z M 107.917969 57.09375 "/>
<g clip-path="url(#clip-2)">
<path fill="none" stroke-width="0.3985" stroke-linecap="butt" stroke-linejoin="miter" stroke="rgb(0%, 39.99939%, 0%)" stroke-opacity="1" stroke-miterlimit="10" d="M 99.214969 56.69225 C 99.214969 61.391469 95.406375 65.196156 90.711062 65.196156 C 86.011844 65.196156 82.207156 61.391469 82.207156 56.69225 C 82.207156 51.996938 86.011844 48.188344 90.711062 48.188344 C 95.406375 48.188344 99.214969 51.996938 99.214969 56.69225 Z M 99.214969 56.69225 " transform="matrix(1, 0, 0, -1, 8.703, 113.786)"/>
</g>
<path fill-rule="nonzero" fill="rgb(79.998779%, 100%, 79.998779%)" fill-opacity="1" d="M 107.917969 34.414062 C 107.917969 29.71875 104.109375 25.910156 99.414062 25.910156 C 94.714844 25.910156 90.910156 29.71875 90.910156 34.414062 C 90.910156 39.113281 94.714844 42.917969 99.414062 42.917969 C 104.109375 42.917969 107.917969 39.113281 107.917969 34.414062 Z M 107.917969 34.414062 "/>
<g clip-path="url(#clip-3)">
<path fill="none" stroke-width="0.3985" stroke-linecap="butt" stroke-linejoin="miter" stroke="rgb(0%, 39.99939%, 0%)" stroke-opacity="1" stroke-miterlimit="10" d="M 99.214969 79.371938 C 99.214969 84.06725 95.406375 87.875844 90.711062 87.875844 C 86.011844 87.875844 82.207156 84.06725 82.207156 79.371938 C 82.207156 74.672719 86.011844 70.868031 90.711062 70.868031 C 95.406375 70.868031 99.214969 74.672719 99.214969 79.371938 Z M 99.214969 79.371938 " transform="matrix(1, 0, 0, -1, 8.703, 113.786)"/>
</g>
<path fill="none" stroke-width="0.3985" stroke-linecap="butt" stroke-linejoin="miter" stroke="rgb(75%, 75%, 75%)" stroke-opacity="1" stroke-miterlimit="10" d="M 8.445438 20.56725 L 36.527469 13.547719 " transform="matrix(1, 0, 0, -1, 8.703, 113.786)"/>
<path fill="none" stroke-width="0.3985" stroke-linecap="round" stroke-linejoin="round" stroke="rgb(75%, 75%, 75%)" stroke-opacity="1" stroke-miterlimit="10" d="M -2.072988 2.391204 C -1.694031 0.955846 -0.847983 0.277478 -0.000984133 -0.00202158 C -0.849883 -0.278663 -1.694997 -0.957014 -2.073035 -2.392365 " transform="matrix(0.97012, 0.24252, 0.24252, -0.97012, 45.42332, 100.28734)"/>
<path fill="none" stroke-width="0.3985" stroke-linecap="butt" stroke-linejoin="miter" stroke="rgb(75%, 75%, 75%)" stroke-opacity="1" stroke-miterlimit="10" d="M 6.961063 27.899281 L 38.074344 51.235219 " transform="matrix(1, 0, 0, -1, 8.703, 113.786)"/>
<path fill="none" stroke-width="0.3985" stroke-linecap="round" stroke-linejoin="round" stroke="rgb(75%, 75%, 75%)" stroke-opacity="1" stroke-miterlimit="10" d="M -2.070982 2.38954 C -1.695986 0.955899 -0.851436 0.278527 0.000149516 0.00116603 C -0.849879 -0.279303 -1.693661 -0.955096 -2.071812 -2.390291 " transform="matrix(0.79997, -0.59999, -0.59999, -0.79997, 46.93808, 62.43071)"/>
<path fill="none" stroke-width="0.3985" stroke-linecap="butt" stroke-linejoin="miter" stroke="rgb(75%, 75%, 75%)" stroke-opacity="1" stroke-miterlimit="10" d="M 4.316531 30.235219 L 40.839969 94.153188 " transform="matrix(1, 0, 0, -1, 8.703, 113.786)"/>
<path fill="none" stroke-width="0.3985" stroke-linecap="round" stroke-linejoin="round" stroke="rgb(75%, 75%, 75%)" stroke-opacity="1" stroke-miterlimit="10" d="M -2.072383 2.391393 C -1.693481 0.956681 -0.850876 0.277359 0.000936818 -0.000767663 C -0.847971 -0.278888 -1.693973 -0.955781 -2.070947 -2.39049 " transform="matrix(0.49611, -0.8682, -0.8682, -0.49611, 49.6434, 19.46137)"/>
<path fill="none" stroke-width="0.3985" stroke-linecap="butt" stroke-linejoin="miter" stroke="rgb(75%, 75%, 75%)" stroke-opacity="1" stroke-miterlimit="10" d="M 6.964969 40.133656 L 38.074344 16.801625 " transform="matrix(1, 0, 0, -1, 8.703, 113.786)"/>
<path fill="none" stroke-width="0.3985" stroke-linecap="round" stroke-linejoin="round" stroke="rgb(75%, 75%, 75%)" stroke-opacity="1" stroke-miterlimit="10" d="M -2.072208 2.390386 C -1.694057 0.955191 -0.850275 0.279398 -0.000246747 -0.00107103 C -0.851832 -0.278432 -1.694038 -0.958929 -2.071379 -2.389445 " transform="matrix(0.79997, 0.59999, 0.59999, -0.79997, 46.93834, 97.10476)"/>
<path fill="none" stroke-width="0.3985" stroke-linecap="butt" stroke-linejoin="miter" stroke="rgb(75%, 75%, 75%)" stroke-opacity="1" stroke-miterlimit="10" d="M 8.445438 47.469594 L 36.527469 54.489125 " transform="matrix(1, 0, 0, -1, 8.703, 113.786)"/>
<path fill="none" stroke-width="0.3985" stroke-linecap="round" stroke-linejoin="round" stroke="rgb(75%, 75%, 75%)" stroke-opacity="1" stroke-miterlimit="10" d="M -2.072798 2.392238 C -1.69476 0.956886 -0.849647 0.278535 -0.000747957 0.00189424 C -0.847747 -0.277606 -1.693794 -0.955973 -2.072752 -2.391332 " transform="matrix(0.97012, -0.24252, -0.24252, -0.97012, 45.42306, 59.24775)"/>
<path fill="none" stroke-width="0.3985" stroke-linecap="butt" stroke-linejoin="miter" stroke="rgb(75%, 75%, 75%)" stroke-opacity="1" stroke-miterlimit="10" d="M 5.437625 52.153188 L 39.672 94.946156 " transform="matrix(1, 0, 0, -1, 8.703, 113.786)"/>
<path fill="none" stroke-width="0.3985" stroke-linecap="round" stroke-linejoin="round" stroke="rgb(75%, 75%, 75%)" stroke-opacity="1" stroke-miterlimit="10" d="M -2.073679 2.391791 C -1.694198 0.954419 -0.849221 0.279662 0.000635864 -0.000976924 C -0.847389 -0.279181 -1.692362 -0.955164 -2.074274 -2.391317 " transform="matrix(0.62466, -0.78082, -0.78082, -0.62466, 48.49884, 18.68348)"/>
<path fill="none" stroke-width="0.3985" stroke-linecap="butt" stroke-linejoin="miter" stroke="rgb(75%, 75%, 75%)" stroke-opacity="1" stroke-miterlimit="10" d="M 5.437625 61.239125 L 39.672 18.446156 " transform="matrix(1, 0, 0, -1, 8.703, 113.786)"/>
<path fill="none" stroke-width="0.3985" stroke-linecap="round" stroke-linejoin="round" stroke="rgb(75%, 75%, 75%)" stroke-opacity="1" stroke-miterlimit="10" d="M -2.073337 2.390043 C -1.694476 0.956329 -0.849503 0.280347 0.00157257 -0.000297534 C -0.851335 -0.278496 -1.693261 -0.955694 -2.072742 -2.393065 " transform="matrix(0.62466, 0.78082, 0.78082, -0.62466, 48.49925, 95.49468)"/>
<path fill="none" stroke-width="0.3985" stroke-linecap="butt" stroke-linejoin="miter" stroke="rgb(75%, 75%, 75%)" stroke-opacity="1" stroke-miterlimit="10" d="M 8.445438 65.926625 L 36.527469 58.903188 " transform="matrix(1, 0, 0, -1, 8.703, 113.786)"/>
<path fill="none" stroke-width="0.3985" stroke-linecap="round" stroke-linejoin="round" stroke="rgb(75%, 75%, 75%)" stroke-opacity="1" stroke-miterlimit="10" d="M -2.073496 2.39266 C -1.694539 0.957301 -0.848491 0.278933 -0.00149224 -0.000566321 C -0.850391 -0.277207 -1.695505 -0.955558 -2.073543 -2.39091 " transform="matrix(0.97012, 0.24252, 0.24252, -0.97012, 45.42346, 54.9295)"/>
<path fill="none" stroke-width="0.3985" stroke-linecap="butt" stroke-linejoin="miter" stroke="rgb(75%, 75%, 75%)" stroke-opacity="1" stroke-miterlimit="10" d="M 6.961063 73.258656 L 38.074344 96.594594 " transform="matrix(1, 0, 0, -1, 8.703, 113.786)"/>
<path fill="none" stroke-width="0.3985" stroke-linecap="round" stroke-linejoin="round" stroke="rgb(75%, 75%, 75%)" stroke-opacity="1" stroke-miterlimit="10" d="M -2.072913 2.393244 C -1.694791 0.957259 -0.850241 0.279887 -0.000999286 -0.000599008 C -0.848684 -0.277943 -1.69481 -0.956861 -2.07296 -2.392056 " transform="matrix(0.79997, -0.59999, -0.59999, -0.79997, 46.93794, 17.07314)"/>
<path fill="none" stroke-width="0.3985" stroke-linecap="butt" stroke-linejoin="miter" stroke="rgb(75%, 75%, 75%)" stroke-opacity="1" stroke-miterlimit="10" d="M 4.316531 83.157094 L 40.839969 19.243031 " transform="matrix(1, 0, 0, -1, 8.703, 113.786)"/>
<path fill="none" stroke-width="0.3985" stroke-linecap="round" stroke-linejoin="round" stroke="rgb(75%, 75%, 75%)" stroke-opacity="1" stroke-miterlimit="10" d="M -2.073155 2.391441 C -1.692789 0.954794 -0.850179 0.279839 0.00212048 -0.0002197 C -0.849692 -0.278346 -1.692298 -0.957669 -2.071199 -2.392381 " transform="matrix(0.49611, 0.8682, 0.8682, -0.49611, 49.64367, 94.7168)"/>
<path fill="none" stroke-width="0.3985" stroke-linecap="butt" stroke-linejoin="miter" stroke="rgb(75%, 75%, 75%)" stroke-opacity="1" stroke-miterlimit="10" d="M 6.964969 85.493031 L 38.074344 62.157094 " transform="matrix(1, 0, 0, -1, 8.703, 113.786)"/>
<path fill="none" stroke-width="0.3985" stroke-linecap="round" stroke-linejoin="round" stroke="rgb(75%, 75%, 75%)" stroke-opacity="1" stroke-miterlimit="10" d="M -2.073407 2.391768 C -1.695256 0.956573 -0.84913 0.277655 -0.0014458 0.000310995 C -0.850687 -0.280175 -1.692112 -0.955203 -2.070234 -2.391188 " transform="matrix(0.79997, 0.59999, 0.59999, -0.79997, 46.93847, 51.74721)"/>
<path fill="none" stroke-width="0.3985" stroke-linecap="butt" stroke-linejoin="miter" stroke="rgb(75%, 75%, 75%)" stroke-opacity="1" stroke-miterlimit="10" d="M 8.445438 92.825063 L 36.527469 99.8485 " transform="matrix(1, 0, 0, -1, 8.703, 113.786)"/>
<path fill="none" stroke-width="0.3985" stroke-linecap="round" stroke-linejoin="round" stroke="rgb(75%, 75%, 75%)" stroke-opacity="1" stroke-miterlimit="10" d="M -2.073196 2.39008 C -1.695144 0.954758 -0.849087 0.280221 -0.00114599 -0.000192845 C -0.851916 -0.278753 -1.69415 -0.958068 -2.072133 -2.389619 " transform="matrix(0.97014, -0.24251, -0.24251, -0.97014, 45.42294, 13.89016)"/>
<path fill="none" stroke-width="0.3985" stroke-linecap="butt" stroke-linejoin="miter" stroke="rgb(75%, 75%, 75%)" stroke-opacity="1" stroke-miterlimit="10" d="M 53.14075 15.231313 L 82.574344 29.946156 " transform="matrix(1, 0, 0, -1, 8.703, 113.786)"/>
<path fill="none" stroke-width="0.3985" stroke-linecap="round" stroke-linejoin="round" stroke="rgb(75%, 75%, 75%)" stroke-opacity="1" stroke-miterlimit="10" d="M -2.074123 2.390383 C -1.694996 0.956044 -0.84941 0.279937 0.00141444 -0.00133335 C -0.849405 -0.279125 -1.694979 -0.956994 -2.072333 -2.393087 " transform="matrix(0.89436, -0.44717, -0.44717, -0.89436, 91.45517, 83.74944)"/>
<path fill="none" stroke-width="0.3985" stroke-linecap="butt" stroke-linejoin="miter" stroke="rgb(75%, 75%, 75%)" stroke-opacity="1" stroke-miterlimit="10" d="M 51.511844 17.493031 L 84.277469 50.258656 " transform="matrix(1, 0, 0, -1, 8.703, 113.786)"/>
<path fill="none" stroke-width="0.3985" stroke-linecap="round" stroke-linejoin="round" stroke="rgb(75%, 75%, 75%)" stroke-opacity="1" stroke-miterlimit="10" d="M -2.074235 2.39172 C -1.693056 0.955395 -0.850597 0.278665 0.000149378 0.00244926 C -0.850597 -0.279291 -1.693056 -0.956021 -2.071472 -2.389583 " transform="matrix(0.7071, -0.7071, -0.7071, -0.7071, 93.12272, 63.38465)"/>
<path fill="none" stroke-width="0.3985" stroke-linecap="butt" stroke-linejoin="miter" stroke="rgb(75%, 75%, 75%)" stroke-opacity="1" stroke-miterlimit="10" d="M 50.183719 18.578969 L 85.668094 71.801625 " transform="matrix(1, 0, 0, -1, 8.703, 113.786)"/>
<path fill="none" stroke-width="0.3985" stroke-linecap="round" stroke-linejoin="round" stroke="rgb(75%, 75%, 75%)" stroke-opacity="1" stroke-miterlimit="10" d="M -2.071984 2.392537 C -1.691707 0.955887 -0.849877 0.277644 0.0017082 0.000274921 C -0.848798 -0.28033 -1.69389 -0.956392 -2.070941 -2.390869 " transform="matrix(0.55467, -0.83202, -0.83202, -0.55467, 94.47975, 41.81798)"/>
<path fill="none" stroke-width="0.3985" stroke-linecap="butt" stroke-linejoin="miter" stroke="rgb(75%, 75%, 75%)" stroke-opacity="1" stroke-miterlimit="10" d="M 53.14075 52.805531 L 82.574344 38.090688 " transform="matrix(1, 0, 0, -1, 8.703, 113.786)"/>
<path fill="none" stroke-width="0.3985" stroke-linecap="round" stroke-linejoin="round" stroke="rgb(75%, 75%, 75%)" stroke-opacity="1" stroke-miterlimit="10" d="M -2.070932 2.389681 C -1.695312 0.957134 -0.849752 0.279301 0.00104596 0.00153347 C -0.849747 -0.279743 -1.695295 -0.955845 -2.074383 -2.390145 " transform="matrix(0.89438, 0.4472, 0.4472, -0.89438, 91.45541, 75.78606)"/>
<path fill="none" stroke-width="0.3985" stroke-linecap="butt" stroke-linejoin="miter" stroke="rgb(75%, 75%, 75%)" stroke-opacity="1" stroke-miterlimit="10" d="M 54.062625 56.696156 L 81.613406 56.696156 " transform="matrix(1, 0, 0, -1, 8.703, 113.786)"/>
<path fill="none" stroke-width="0.3985" stroke-linecap="round" stroke-linejoin="round" stroke="rgb(75%, 75%, 75%)" stroke-opacity="1" stroke-miterlimit="10" d="M -2.073534 2.389611 C -1.694627 0.956017 -0.850877 0.280236 0.000685 -0.00101375 C -0.850877 -0.278358 -1.694627 -0.958045 -2.073534 -2.391639 " transform="matrix(1, 0, 0, -1, 90.51494, 57.08883)"/>
<path fill="none" stroke-width="0.3985" stroke-linecap="butt" stroke-linejoin="miter" stroke="rgb(75%, 75%, 75%)" stroke-opacity="1" stroke-miterlimit="10" d="M 53.14075 60.590688 L 82.574344 75.305531 " transform="matrix(1, 0, 0, -1, 8.703, 113.786)"/>
<path fill="none" stroke-width="0.3985" stroke-linecap="round" stroke-linejoin="round" stroke="rgb(75%, 75%, 75%)" stroke-opacity="1" stroke-miterlimit="10" d="M -2.073445 2.391738 C -1.694319 0.957399 -0.850479 0.277798 0.00209201 0.0000218221 C -0.848727 -0.277769 -1.694302 -0.955639 -2.071655 -2.391732 " transform="matrix(0.89436, -0.44717, -0.44717, -0.89436, 91.45517, 38.39158)"/>
<path fill="none" stroke-width="0.3985" stroke-linecap="butt" stroke-linejoin="miter" stroke="rgb(75%, 75%, 75%)" stroke-opacity="1" stroke-miterlimit="10" d="M 50.187625 94.813344 L 85.668094 41.590688 " transform="matrix(1, 0, 0, -1, 8.703, 113.786)"/>
<path fill="none" stroke-width="0.3985" stroke-linecap="round" stroke-linejoin="round" stroke="rgb(75%, 75%, 75%)" stroke-opacity="1" stroke-miterlimit="10" d="M -2.073139 2.391878 C -1.692838 0.955234 -0.847746 0.279172 -0.000490243 0.000733964 C -0.848825 -0.278802 -1.693906 -0.954878 -2.074183 -2.391528 " transform="matrix(0.55467, 0.83202, 0.83202, -0.55467, 94.48013, 72.36019)"/>
<path fill="none" stroke-width="0.3985" stroke-linecap="butt" stroke-linejoin="miter" stroke="rgb(75%, 75%, 75%)" stroke-opacity="1" stroke-miterlimit="10" d="M 51.511844 95.899281 L 84.277469 63.133656 " transform="matrix(1, 0, 0, -1, 8.703, 113.786)"/>
<path fill="none" stroke-width="0.3985" stroke-linecap="round" stroke-linejoin="round" stroke="rgb(75%, 75%, 75%)" stroke-opacity="1" stroke-miterlimit="10" d="M -2.073384 2.3909 C -1.694955 0.95733 -0.849722 0.277839 0.0010315 0.00162726 C -0.849719 -0.280121 -1.692179 -0.956862 -2.070588 -2.390437 " transform="matrix(0.70709, 0.7071, 0.7071, -0.70709, 93.12312, 50.79339)"/>
<path fill="none" stroke-width="0.3985" stroke-linecap="butt" stroke-linejoin="miter" stroke="rgb(75%, 75%, 75%)" stroke-opacity="1" stroke-miterlimit="10" d="M 53.14075 98.164906 L 82.574344 83.446156 " transform="matrix(1, 0, 0, -1, 8.703, 113.786)"/>
<path fill="none" stroke-width="0.3985" stroke-linecap="round" stroke-linejoin="round" stroke="rgb(75%, 75%, 75%)" stroke-opacity="1" stroke-miterlimit="10" d="M -2.071789 2.391081 C -1.694421 0.95504 -0.850608 0.280701 0.00193653 -0.000560704 C -0.850603 -0.278343 -1.694404 -0.957939 -2.073493 -2.392239 " transform="matrix(0.89438, 0.4472, 0.4472, -0.89438, 91.45555, 30.42832)"/>
</svg>
