<?xml version="1.0" encoding="UTF-8"?>
<svg xmlns="http://www.w3.org/2000/svg" xmlns:xlink="http://www.w3.org/1999/xlink" width="171.89" height="222.56" viewBox="0 0 171.89 222.56">
<defs>
<g>
<g id="glyph-0-0">
<path d="M 2.921875 -8.296875 L 1.359375 -6.671875 L 1.546875 -6.484375 L 2.921875 -7.71875 L 4.296875 -6.484375 L 4.484375 -6.671875 Z M 2.921875 -8.296875 "/>
</g>
<g id="glyph-0-1">
<path d="M 3.890625 2.90625 C 3.890625 2.875 3.890625 2.84375 3.6875 2.640625 C 2.484375 1.4375 1.8125 -0.53125 1.8125 -2.96875 C 1.8125 -5.296875 2.375 -7.296875 3.765625 -8.703125 C 3.890625 -8.8125 3.890625 -8.828125 3.890625 -8.875 C 3.890625 -8.9375 3.828125 -8.96875 3.78125 -8.96875 C 3.625 -8.96875 2.640625 -8.109375 2.0625 -6.9375 C 1.453125 -5.71875 1.171875 -4.453125 1.171875 -2.96875 C 1.171875 -1.90625 1.34375 -0.484375 1.953125 0.78125 C 2.671875 2.21875 3.640625 3 3.78125 3 C 3.828125 3 3.890625 2.96875 3.890625 2.90625 Z M 3.890625 2.90625 "/>
</g>
<g id="glyph-0-2">
<path d="M 3.375 -2.96875 C 3.375 -3.890625 3.25 -5.359375 2.578125 -6.75 C 1.875 -8.1875 0.890625 -8.96875 0.765625 -8.96875 C 0.71875 -8.96875 0.65625 -8.9375 0.65625 -8.875 C 0.65625 -8.828125 0.65625 -8.8125 0.859375 -8.609375 C 2.0625 -7.40625 2.71875 -5.421875 2.71875 -2.984375 C 2.71875 -0.671875 2.15625 1.328125 0.78125 2.734375 C 0.65625 2.84375 0.65625 2.875 0.65625 2.90625 C 0.65625 2.96875 0.71875 3 0.765625 3 C 0.921875 3 1.90625 2.140625 2.484375 0.96875 C 3.09375 -0.25 3.375 -1.546875 3.375 -2.96875 Z M 3.375 -2.96875 "/>
</g>
<g id="glyph-0-3">
<path d="M 8.0625 -3.875 C 8.234375 -3.875 8.453125 -3.875 8.453125 -4.09375 C 8.453125 -4.3125 8.25 -4.3125 8.0625 -4.3125 L 1.03125 -4.3125 C 0.859375 -4.3125 0.640625 -4.3125 0.640625 -4.09375 C 0.640625 -3.875 0.84375 -3.875 1.03125 -3.875 Z M 8.0625 -1.65625 C 8.234375 -1.65625 8.453125 -1.65625 8.453125 -1.859375 C 8.453125 -2.09375 8.25 -2.09375 8.0625 -2.09375 L 1.03125 -2.09375 C 0.859375 -2.09375 0.640625 -2.09375 0.640625 -1.875 C 0.640625 -1.65625 0.84375 -1.65625 1.03125 -1.65625 Z M 8.0625 -1.65625 "/>
</g>
<g id="glyph-0-4">
<path d="M 5.359375 -3.828125 C 5.359375 -4.8125 5.296875 -5.78125 4.859375 -6.6875 C 4.375 -7.6875 3.515625 -7.953125 2.921875 -7.953125 C 2.234375 -7.953125 1.390625 -7.609375 0.9375 -6.609375 C 0.609375 -5.859375 0.484375 -5.109375 0.484375 -3.828125 C 0.484375 -2.671875 0.578125 -1.796875 1 -0.9375 C 1.46875 -0.03125 2.296875 0.25 2.921875 0.25 C 3.953125 0.25 4.546875 -0.375 4.90625 -1.0625 C 5.328125 -1.953125 5.359375 -3.125 5.359375 -3.828125 Z M 2.921875 0.015625 C 2.53125 0.015625 1.75 -0.203125 1.53125 -1.5 C 1.40625 -2.21875 1.40625 -3.125 1.40625 -3.96875 C 1.40625 -4.953125 1.40625 -5.828125 1.59375 -6.53125 C 1.796875 -7.34375 2.40625 -7.703125 2.921875 -7.703125 C 3.375 -7.703125 4.0625 -7.4375 4.296875 -6.40625 C 4.453125 -5.71875 4.453125 -4.78125 4.453125 -3.96875 C 4.453125 -3.171875 4.453125 -2.265625 4.3125 -1.53125 C 4.09375 -0.21875 3.328125 0.015625 2.921875 0.015625 Z M 2.921875 0.015625 "/>
</g>
<g id="glyph-1-0">
<path d="M 3.140625 1.34375 C 2.828125 1.796875 2.359375 2.203125 1.765625 2.203125 C 1.625 2.203125 1.046875 2.171875 0.875 1.625 C 0.90625 1.640625 0.96875 1.640625 0.984375 1.640625 C 1.34375 1.640625 1.59375 1.328125 1.59375 1.046875 C 1.59375 0.78125 1.359375 0.6875 1.1875 0.6875 C 0.984375 0.6875 0.578125 0.828125 0.578125 1.40625 C 0.578125 2.015625 1.09375 2.4375 1.765625 2.4375 C 2.96875 2.4375 4.171875 1.34375 4.5 0.015625 L 5.671875 -4.65625 C 5.6875 -4.703125 5.71875 -4.78125 5.71875 -4.859375 C 5.71875 -5.03125 5.5625 -5.15625 5.390625 -5.15625 C 5.28125 -5.15625 5.03125 -5.109375 4.9375 -4.75 L 4.046875 -1.234375 C 4 -1.015625 4 -0.984375 3.890625 -0.859375 C 3.65625 -0.53125 3.265625 -0.125 2.6875 -0.125 C 2.015625 -0.125 1.953125 -0.78125 1.953125 -1.09375 C 1.953125 -1.78125 2.28125 -2.703125 2.609375 -3.5625 C 2.734375 -3.90625 2.8125 -4.078125 2.8125 -4.3125 C 2.8125 -4.8125 2.453125 -5.265625 1.859375 -5.265625 C 0.765625 -5.265625 0.328125 -3.53125 0.328125 -3.4375 C 0.328125 -3.390625 0.375 -3.328125 0.453125 -3.328125 C 0.5625 -3.328125 0.578125 -3.375 0.625 -3.546875 C 0.90625 -4.546875 1.359375 -5.03125 1.828125 -5.03125 C 1.9375 -5.03125 2.140625 -5.03125 2.140625 -4.640625 C 2.140625 -4.328125 2.015625 -3.984375 1.828125 -3.53125 C 1.25 -1.953125 1.25 -1.5625 1.25 -1.28125 C 1.25 -0.140625 2.0625 0.125 2.65625 0.125 C 3 0.125 3.4375 0.015625 3.84375 -0.4375 L 3.859375 -0.421875 C 3.6875 0.28125 3.5625 0.75 3.140625 1.34375 Z M 3.140625 1.34375 "/>
</g>
<g id="glyph-1-1">
<path d="M 2.328125 0.046875 C 2.328125 -0.640625 2.109375 -1.15625 1.609375 -1.15625 C 1.234375 -1.15625 1.046875 -0.84375 1.046875 -0.578125 C 1.046875 -0.328125 1.21875 0 1.625 0 C 1.78125 0 1.90625 -0.046875 2.015625 -0.15625 C 2.046875 -0.171875 2.0625 -0.171875 2.0625 -0.171875 C 2.09375 -0.171875 2.09375 -0.015625 2.09375 0.046875 C 2.09375 0.4375 2.015625 1.21875 1.328125 2 C 1.1875 2.140625 1.1875 2.15625 1.1875 2.1875 C 1.1875 2.25 1.25 2.3125 1.3125 2.3125 C 1.40625 2.3125 2.328125 1.421875 2.328125 0.046875 Z M 2.328125 0.046875 "/>
</g>
<g id="glyph-2-0">
<path d="M 9.015625 0 L 9.015625 -8.296875 L 7.65625 -8.296875 L 6.28125 -4.609375 C 5.671875 -2.9375 5.203125 -1.6875 5.078125 -1.140625 L 5.0625 -1.140625 C 5.03125 -1.34375 4.875 -1.78125 4.71875 -2.25 C 4.5 -2.890625 4.5 -2.921875 4.3125 -3.40625 L 2.5 -8.296875 L 1.140625 -8.296875 L 1.140625 0 L 2.0625 0 L 2.0625 -7.375 C 2.234375 -6.5625 4.171875 -1.453125 4.625 -0.25 L 5.5 -0.25 C 5.890625 -1.28125 7.859375 -6.484375 8.078125 -7.390625 L 8.09375 -7.390625 L 8.09375 0 Z M 9.015625 0 "/>
</g>
<g id="glyph-2-1">
<path d="M 5.84375 -2.265625 C 5.84375 -3.03125 5.46875 -3.59375 5.21875 -3.890625 C 4.65625 -4.484375 4.21875 -4.609375 3.421875 -4.8125 C 2.609375 -5.015625 2.3125 -5.078125 2.046875 -5.328125 C 1.890625 -5.5 1.5625 -5.796875 1.5625 -6.328125 C 1.5625 -7.0625 2.21875 -7.765625 3.28125 -7.765625 C 4.296875 -7.765625 4.828125 -7.375 5.265625 -7 L 5.4375 -7.953125 C 4.953125 -8.21875 4.34375 -8.546875 3.28125 -8.546875 C 1.6875 -8.546875 0.640625 -7.40625 0.640625 -6.203125 C 0.640625 -5.359375 1.15625 -4.8125 1.21875 -4.75 C 1.8125 -4.140625 2.21875 -4.046875 2.96875 -3.84375 C 4 -3.59375 4.15625 -3.546875 4.546875 -3.15625 C 4.75 -2.9375 4.921875 -2.5625 4.921875 -2.140625 C 4.921875 -1.3125 4.25 -0.546875 3.21875 -0.546875 C 2.34375 -0.546875 1.40625 -0.890625 0.703125 -1.546875 L 0.53125 -0.578125 C 1.609375 0.140625 2.671875 0.25 3.21875 0.25 C 4.75 0.25 5.84375 -0.9375 5.84375 -2.265625 Z M 5.84375 -2.265625 "/>
</g>
<g id="glyph-2-2">
<path d="M 6.46875 0 L 6.46875 -0.8125 L 4.90625 -0.8125 C 4.75 -0.8125 4.609375 -0.796875 4.46875 -0.796875 L 2.109375 -0.796875 L 2.109375 -3.9375 L 5.96875 -3.9375 L 5.96875 -4.65625 L 2.109375 -4.65625 L 2.109375 -7.53125 L 3.734375 -7.53125 C 3.875 -7.53125 4.015625 -7.515625 4.15625 -7.515625 L 6.3125 -7.515625 L 6.3125 -8.265625 L 1.078125 -8.265625 L 1.078125 0 Z M 6.46875 0 "/>
</g>
<g id="glyph-3-0">
<path d="M 1.53125 -7.609375 L 1.53125 -6.71875 L 9.375 -6.71875 L 9.375 -7.609375 Z M 0.625 -1.140625 L 0.625 -0.21875 L 10.3125 -0.21875 L 10.3125 -1.140625 Z M 0.625 -1.140625 "/>
</g>
<g id="glyph-3-1">
<path d="M 0.625 -7.8125 C 1.359375 -7.40625 2.296875 -6.75 2.71875 -6.296875 L 3.25 -6.96875 C 2.796875 -7.421875 1.859375 -8.015625 1.109375 -8.40625 Z M 0.453125 -0.796875 L 1.203125 -0.234375 C 1.890625 -1.203125 2.71875 -2.46875 3.359375 -3.59375 L 2.71875 -4.140625 C 2.015625 -2.9375 1.09375 -1.59375 0.453125 -0.796875 Z M 4.953125 -9.15625 C 4.609375 -7.421875 3.984375 -5.71875 3.15625 -4.640625 C 3.375 -4.546875 3.78125 -4.3125 3.9375 -4.1875 C 4.375 -4.8125 4.765625 -5.609375 5.109375 -6.5 L 9.125 -6.5 C 8.921875 -5.75 8.578125 -4.921875 8.328125 -4.390625 C 8.515625 -4.3125 8.84375 -4.140625 9.015625 -4.046875 C 9.40625 -4.796875 9.875 -5.953125 10.171875 -7.03125 L 9.5625 -7.34375 L 9.40625 -7.3125 L 5.375 -7.3125 C 5.546875 -7.859375 5.703125 -8.421875 5.828125 -9 Z M 6.203125 -5.96875 L 6.203125 -5.296875 C 6.203125 -3.734375 5.96875 -1.359375 2.625 0.28125 C 2.828125 0.421875 3.109375 0.71875 3.234375 0.921875 C 5.390625 -0.15625 6.34375 -1.5625 6.765625 -2.890625 C 7.375 -1.140625 8.359375 0.125 9.9375 0.796875 C 10.046875 0.578125 10.296875 0.234375 10.484375 0.078125 C 8.578125 -0.609375 7.546875 -2.296875 7.0625 -4.484375 C 7.0625 -4.765625 7.078125 -5.03125 7.078125 -5.28125 L 7.078125 -5.96875 Z M 6.203125 -5.96875 "/>
</g>
<g id="glyph-3-2">
<path d="M 6.34375 -9.046875 L 6.34375 -6.984375 L 4.5 -6.984375 L 4.5 -9.046875 L 3.6875 -9.046875 L 3.6875 -6.984375 L 1.0625 -6.984375 L 1.0625 0.875 L 1.84375 0.875 L 1.84375 0.171875 L 9.078125 0.171875 L 9.078125 0.828125 L 9.875 0.828125 L 9.875 -6.984375 L 7.125 -6.984375 L 7.125 -9.046875 Z M 1.84375 -0.625 L 1.84375 -3.03125 L 3.6875 -3.03125 L 3.6875 -0.625 Z M 9.078125 -0.625 L 7.125 -0.625 L 7.125 -3.03125 L 9.078125 -3.03125 Z M 4.5 -0.625 L 4.5 -3.03125 L 6.34375 -3.03125 L 6.34375 -0.625 Z M 1.84375 -3.8125 L 1.84375 -6.1875 L 3.6875 -6.1875 L 3.6875 -3.8125 Z M 9.078125 -3.8125 L 7.125 -3.8125 L 7.125 -6.1875 L 9.078125 -6.1875 Z M 4.5 -3.8125 L 4.5 -6.1875 L 6.34375 -6.1875 L 6.34375 -3.8125 Z M 4.5 -3.8125 "/>
</g>
<g id="glyph-3-3">
<path d="M 4.25 -3.640625 L 6.546875 -3.640625 L 6.546875 -2.40625 L 4.25 -2.40625 Z M 4.25 -4.3125 L 4.25 -5.515625 L 6.546875 -5.515625 L 6.546875 -4.3125 Z M 4.25 -1.75 L 6.546875 -1.75 L 6.546875 -0.46875 L 4.25 -0.46875 Z M 0.625 -8.4375 L 0.625 -7.65625 L 4.84375 -7.65625 C 4.765625 -7.203125 4.640625 -6.703125 4.53125 -6.28125 L 1.140625 -6.28125 L 1.140625 0.875 L 1.921875 0.875 L 1.921875 0.296875 L 8.9375 0.296875 L 8.9375 0.875 L 9.765625 0.875 L 9.765625 -6.28125 L 5.375 -6.28125 L 5.796875 -7.65625 L 10.3125 -7.65625 L 10.3125 -8.4375 Z M 1.921875 -0.46875 L 1.921875 -5.515625 L 3.484375 -5.515625 L 3.484375 -0.46875 Z M 8.9375 -0.46875 L 7.3125 -0.46875 L 7.3125 -5.515625 L 8.9375 -5.515625 Z M 8.9375 -0.46875 "/>
</g>
<g id="glyph-3-4">
<path d="M 5.421875 -7.921875 L 8.953125 -7.921875 L 8.953125 -6.421875 L 5.421875 -6.421875 Z M 4.65625 -8.65625 L 4.65625 -5.703125 L 9.75 -5.703125 L 9.75 -8.65625 Z M 1.109375 -8.359375 C 1.703125 -7.84375 2.421875 -7.109375 2.765625 -6.640625 L 3.34375 -7.234375 C 2.984375 -7.6875 2.234375 -8.390625 1.65625 -8.859375 Z M 3.984375 -2.78125 L 3.984375 -2.046875 L 6.453125 -2.046875 C 6.09375 -0.953125 5.34375 -0.234375 3.671875 0.21875 C 3.84375 0.375 4.0625 0.6875 4.140625 0.875 C 5.8125 0.375 6.65625 -0.40625 7.09375 -1.53125 C 7.6875 -0.34375 8.671875 0.484375 10.015625 0.90625 C 10.125 0.671875 10.359375 0.375 10.546875 0.203125 C 9.171875 -0.125 8.171875 -0.921875 7.65625 -2.046875 L 10.484375 -2.046875 L 10.484375 -2.78125 L 7.421875 -2.78125 C 7.484375 -3.15625 7.53125 -3.5625 7.546875 -3.984375 L 10.0625 -3.984375 L 10.0625 -4.71875 L 4.359375 -4.71875 L 4.359375 -3.984375 L 6.765625 -3.984375 C 6.75 -3.546875 6.703125 -3.15625 6.640625 -2.78125 Z M 2.0625 0.546875 C 2.21875 0.34375 2.5 0.140625 4.25 -1.078125 C 4.171875 -1.25 4.0625 -1.546875 4.03125 -1.75 L 2.828125 -0.96875 L 2.828125 -5.765625 L 0.484375 -5.765625 L 0.484375 -4.96875 L 2.03125 -4.96875 L 2.03125 -1.015625 C 2.03125 -0.5625 1.796875 -0.3125 1.640625 -0.203125 C 1.78125 -0.03125 2 0.34375 2.0625 0.546875 Z M 2.0625 0.546875 "/>
</g>
<g id="glyph-3-5">
<path d="M 7.5625 -9.1875 C 7.359375 -8.75 7.015625 -8.140625 6.734375 -7.71875 L 4.21875 -7.71875 C 4.046875 -8.140625 3.671875 -8.71875 3.296875 -9.140625 L 2.59375 -8.84375 C 2.859375 -8.5 3.125 -8.09375 3.3125 -7.71875 L 1.140625 -7.71875 L 1.140625 -6.96875 L 4.796875 -6.96875 C 4.734375 -6.640625 4.65625 -6.34375 4.5625 -6.03125 L 1.671875 -6.03125 L 1.671875 -5.296875 L 4.359375 -5.296875 C 4.234375 -4.96875 4.109375 -4.640625 3.96875 -4.328125 L 0.65625 -4.328125 L 0.65625 -3.5625 L 3.59375 -3.5625 C 2.84375 -2.25 1.828125 -1.25 0.421875 -0.53125 C 0.59375 -0.375 0.90625 -0.015625 1.03125 0.15625 C 2.1875 -0.5 3.125 -1.359375 3.84375 -2.40625 L 3.84375 -1.921875 L 6.046875 -1.921875 L 6.046875 -0.359375 L 2.40625 -0.359375 L 2.40625 0.40625 L 10.21875 0.40625 L 10.21875 -0.359375 L 6.90625 -0.359375 L 6.90625 -1.921875 L 9.421875 -1.921875 L 9.421875 -2.6875 L 4.03125 -2.6875 C 4.203125 -2.96875 4.375 -3.265625 4.53125 -3.5625 L 10.25 -3.5625 L 10.25 -4.328125 L 4.875 -4.328125 C 5 -4.640625 5.109375 -4.96875 5.21875 -5.296875 L 9.296875 -5.296875 L 9.296875 -6.03125 L 5.4375 -6.03125 C 5.53125 -6.34375 5.59375 -6.640625 5.671875 -6.96875 L 9.84375 -6.96875 L 9.84375 -7.71875 L 7.640625 -7.71875 C 7.90625 -8.078125 8.1875 -8.5 8.453125 -8.90625 Z M 7.5625 -9.1875 "/>
</g>
<g id="glyph-3-6">
<path d="M 8.609375 -8.75 C 8.96875 -8.34375 9.4375 -7.765625 9.65625 -7.40625 L 10.25 -7.765625 C 10.015625 -8.109375 9.546875 -8.65625 9.171875 -9.046875 Z M 1.09375 -4.234375 C 1.140625 -2.78125 1.046875 -0.953125 0.28125 0.359375 C 0.453125 0.4375 0.71875 0.671875 0.84375 0.84375 C 1.25 0.171875 1.484375 -0.59375 1.609375 -1.390625 C 2.453125 0.203125 3.828125 0.59375 6.21875 0.59375 L 10.234375 0.59375 C 10.296875 0.34375 10.453125 -0.03125 10.578125 -0.21875 C 9.921875 -0.203125 6.71875 -0.203125 6.21875 -0.203125 C 5.078125 -0.203125 4.171875 -0.296875 3.484375 -0.59375 L 3.484375 -2.71875 L 5.015625 -2.71875 L 5.015625 -3.453125 L 3.484375 -3.453125 L 3.484375 -4.96875 L 5.1875 -4.96875 L 5.1875 -5.6875 L 3.3125 -5.6875 L 3.3125 -7.09375 L 4.96875 -7.09375 L 4.96875 -7.8125 L 3.3125 -7.8125 L 3.3125 -9.15625 L 2.5625 -9.15625 L 2.5625 -7.8125 L 0.890625 -7.8125 L 0.890625 -7.09375 L 2.5625 -7.09375 L 2.5625 -5.6875 L 0.484375 -5.6875 L 0.484375 -4.96875 L 2.734375 -4.96875 L 2.734375 -1.09375 C 2.328125 -1.46875 2 -2.015625 1.765625 -2.765625 C 1.78125 -3.265625 1.796875 -3.734375 1.78125 -4.1875 Z M 5.328125 -1.53125 C 5.484375 -1.71875 5.765625 -1.90625 7.640625 -3 C 7.5625 -3.125 7.46875 -3.4375 7.4375 -3.625 L 6.203125 -2.953125 L 6.203125 -6.5625 L 7.625 -6.5625 C 7.703125 -5.109375 7.875 -3.8125 8.109375 -2.8125 C 7.5625 -2.0625 6.890625 -1.453125 6.140625 -1.046875 C 6.296875 -0.90625 6.515625 -0.640625 6.640625 -0.453125 C 7.28125 -0.84375 7.859375 -1.359375 8.359375 -1.984375 C 8.65625 -1.203125 9.046875 -0.75 9.53125 -0.75 C 10.171875 -0.75 10.390625 -1.203125 10.5 -2.6875 C 10.328125 -2.765625 10.09375 -2.90625 9.921875 -3.078125 C 9.890625 -1.96875 9.8125 -1.484375 9.625 -1.484375 C 9.34375 -1.484375 9.09375 -1.921875 8.875 -2.6875 C 9.453125 -3.5625 9.921875 -4.59375 10.234375 -5.703125 L 9.59375 -5.875 C 9.375 -5.078125 9.0625 -4.34375 8.671875 -3.65625 C 8.53125 -4.453125 8.421875 -5.4375 8.34375 -6.5625 L 10.46875 -6.5625 L 10.46875 -7.265625 L 8.3125 -7.265625 C 8.28125 -7.859375 8.28125 -8.5 8.28125 -9.15625 L 7.53125 -9.15625 C 7.53125 -8.5 7.5625 -7.875 7.578125 -7.265625 L 5.46875 -7.265625 L 5.46875 -3.03125 C 5.46875 -2.59375 5.15625 -2.359375 4.96875 -2.265625 C 5.109375 -2.09375 5.265625 -1.75 5.328125 -1.53125 Z M 5.328125 -1.53125 "/>
</g>
<g id="glyph-3-7">
<path d="M 5.03125 -9.15625 C 5.015625 -8.28125 5.03125 -7.1875 4.859375 -6.03125 L 0.671875 -6.03125 L 0.671875 -5.1875 L 4.71875 -5.1875 C 4.28125 -3.125 3.203125 -1 0.46875 0.171875 C 0.703125 0.34375 0.953125 0.640625 1.09375 0.84375 C 3.75 -0.375 4.921875 -2.46875 5.46875 -4.5625 C 6.3125 -2.078125 7.71875 -0.15625 9.84375 0.84375 C 9.984375 0.609375 10.234375 0.265625 10.453125 0.09375 C 8.328125 -0.796875 6.90625 -2.78125 6.140625 -5.1875 L 10.28125 -5.1875 L 10.28125 -6.03125 L 5.734375 -6.03125 C 5.890625 -7.171875 5.90625 -8.265625 5.90625 -9.15625 Z M 5.03125 -9.15625 "/>
</g>
<g id="glyph-3-8">
<path d="M 1.71875 1.171875 C 2.859375 0.765625 3.59375 -0.125 3.59375 -1.3125 C 3.59375 -2.078125 3.265625 -2.5625 2.671875 -2.5625 C 2.21875 -2.5625 1.84375 -2.296875 1.84375 -1.78125 C 1.84375 -1.265625 2.21875 -1 2.65625 -1 L 2.84375 -1.03125 C 2.796875 -0.265625 2.3125 0.234375 1.46875 0.59375 Z M 1.71875 1.171875 "/>
</g>
<g id="glyph-3-9">
<path d="M 2.703125 -9.171875 C 2.25 -8.546875 1.375 -7.8125 0.609375 -7.359375 C 0.765625 -7.21875 0.984375 -6.953125 1.078125 -6.8125 C 1.90625 -7.3125 2.828125 -8.140625 3.4375 -8.890625 Z M 2.921875 -2.0625 L 2.921875 -0.390625 C 2.921875 0.453125 3.265625 0.671875 4.53125 0.671875 C 4.8125 0.671875 6.8125 0.671875 7.09375 0.671875 C 8.09375 0.671875 8.359375 0.390625 8.46875 -0.765625 C 8.25 -0.8125 7.890625 -0.921875 7.703125 -1.0625 C 7.65625 -0.1875 7.5625 -0.046875 7.03125 -0.046875 C 6.59375 -0.046875 4.90625 -0.046875 4.578125 -0.046875 C 3.875 -0.046875 3.765625 -0.09375 3.765625 -0.40625 L 3.765625 -2.0625 Z M 4.53125 -2.546875 C 5.125 -2.015625 5.796875 -1.25 6.109375 -0.734375 L 6.78125 -1.1875 C 6.453125 -1.703125 5.765625 -2.4375 5.171875 -2.953125 Z M 8.34375 -1.859375 C 8.78125 -1.171875 9.265625 -0.234375 9.46875 0.34375 L 10.234375 0.046875 C 10.015625 -0.53125 9.515625 -1.46875 9.0625 -2.125 Z M 1.625 -2.078125 C 1.359375 -1.4375 0.9375 -0.53125 0.5 0.046875 L 1.265625 0.421875 C 1.640625 -0.1875 2.0625 -1.09375 2.328125 -1.765625 Z M 2.875 -7.453125 C 2.40625 -6.625 1.421875 -5.6875 0.515625 -5.109375 C 0.640625 -4.96875 0.84375 -4.671875 0.953125 -4.5 C 1.28125 -4.71875 1.609375 -4.96875 1.921875 -5.25 L 1.921875 -2.6875 L 2.703125 -2.6875 L 2.703125 -6.015625 C 3.046875 -6.40625 3.359375 -6.796875 3.609375 -7.1875 Z M 4.5625 -7 L 4.5625 -3.703125 L 3.328125 -3.703125 L 3.328125 -2.984375 L 10.390625 -2.984375 L 10.390625 -3.703125 L 7.578125 -3.703125 L 7.578125 -5.578125 L 9.921875 -5.578125 L 9.921875 -6.296875 L 7.578125 -6.296875 L 7.578125 -7.875 L 10.09375 -7.875 L 10.09375 -8.578125 L 3.96875 -8.578125 L 3.96875 -7.875 L 6.765625 -7.875 L 6.765625 -3.703125 L 5.328125 -3.703125 L 5.328125 -7 Z M 4.5625 -7 "/>
</g>
<g id="glyph-3-10">
<path d="M 6.03125 -5.078125 L 6.03125 -1.40625 L 6.8125 -1.40625 L 6.8125 -5.078125 Z M 8.828125 -5.578125 L 8.828125 -0.171875 C 8.828125 -0.015625 8.78125 0.03125 8.578125 0.046875 C 8.390625 0.046875 7.734375 0.046875 7.03125 0.03125 C 7.125 0.265625 7.25 0.59375 7.28125 0.8125 C 8.21875 0.828125 8.8125 0.8125 9.15625 0.671875 C 9.515625 0.546875 9.625 0.3125 9.625 -0.171875 L 9.625 -5.578125 Z M 7.09375 -8.09375 L 8.953125 -8.09375 L 8.953125 -6.59375 L 7.09375 -6.59375 Z M 4.5 -8.09375 L 6.34375 -8.09375 L 6.34375 -6.59375 L 4.5 -6.59375 Z M 1.96875 -8.09375 L 3.75 -8.09375 L 3.75 -6.59375 L 1.96875 -6.59375 Z M 1.203125 -8.71875 L 1.203125 -5.953125 L 9.765625 -5.953125 L 9.765625 -8.71875 Z M 1.8125 -5.25 C 2.515625 -4.90625 3.453125 -4.375 3.90625 -4.03125 L 4.34375 -4.640625 C 3.875 -4.984375 2.921875 -5.46875 2.21875 -5.796875 Z M 2.5 0.8125 C 2.703125 0.625 3.046875 0.453125 5.296875 -0.515625 C 5.25 -0.703125 5.21875 -1.0625 5.21875 -1.296875 L 3.359375 -0.546875 L 3.359375 -3.65625 L 0.765625 -3.65625 L 0.765625 -2.890625 L 2.5625 -2.890625 L 2.5625 -0.734375 C 2.5625 -0.265625 2.28125 -0.015625 2.09375 0.09375 C 2.234375 0.265625 2.4375 0.625 2.5 0.8125 Z M 2.5 0.8125 "/>
</g>
<g id="glyph-3-11">
<path d="M 2.796875 -7.984375 L 8.078125 -7.984375 L 8.078125 -5.875 L 2.796875 -5.875 Z M 2 -8.71875 L 2 -5.125 L 8.9375 -5.125 L 8.9375 -8.71875 Z M 1.625 -2.203125 L 1.625 -1.5 L 4.984375 -1.5 L 4.984375 -0.171875 L 0.703125 -0.171875 L 0.703125 0.5625 L 10.203125 0.5625 L 10.203125 -0.171875 L 5.84375 -0.171875 L 5.84375 -1.5 L 9.296875 -1.5 L 9.296875 -2.203125 L 5.84375 -2.203125 L 5.84375 -3.453125 L 9.6875 -3.453125 L 9.6875 -4.1875 L 1.25 -4.1875 L 1.25 -3.453125 L 4.984375 -3.453125 L 4.984375 -2.203125 Z M 1.625 -2.203125 "/>
</g>
<g id="glyph-3-12">
<path d="M 1.890625 -6.875 C 2.328125 -6.0625 2.75 -5 2.90625 -4.359375 L 3.671875 -4.625 C 3.515625 -5.25 3.078125 -6.296875 2.640625 -7.09375 Z M 8.234375 -7.140625 C 7.96875 -6.34375 7.453125 -5.234375 7.046875 -4.546875 L 7.75 -4.3125 C 8.171875 -4.96875 8.6875 -6.015625 9.09375 -6.90625 Z M 0.5625 -3.796875 L 0.5625 -2.984375 L 5 -2.984375 L 5 0.859375 L 5.859375 0.859375 L 5.859375 -2.984375 L 10.34375 -2.984375 L 10.34375 -3.796875 L 5.859375 -3.796875 L 5.859375 -7.609375 L 9.734375 -7.609375 L 9.734375 -8.4375 L 1.140625 -8.4375 L 1.140625 -7.609375 L 5 -7.609375 L 5 -3.796875 Z M 0.5625 -3.796875 "/>
</g>
<g id="glyph-3-13">
<path d="M 4.796875 -8.921875 C 5.078125 -8.40625 5.40625 -7.703125 5.546875 -7.28125 L 0.734375 -7.28125 L 0.734375 -6.484375 L 3.71875 -6.484375 C 3.59375 -3.96875 3.3125 -1.140625 0.5 0.25 C 0.71875 0.40625 0.984375 0.6875 1.09375 0.890625 C 3.171875 -0.1875 3.984375 -2 4.34375 -3.9375 L 8.25 -3.9375 C 8.078125 -1.46875 7.859375 -0.421875 7.53125 -0.125 C 7.390625 -0.015625 7.25 0 7.015625 0 C 6.71875 0 5.953125 -0.015625 5.171875 -0.078125 C 5.328125 0.140625 5.4375 0.484375 5.46875 0.71875 C 6.1875 0.78125 6.921875 0.78125 7.296875 0.75 C 7.71875 0.734375 8 0.65625 8.25 0.375 C 8.671875 -0.046875 8.890625 -1.25 9.109375 -4.34375 C 9.125 -4.453125 9.140625 -4.734375 9.140625 -4.734375 L 4.46875 -4.734375 C 4.53125 -5.3125 4.578125 -5.90625 4.609375 -6.484375 L 10.203125 -6.484375 L 10.203125 -7.28125 L 5.609375 -7.28125 L 6.375 -7.609375 C 6.234375 -8.046875 5.890625 -8.71875 5.578125 -9.234375 Z M 4.796875 -8.921875 "/>
</g>
<g id="glyph-3-14">
<path d="M 5.078125 -6.5 C 5.40625 -6.015625 5.71875 -5.359375 5.828125 -4.921875 L 6.328125 -5.140625 C 6.21875 -5.5625 5.890625 -6.203125 5.546875 -6.671875 Z M 8.390625 -6.671875 C 8.203125 -6.203125 7.8125 -5.5 7.53125 -5.078125 L 7.96875 -4.890625 C 8.25 -5.296875 8.625 -5.921875 8.9375 -6.453125 Z M 0.453125 -1.40625 L 0.703125 -0.59375 C 1.59375 -0.953125 2.703125 -1.390625 3.765625 -1.8125 L 3.625 -2.546875 L 2.515625 -2.140625 L 2.515625 -5.734375 L 3.625 -5.734375 L 3.625 -6.5 L 2.515625 -6.5 L 2.515625 -9.03125 L 1.75 -9.03125 L 1.75 -6.5 L 0.578125 -6.5 L 0.578125 -5.734375 L 1.75 -5.734375 L 1.75 -1.859375 Z M 4.828125 -8.84375 C 5.109375 -8.453125 5.4375 -7.921875 5.578125 -7.578125 L 6.3125 -7.921875 C 6.15625 -8.25 5.828125 -8.765625 5.5 -9.140625 Z M 4.0625 -7.578125 L 4.0625 -3.953125 L 9.890625 -3.953125 L 9.890625 -7.578125 L 8.390625 -7.578125 C 8.6875 -7.96875 9.015625 -8.4375 9.3125 -8.890625 L 8.46875 -9.1875 C 8.265625 -8.703125 7.859375 -8.03125 7.5625 -7.578125 Z M 4.75 -6.984375 L 6.65625 -6.984375 L 6.65625 -4.546875 L 4.75 -4.546875 Z M 7.296875 -6.984375 L 9.1875 -6.984375 L 9.1875 -4.546875 L 7.296875 -4.546875 Z M 5.390625 -1.125 L 8.609375 -1.125 L 8.609375 -0.3125 L 5.390625 -0.3125 Z M 5.390625 -1.734375 L 5.390625 -2.65625 L 8.609375 -2.65625 L 8.609375 -1.734375 Z M 4.640625 -3.265625 L 4.640625 0.84375 L 5.390625 0.84375 L 5.390625 0.3125 L 8.609375 0.3125 L 8.609375 0.84375 L 9.375 0.84375 L 9.375 -3.265625 Z M 4.640625 -3.265625 "/>
</g>
<g id="glyph-3-15">
<path d="M 8.390625 -8.921875 C 7.4375 -7.78125 5.84375 -6.75 4.3125 -6.125 C 4.515625 -5.96875 4.84375 -5.640625 5 -5.453125 C 6.46875 -6.1875 8.125 -7.3125 9.203125 -8.578125 Z M 0.609375 -4.890625 L 0.609375 -4.078125 L 2.703125 -4.078125 L 2.703125 -0.59375 C 2.703125 -0.15625 2.453125 0 2.25 0.078125 C 2.390625 0.25 2.546875 0.609375 2.59375 0.8125 C 2.859375 0.640625 3.265625 0.515625 6.265625 -0.296875 C 6.21875 -0.46875 6.1875 -0.8125 6.1875 -1.0625 L 3.5625 -0.421875 L 3.5625 -4.078125 L 5.265625 -4.078125 C 6.15625 -1.828125 7.703125 -0.203125 9.96875 0.5625 C 10.09375 0.3125 10.34375 -0.03125 10.546875 -0.21875 C 8.453125 -0.8125 6.921875 -2.203125 6.125 -4.078125 L 10.296875 -4.078125 L 10.296875 -4.890625 L 3.5625 -4.890625 L 3.5625 -9.109375 L 2.703125 -9.109375 L 2.703125 -4.890625 Z M 0.609375 -4.890625 "/>
</g>
<g id="glyph-4-0">
<path d="M 7.875 -2.75 C 8.078125 -2.75 8.296875 -2.75 8.296875 -2.984375 C 8.296875 -3.234375 8.078125 -3.234375 7.875 -3.234375 L 1.40625 -3.234375 C 1.203125 -3.234375 0.984375 -3.234375 0.984375 -2.984375 C 0.984375 -2.75 1.203125 -2.75 1.40625 -2.75 Z M 7.875 -2.75 "/>
</g>
<g id="glyph-5-0">
<path d="M 2.25 -1.625 C 2.375 -1.75 2.703125 -2.015625 2.84375 -2.125 C 3.328125 -2.578125 3.796875 -3.015625 3.796875 -3.734375 C 3.796875 -4.6875 3 -5.296875 2.015625 -5.296875 C 1.046875 -5.296875 0.421875 -4.578125 0.421875 -3.859375 C 0.421875 -3.46875 0.734375 -3.421875 0.84375 -3.421875 C 1.015625 -3.421875 1.265625 -3.53125 1.265625 -3.84375 C 1.265625 -4.25 0.859375 -4.25 0.765625 -4.25 C 1 -4.84375 1.53125 -5.03125 1.921875 -5.03125 C 2.65625 -5.03125 3.046875 -4.40625 3.046875 -3.734375 C 3.046875 -2.90625 2.46875 -2.296875 1.515625 -1.34375 L 0.515625 -0.296875 C 0.421875 -0.21875 0.421875 -0.203125 0.421875 0 L 3.5625 0 L 3.796875 -1.421875 L 3.546875 -1.421875 C 3.53125 -1.265625 3.46875 -0.875 3.375 -0.71875 C 3.328125 -0.65625 2.71875 -0.65625 2.59375 -0.65625 L 1.171875 -0.65625 Z M 2.25 -1.625 "/>
</g>
<g id="glyph-6-0">
<path d="M 6 -4.703125 C 6.5625 -3.859375 7.09375 -2.71875 7.296875 -2.015625 L 8.078125 -2.40625 C 7.890625 -3.125 7.3125 -4.21875 6.734375 -5.046875 Z M 1.09375 -5.421875 C 1.8125 -4.75 2.59375 -3.984375 3.28125 -3.1875 C 2.5625 -1.65625 1.625 -0.5 0.53125 0.203125 C 0.75 0.375 1.03125 0.71875 1.171875 0.9375 C 2.265625 0.140625 3.203125 -0.953125 3.9375 -2.421875 C 4.46875 -1.75 4.90625 -1.125 5.203125 -0.578125 L 5.921875 -1.25 C 5.5625 -1.859375 5.015625 -2.609375 4.34375 -3.359375 C 4.90625 -4.734375 5.296875 -6.375 5.5 -8.3125 L 4.90625 -8.46875 L 4.75 -8.4375 L 0.84375 -8.4375 L 0.84375 -7.59375 L 4.515625 -7.59375 C 4.34375 -6.296875 4.046875 -5.140625 3.671875 -4.109375 C 3.03125 -4.765625 2.359375 -5.421875 1.71875 -5.96875 Z M 9.140625 -10.046875 L 9.140625 -7.15625 L 5.765625 -7.15625 L 5.765625 -6.296875 L 9.140625 -6.296875 L 9.140625 -0.265625 C 9.140625 -0.046875 9.0625 0.015625 8.859375 0.03125 C 8.65625 0.03125 7.984375 0.03125 7.234375 0 C 7.34375 0.28125 7.484375 0.6875 7.53125 0.9375 C 8.546875 0.9375 9.15625 0.921875 9.515625 0.765625 C 9.890625 0.609375 10.03125 0.328125 10.03125 -0.265625 L 10.03125 -6.296875 L 11.46875 -6.296875 L 11.46875 -7.15625 L 10.03125 -7.15625 L 10.03125 -10.046875 Z M 9.140625 -10.046875 "/>
</g>
<g id="glyph-6-1">
<path d="M 6.125 -5.375 C 5.84375 -3.890625 5.359375 -2.390625 4.6875 -1.4375 C 4.890625 -1.328125 5.265625 -1.09375 5.421875 -0.96875 C 6.09375 -2.015625 6.640625 -3.59375 6.953125 -5.21875 Z M 9.34375 -5.265625 C 9.875 -3.953125 10.375 -2.21875 10.546875 -1.09375 L 11.375 -1.34375 C 11.1875 -2.46875 10.6875 -4.171875 10.140625 -5.5 Z M 6.359375 -10.015625 C 6.078125 -8.484375 5.578125 -6.96875 4.875 -5.921875 L 4.875 -6.609375 L 3.328125 -6.609375 L 3.328125 -8.734375 C 3.90625 -8.875 4.453125 -9.046875 4.890625 -9.234375 L 4.34375 -9.9375 C 3.484375 -9.546875 2.015625 -9.203125 0.75 -8.984375 C 0.84375 -8.78125 0.96875 -8.484375 1 -8.296875 C 1.484375 -8.359375 2 -8.453125 2.5 -8.546875 L 2.5 -6.609375 L 0.640625 -6.609375 L 0.640625 -5.765625 L 2.390625 -5.765625 C 1.9375 -4.40625 1.125 -2.84375 0.390625 -2 C 0.53125 -1.796875 0.75 -1.453125 0.84375 -1.234375 C 1.421875 -1.953125 2.015625 -3.125 2.5 -4.328125 L 2.5 0.96875 L 3.328125 0.96875 L 3.328125 -4.421875 C 3.71875 -3.890625 4.171875 -3.234375 4.359375 -2.875 L 4.890625 -3.578125 C 4.65625 -3.890625 3.6875 -4.96875 3.328125 -5.3125 L 3.328125 -5.765625 L 4.75 -5.765625 L 4.703125 -5.703125 C 4.921875 -5.59375 5.3125 -5.359375 5.46875 -5.234375 C 5.90625 -5.875 6.296875 -6.6875 6.609375 -7.609375 L 7.8125 -7.609375 L 7.8125 -0.140625 C 7.8125 0.015625 7.75 0.0625 7.609375 0.0625 C 7.453125 0.078125 6.921875 0.078125 6.359375 0.0625 C 6.484375 0.28125 6.625 0.671875 6.6875 0.90625 C 7.421875 0.90625 7.9375 0.890625 8.265625 0.75 C 8.578125 0.609375 8.703125 0.359375 8.703125 -0.140625 L 8.703125 -7.609375 L 10.3125 -7.609375 C 10.140625 -7.1875 9.890625 -6.703125 9.6875 -6.28125 L 10.484375 -6.09375 C 10.8125 -6.78125 11.171875 -7.59375 11.453125 -8.328125 L 10.859375 -8.5 L 10.734375 -8.453125 L 6.890625 -8.453125 C 7 -8.90625 7.125 -9.375 7.21875 -9.84375 Z M 6.359375 -10.015625 "/>
</g>
</g>
</defs>
<path fill="none" stroke-width="0.3985" stroke-linecap="butt" stroke-linejoin="miter" stroke="rgb(0%, 0%, 0%)" stroke-opacity="1" stroke-miterlimit="10" d="M -68.031563 0.00171875 L 67.6325 0.00171875 " transform="matrix(1, 0, 0, -1, 68.43, 204.49)"/>
<path fill="none" stroke-width="0.3985" stroke-linecap="round" stroke-linejoin="round" stroke="rgb(0%, 0%, 0%)" stroke-opacity="1" stroke-miterlimit="10" d="M -2.071924 2.392344 C -1.693017 0.954844 -0.849267 0.279063 -0.00161125 0.00171875 C -0.849267 -0.279531 -1.693017 -0.955312 -2.071924 -2.392812 " transform="matrix(1, 0, 0, -1, 136.26333, 204.49)"/>
<g fill="rgb(0%, 0%, 0%)" fill-opacity="1">
<use xlink:href="#glyph-0-0" x="141.439" y="207.479"/>
</g>
<g fill="rgb(0%, 0%, 0%)" fill-opacity="1">
<use xlink:href="#glyph-1-0" x="140.647" y="207.479"/>
</g>
<path fill="none" stroke-width="0.3985" stroke-linecap="butt" stroke-linejoin="miter" stroke="rgb(0%, 0%, 0%)" stroke-opacity="1" stroke-miterlimit="10" d="M -0.0003125 -11.338125 L -0.0003125 112.99 " transform="matrix(1, 0, 0, -1, 68.43, 204.49)"/>
<path fill="none" stroke-width="0.3985" stroke-linecap="round" stroke-linejoin="round" stroke="rgb(0%, 0%, 0%)" stroke-opacity="1" stroke-miterlimit="10" d="M -2.0734 2.390938 C -1.694494 0.957344 -0.850744 0.277656 0.00081875 0.0003125 C -0.850744 -0.277031 -1.694494 -0.956719 -2.0734 -2.390312 " transform="matrix(0, -1, -1, 0, 68.43, 91.3016)"/>
<g fill="rgb(0%, 0%, 0%)" fill-opacity="1">
<use xlink:href="#glyph-2-0" x="43.301" y="83.93"/>
<use xlink:href="#glyph-2-1" x="53.46292" y="83.93"/>
<use xlink:href="#glyph-2-2" x="59.966549" y="83.93"/>
</g>
<g fill="rgb(0%, 0%, 0%)" fill-opacity="1">
<use xlink:href="#glyph-0-1" x="66.937" y="83.93"/>
</g>
<g fill="rgb(0%, 0%, 0%)" fill-opacity="1">
<use xlink:href="#glyph-1-0" x="71.489" y="83.93"/>
</g>
<g fill="rgb(0%, 0%, 0%)" fill-opacity="1">
<use xlink:href="#glyph-1-1" x="77.610062" y="83.93"/>
</g>
<g fill="rgb(0%, 0%, 0%)" fill-opacity="1">
<use xlink:href="#glyph-0-0" x="83.662" y="83.93"/>
</g>
<g fill="rgb(0%, 0%, 0%)" fill-opacity="1">
<use xlink:href="#glyph-1-0" x="82.87" y="83.93"/>
</g>
<g fill="rgb(0%, 0%, 0%)" fill-opacity="1">
<use xlink:href="#glyph-0-2" x="89.006" y="83.93"/>
</g>
<path fill="none" stroke-width="0.79701" stroke-linecap="butt" stroke-linejoin="miter" stroke="rgb(0%, 0%, 100%)" stroke-opacity="1" stroke-miterlimit="10" d="M -68.031563 204.099375 C -68.031563 204.099375 -63.937813 180.150156 -62.363594 171.497813 C -60.789375 162.845469 -58.265938 149.599375 -56.695625 141.736094 C -55.121406 133.868906 -52.597969 121.884531 -51.02375 114.806406 C -49.449531 107.724375 -46.93 97.001719 -45.355781 90.70875 C -43.781563 84.415781 -41.258125 74.954844 -39.683906 69.450938 C -38.113594 63.943125 -35.590156 55.743906 -34.015938 51.025156 C -32.441719 46.306406 -29.918281 39.365 -28.347969 35.435313 C -26.77375 31.501719 -24.250313 25.822031 -22.676094 22.6775 C -21.105781 19.532969 -18.582344 15.115 -17.008125 12.755625 C -15.433906 10.39625 -12.910469 7.243906 -11.340156 5.669688 C -9.765938 4.095469 -7.2425 2.204844 -5.668281 1.415781 C -4.097969 0.630625 -1.574531 0.00171875 -0.0003125 0.00171875 C 1.573906 0.00171875 4.097344 0.630625 5.667656 1.415781 C 7.241875 2.204844 9.765312 4.095469 11.339531 5.669688 C 12.91375 7.243906 15.433281 10.39625 17.0075 12.755625 C 18.581719 15.115 21.105156 19.532969 22.679375 22.6775 C 24.249687 25.822031 26.773125 31.501719 28.347344 35.435313 C 29.921562 39.365 32.445 46.306406 34.015312 51.025156 C 35.589531 55.743906 38.112969 63.943125 39.687187 69.450938 C 41.2575 74.954844 43.780937 84.415781 45.355156 90.70875 C 46.929375 97.001719 49.452812 107.724375 51.023125 114.806406 C 52.597344 121.884531 55.120781 133.868906 56.695 141.736094 C 58.265312 149.599375 60.78875 162.845469 62.362969 171.497813 C 63.937187 180.150156 68.030937 204.099375 68.030937 204.099375 " transform="matrix(1, 0, 0, -1, 68.43, 204.49)"/>
<path fill="none" stroke-width="0.3985" stroke-linecap="butt" stroke-linejoin="miter" stroke="rgb(0%, 0%, 0%)" stroke-opacity="1" stroke-dasharray="2.98883 2.98883" stroke-miterlimit="10" d="M -0.0003125 0.00171875 L -0.0003125 0.00171875 " transform="matrix(1, 0, 0, -1, 68.43, 204.49)"/>
<g fill="rgb(0%, 0%, 0%)" fill-opacity="1">
<use xlink:href="#glyph-1-0" x="47.759" y="216.251"/>
</g>
<g fill="rgb(0%, 0%, 0%)" fill-opacity="1">
<use xlink:href="#glyph-0-3" x="57.217" y="216.251"/>
</g>
<g fill="rgb(0%, 0%, 0%)" fill-opacity="1">
<use xlink:href="#glyph-0-4" x="69.626498" y="216.251"/>
</g>
<g fill="rgb(0%, 0%, 100%)" fill-opacity="1">
<use xlink:href="#glyph-3-0" x="103.305" y="117.904"/>
<use xlink:href="#glyph-3-1" x="114.2141" y="117.904"/>
<use xlink:href="#glyph-3-2" x="125.1232" y="117.904"/>
<use xlink:href="#glyph-3-3" x="136.0323" y="117.904"/>
</g>
<g fill="rgb(100%, 0%, 0%)" fill-opacity="1">
<use xlink:href="#glyph-3-4" x="36.991" y="197.182"/>
<use xlink:href="#glyph-3-5" x="47.9001" y="197.182"/>
<use xlink:href="#glyph-3-6" x="58.8092" y="197.182"/>
<use xlink:href="#glyph-3-7" x="69.7183" y="197.182"/>
<use xlink:href="#glyph-3-8" x="80.6274" y="197.182"/>
<use xlink:href="#glyph-3-9" x="91.5365" y="197.182"/>
<use xlink:href="#glyph-3-10" x="102.4456" y="197.182"/>
<use xlink:href="#glyph-3-11" x="113.3547" y="197.182"/>
<use xlink:href="#glyph-3-12" x="124.2638" y="197.182"/>
<use xlink:href="#glyph-3-13" x="135.1729" y="197.182"/>
<use xlink:href="#glyph-3-14" x="146.082" y="197.182"/>
<use xlink:href="#glyph-3-15" x="156.9911" y="197.182"/>
</g>
<path fill="none" stroke-width="0.79701" stroke-linecap="butt" stroke-linejoin="miter" stroke="rgb(100%, 0%, 0%)" stroke-opacity="1" stroke-miterlimit="10" d="M 23.034844 12.0525 L 34.015312 34.017344 " transform="matrix(1, 0, 0, -1, 68.43, 204.49)"/>
<path fill="none" stroke-width="0.79701" stroke-linecap="round" stroke-linejoin="round" stroke="rgb(100%, 0%, 0%)" stroke-opacity="1" stroke-miterlimit="10" d="M -2.548622 3.110217 C -2.083919 1.246092 -1.044422 0.363814 -0.00142618 -0.00133223 C -1.047923 -0.362966 -2.083941 -1.243478 -2.552172 -3.111089 " transform="matrix(-0.44717, 0.89436, 0.89436, 0.44717, 91.28571, 192.79484)"/>
<g fill="rgb(100%, 0%, 0%)" fill-opacity="1">
<use xlink:href="#glyph-0-1" x="106.829" y="173.717"/>
</g>
<g fill="rgb(100%, 0%, 0%)" fill-opacity="1">
<use xlink:href="#glyph-0-0" x="112.161019" y="173.717"/>
</g>
<g fill="rgb(100%, 0%, 0%)" fill-opacity="1">
<use xlink:href="#glyph-1-0" x="111.382" y="173.717"/>
</g>
<g fill="rgb(100%, 0%, 0%)" fill-opacity="1">
<use xlink:href="#glyph-4-0" x="120.175" y="173.717"/>
</g>
<g fill="rgb(100%, 0%, 0%)" fill-opacity="1">
<use xlink:href="#glyph-1-0" x="132.13" y="173.717"/>
</g>
<g fill="rgb(100%, 0%, 0%)" fill-opacity="1">
<use xlink:href="#glyph-0-2" x="138.267" y="173.717"/>
</g>
<g fill="rgb(100%, 0%, 0%)" fill-opacity="1">
<use xlink:href="#glyph-5-0" x="142.819" y="169.378"/>
</g>
<path fill="none" stroke-width="0.79701" stroke-linecap="butt" stroke-linejoin="miter" stroke="rgb(100%, 0%, 0%)" stroke-opacity="1" stroke-miterlimit="10" d="M -23.035469 12.0525 L -34.015938 34.017344 " transform="matrix(1, 0, 0, -1, 68.43, 204.49)"/>
<path fill="none" stroke-width="0.79701" stroke-linecap="round" stroke-linejoin="round" stroke="rgb(100%, 0%, 0%)" stroke-opacity="1" stroke-miterlimit="10" d="M -2.552452 3.11053 C -2.084221 1.242919 -1.048202 0.362407 -0.0017057 0.000773167 C -1.044702 -0.364373 -2.084199 -1.246651 -2.548902 -3.110776 " transform="matrix(0.44717, 0.89436, 0.89436, -0.44717, 45.57429, 192.79484)"/>
<g fill="rgb(100%, 0%, 0%)" fill-opacity="1">
<use xlink:href="#glyph-6-0" x="6.12" y="175.011"/>
<use xlink:href="#glyph-6-1" x="18.0752" y="175.011"/>
</g>
</svg>
