<?xml version="1.0" encoding="UTF-8"?>
<svg xmlns="http://www.w3.org/2000/svg" xmlns:xlink="http://www.w3.org/1999/xlink" width="195.76" height="182.7" viewBox="0 0 195.76 182.7">
<defs>
<g>
<g id="glyph-0-0">
<path d="M 8 -4.875 L 8 -0.921875 L 8.65625 -0.921875 L 8.65625 -4.875 Z M 9.390625 -5.28125 L 9.390625 -0.046875 C 9.390625 0.0625 9.34375 0.09375 9.234375 0.109375 C 9.078125 0.109375 8.65625 0.109375 8.140625 0.09375 C 8.25 0.296875 8.34375 0.59375 8.359375 0.78125 C 9.015625 0.78125 9.4375 0.765625 9.703125 0.65625 C 9.984375 0.53125 10.0625 0.34375 10.0625 -0.046875 L 10.0625 -5.28125 Z M 0.78125 -3.59375 C 0.859375 -3.6875 1.171875 -3.75 1.53125 -3.75 L 2.390625 -3.75 L 2.390625 -2.25 C 1.65625 -2.078125 0.984375 -1.921875 0.453125 -1.828125 L 0.640625 -1.046875 L 2.390625 -1.5 L 2.390625 0.859375 L 3.109375 0.859375 L 3.109375 -1.671875 L 4.015625 -1.921875 L 3.953125 -2.609375 L 3.109375 -2.40625 L 3.109375 -3.75 L 3.984375 -3.75 L 3.984375 -4.5 L 3.109375 -4.5 L 3.109375 -6.15625 L 2.390625 -6.15625 L 2.390625 -4.5 L 1.4375 -4.5 C 1.71875 -5.265625 2 -6.171875 2.21875 -7.109375 L 4 -7.109375 L 4 -7.859375 L 2.359375 -7.859375 C 2.453125 -8.25 2.515625 -8.640625 2.578125 -9.015625 L 1.8125 -9.15625 C 1.765625 -8.71875 1.71875 -8.28125 1.640625 -7.859375 L 0.515625 -7.859375 L 0.515625 -7.109375 L 1.5 -7.109375 C 1.296875 -6.203125 1.09375 -5.46875 1 -5.1875 C 0.84375 -4.6875 0.703125 -4.34375 0.53125 -4.28125 C 0.609375 -4.09375 0.734375 -3.75 0.78125 -3.59375 Z M 7.1875 -9.1875 C 6.46875 -8.046875 5.109375 -6.96875 3.796875 -6.359375 C 3.984375 -6.1875 4.203125 -5.9375 4.328125 -5.75 C 4.625 -5.90625 4.921875 -6.078125 5.203125 -6.265625 L 5.203125 -5.796875 L 9.234375 -5.796875 L 9.234375 -6.34375 C 9.515625 -6.171875 9.8125 -6.015625 10.09375 -5.859375 C 10.203125 -6.078125 10.421875 -6.34375 10.625 -6.5 C 9.484375 -6.984375 8.4375 -7.609375 7.609375 -8.546875 L 7.859375 -8.90625 Z M 5.515625 -6.484375 C 6.125 -6.921875 6.703125 -7.453125 7.1875 -8 C 7.75 -7.390625 8.34375 -6.90625 9.015625 -6.484375 Z M 6.703125 -4.421875 L 6.703125 -3.5625 L 5.203125 -3.5625 L 5.203125 -4.421875 Z M 4.53125 -5.078125 L 4.53125 0.828125 L 5.203125 0.828125 L 5.203125 -1.421875 L 6.703125 -1.421875 L 6.703125 0.015625 C 6.703125 0.109375 6.671875 0.125 6.59375 0.140625 C 6.484375 0.140625 6.1875 0.140625 5.859375 0.125 C 5.953125 0.328125 6.046875 0.625 6.0625 0.8125 C 6.53125 0.8125 6.875 0.8125 7.09375 0.6875 C 7.328125 0.5625 7.390625 0.359375 7.390625 0.015625 L 7.390625 -5.078125 Z M 5.203125 -2.9375 L 6.703125 -2.9375 L 6.703125 -2.046875 L 5.203125 -2.046875 Z M 5.203125 -2.9375 "/>
</g>
<g id="glyph-0-1">
<path d="M 3.21875 -8.234375 C 3.9375 -7.734375 4.5 -7.125 4.96875 -6.453125 C 4.265625 -3.34375 2.90625 -1.125 0.453125 0.140625 C 0.671875 0.296875 1.046875 0.625 1.203125 0.796875 C 3.40625 -0.484375 4.8125 -2.5 5.640625 -5.359375 C 6.84375 -3.15625 7.609375 -0.625 10.109375 0.765625 C 10.15625 0.5 10.375 0.0625 10.515625 -0.15625 C 6.875 -2.328125 7.203125 -6.4375 3.71875 -8.9375 Z M 3.21875 -8.234375 "/>
</g>
<g id="glyph-0-2">
<path d="M 1.140625 -3.71875 L 1.140625 0.234375 L 8.875 0.234375 L 8.875 0.84375 L 9.765625 0.84375 L 9.765625 -3.71875 L 8.875 -3.71875 L 8.875 -0.59375 L 5.875 -0.59375 L 5.875 -4.40625 L 9.328125 -4.40625 L 9.328125 -8.171875 L 8.4375 -8.171875 L 8.4375 -5.203125 L 5.875 -5.203125 L 5.875 -9.15625 L 4.984375 -9.15625 L 4.984375 -5.203125 L 2.484375 -5.203125 L 2.484375 -8.171875 L 1.640625 -8.171875 L 1.640625 -4.40625 L 4.984375 -4.40625 L 4.984375 -0.59375 L 2.046875 -0.59375 L 2.046875 -3.71875 Z M 1.140625 -3.71875 "/>
</g>
<g id="glyph-0-3">
<path d="M 5.984375 -4.375 C 5.234375 -3.84375 3.84375 -3.359375 2.765625 -3.09375 C 2.96875 -2.9375 3.171875 -2.6875 3.296875 -2.515625 C 4.40625 -2.828125 5.78125 -3.375 6.65625 -4.015625 Z M 6.921875 -3.09375 C 5.96875 -2.390625 4.15625 -1.8125 2.609375 -1.53125 C 2.765625 -1.359375 2.96875 -1.09375 3.078125 -0.890625 C 4.71875 -1.25 6.515625 -1.890625 7.609375 -2.765625 Z M 8.296875 -1.9375 C 7.078125 -0.75 4.609375 -0.09375 1.921875 0.1875 C 2.078125 0.375 2.234375 0.671875 2.328125 0.890625 C 5.125 0.546875 7.671875 -0.203125 9.046875 -1.578125 Z M 1.953125 -6.453125 C 2.203125 -6.53125 2.546875 -6.5625 4.40625 -6.65625 C 4.25 -6.296875 4.078125 -5.96875 3.875 -5.640625 L 0.578125 -5.640625 L 0.578125 -4.90625 L 3.34375 -4.90625 C 2.578125 -3.984375 1.578125 -3.265625 0.421875 -2.765625 C 0.609375 -2.609375 0.921875 -2.28125 1.046875 -2.109375 C 2.359375 -2.765625 3.515625 -3.6875 4.375 -4.90625 L 6.609375 -4.90625 C 7.421875 -3.765625 8.734375 -2.71875 9.984375 -2.171875 C 10.09375 -2.375 10.359375 -2.6875 10.53125 -2.84375 C 9.453125 -3.25 8.296875 -4.03125 7.53125 -4.90625 L 10.359375 -4.90625 L 10.359375 -5.640625 L 4.828125 -5.640625 C 5.015625 -5.984375 5.1875 -6.34375 5.328125 -6.703125 L 8.390625 -6.84375 C 8.671875 -6.59375 8.90625 -6.359375 9.078125 -6.15625 L 9.765625 -6.640625 C 9.15625 -7.3125 7.9375 -8.21875 6.953125 -8.828125 L 6.3125 -8.40625 C 6.734375 -8.140625 7.1875 -7.8125 7.625 -7.484375 L 3.40625 -7.328125 C 4.09375 -7.75 4.78125 -8.25 5.4375 -8.8125 L 4.703125 -9.21875 C 3.921875 -8.453125 2.828125 -7.75 2.484375 -7.5625 C 2.1875 -7.375 1.9375 -7.25 1.71875 -7.234375 C 1.796875 -7.015625 1.90625 -6.625 1.953125 -6.453125 Z M 1.953125 -6.453125 "/>
</g>
<g id="glyph-0-4">
<path d="M 4.828125 -8.953125 C 4.640625 -8.53125 4.28125 -7.890625 4.015625 -7.5 L 4.546875 -7.234375 C 4.828125 -7.609375 5.203125 -8.140625 5.515625 -8.65625 Z M 0.953125 -8.65625 C 1.25 -8.1875 1.53125 -7.59375 1.640625 -7.203125 L 2.25 -7.484375 C 2.15625 -7.875 1.859375 -8.46875 1.5625 -8.890625 Z M 4.46875 -2.828125 C 4.21875 -2.265625 3.875 -1.78125 3.453125 -1.375 C 3.046875 -1.578125 2.625 -1.78125 2.21875 -1.96875 C 2.359375 -2.21875 2.546875 -2.515625 2.6875 -2.828125 Z M 1.203125 -1.671875 C 1.734375 -1.46875 2.328125 -1.1875 2.875 -0.90625 C 2.1875 -0.40625 1.34375 -0.046875 0.453125 0.15625 C 0.59375 0.3125 0.765625 0.59375 0.84375 0.78125 C 1.84375 0.515625 2.765625 0.09375 3.5625 -0.546875 C 3.921875 -0.328125 4.25 -0.125 4.5 0.0625 L 5.015625 -0.46875 C 4.765625 -0.640625 4.453125 -0.84375 4.09375 -1.03125 C 4.671875 -1.65625 5.125 -2.421875 5.40625 -3.375 L 4.953125 -3.5625 L 4.828125 -3.515625 L 3.03125 -3.515625 L 3.265625 -4.09375 L 2.546875 -4.21875 C 2.46875 -4 2.359375 -3.765625 2.25 -3.515625 L 0.765625 -3.515625 L 0.765625 -2.828125 L 1.90625 -2.828125 C 1.671875 -2.40625 1.421875 -2 1.203125 -1.671875 Z M 2.796875 -9.171875 L 2.796875 -7.125 L 0.546875 -7.125 L 0.546875 -6.453125 L 2.546875 -6.453125 C 2.03125 -5.75 1.1875 -5.078125 0.421875 -4.75 C 0.59375 -4.59375 0.78125 -4.3125 0.875 -4.125 C 1.53125 -4.484375 2.25 -5.09375 2.796875 -5.734375 L 2.796875 -4.40625 L 3.5625 -4.40625 L 3.5625 -5.890625 C 4.09375 -5.5 4.75 -5 5.03125 -4.75 L 5.484375 -5.328125 C 5.21875 -5.515625 4.265625 -6.125 3.734375 -6.453125 L 5.796875 -6.453125 L 5.796875 -7.125 L 3.5625 -7.125 L 3.5625 -9.171875 Z M 6.859375 -9.078125 C 6.59375 -7.15625 6.09375 -5.328125 5.25 -4.171875 C 5.421875 -4.0625 5.734375 -3.8125 5.875 -3.671875 C 6.15625 -4.078125 6.390625 -4.5625 6.609375 -5.09375 C 6.84375 -4.03125 7.171875 -3.03125 7.5625 -2.171875 C 6.953125 -1.140625 6.109375 -0.34375 4.921875 0.234375 C 5.078125 0.40625 5.296875 0.734375 5.375 0.90625 C 6.484375 0.3125 7.328125 -0.453125 7.96875 -1.40625 C 8.515625 -0.484375 9.1875 0.265625 10.046875 0.78125 C 10.171875 0.5625 10.421875 0.28125 10.59375 0.125 C 9.6875 -0.359375 8.96875 -1.15625 8.40625 -2.15625 C 8.984375 -3.28125 9.359375 -4.640625 9.59375 -6.28125 L 10.34375 -6.28125 L 10.34375 -7.046875 L 7.234375 -7.046875 C 7.390625 -7.65625 7.515625 -8.296875 7.609375 -8.953125 Z M 8.828125 -6.28125 C 8.65625 -5.03125 8.390625 -3.9375 8 -3.015625 C 7.578125 -3.984375 7.28125 -5.109375 7.0625 -6.28125 Z M 8.828125 -6.28125 "/>
</g>
<g id="glyph-0-5">
<path d="M 2.71875 -7.25 L 8.140625 -7.25 L 8.140625 -6.65625 L 2.71875 -6.65625 Z M 2.71875 -8.328125 L 8.140625 -8.328125 L 8.140625 -7.734375 L 2.71875 -7.734375 Z M 1.9375 -8.8125 L 1.9375 -6.15625 L 8.96875 -6.15625 L 8.96875 -8.8125 Z M 0.5625 -5.6875 L 0.5625 -5.078125 L 10.34375 -5.078125 L 10.34375 -5.6875 Z M 2.515625 -2.984375 L 5.03125 -2.984375 L 5.03125 -2.34375 L 2.515625 -2.34375 Z M 5.828125 -2.984375 L 8.46875 -2.984375 L 8.46875 -2.34375 L 5.828125 -2.34375 Z M 2.515625 -4.0625 L 5.03125 -4.0625 L 5.03125 -3.453125 L 2.515625 -3.453125 Z M 5.828125 -4.0625 L 8.46875 -4.0625 L 8.46875 -3.453125 L 5.828125 -3.453125 Z M 0.515625 -0.03125 L 0.515625 0.59375 L 10.421875 0.59375 L 10.421875 -0.03125 L 5.828125 -0.03125 L 5.828125 -0.671875 L 9.515625 -0.671875 L 9.515625 -1.25 L 5.828125 -1.25 L 5.828125 -1.84375 L 9.28125 -1.84375 L 9.28125 -4.578125 L 1.734375 -4.578125 L 1.734375 -1.84375 L 5.03125 -1.84375 L 5.03125 -1.25 L 1.421875 -1.25 L 1.421875 -0.671875 L 5.03125 -0.671875 L 5.03125 -0.03125 Z M 0.515625 -0.03125 "/>
</g>
<g id="glyph-1-0">
<path d="M 1.96875 -3.9375 L 1.96875 -4.84375 L 1.0625 -4.84375 L 1.0625 -3.9375 Z M 1.96875 0 L 1.96875 -0.90625 L 1.0625 -0.90625 L 1.0625 0 Z M 1.96875 0 "/>
</g>
<g id="glyph-1-1">
<path d="M 4.984375 -6.453125 L 4.984375 -7.15625 L 0.453125 -7.15625 L 0.453125 -6.375 L 2.53125 -6.375 C 2.65625 -6.375 2.796875 -6.390625 2.921875 -6.390625 L 4.25 -6.390625 C 2.625 -4.609375 1.65625 -2.4375 1.65625 0.125 L 2.578125 0.125 C 2.578125 -3.15625 4.140625 -5.484375 4.984375 -6.453125 Z M 4.984375 -6.453125 "/>
</g>
<g id="glyph-1-2">
<path d="M 4.984375 -1.96875 C 4.984375 -2.953125 4.21875 -3.625 3.484375 -3.875 C 4.453125 -4.1875 4.828125 -4.90625 4.828125 -5.484375 C 4.828125 -6.515625 3.90625 -7.390625 2.71875 -7.390625 C 1.5 -7.390625 0.609375 -6.484375 0.609375 -5.484375 C 0.609375 -4.90625 0.984375 -4.1875 1.953125 -3.875 C 1.171875 -3.59375 0.453125 -2.90625 0.453125 -1.96875 C 0.453125 -0.78125 1.46875 0.234375 2.71875 0.234375 C 4.015625 0.234375 4.984375 -0.8125 4.984375 -1.96875 Z M 4.0625 -5.484375 C 4.0625 -4.703125 3.515625 -4.203125 2.71875 -4.203125 C 1.890625 -4.203125 1.375 -4.734375 1.375 -5.484375 C 1.375 -6.234375 1.90625 -6.765625 2.71875 -6.765625 C 3.578125 -6.765625 4.0625 -6.1875 4.0625 -5.484375 Z M 4.09375 -1.96875 C 4.09375 -0.921875 3.421875 -0.421875 2.71875 -0.421875 C 1.96875 -0.421875 1.34375 -0.953125 1.34375 -1.96875 C 1.34375 -3.125 2.125 -3.53125 2.71875 -3.53125 C 3.34375 -3.53125 4.09375 -3.09375 4.09375 -1.96875 Z M 4.09375 -1.96875 "/>
</g>
<g id="glyph-1-3">
<path d="M 5.140625 -1.859375 L 5.140625 -2.53125 L 4.0625 -2.53125 L 4.0625 -7.15625 L 3.0625 -7.15625 L 0.3125 -2.53125 L 0.3125 -1.859375 L 3.203125 -1.859375 L 3.203125 0 L 4.0625 0 L 4.0625 -1.859375 Z M 3.265625 -2.53125 L 1.15625 -2.53125 C 1.71875 -3.46875 3.25 -6.046875 3.265625 -6.671875 Z M 3.265625 -2.53125 "/>
</g>
<g id="glyph-1-4">
<path d="M 4.890625 0 L 4.890625 -0.78125 L 2.90625 -0.78125 C 2.78125 -0.78125 2.65625 -0.765625 2.515625 -0.765625 L 1.328125 -0.765625 C 1.671875 -1.0625 2.515625 -1.890625 2.84375 -2.203125 C 3.046875 -2.40625 3.609375 -2.859375 3.8125 -3.046875 C 4.3125 -3.546875 4.890625 -4.125 4.890625 -5.046875 C 4.890625 -6.296875 4.015625 -7.390625 2.578125 -7.390625 C 1.328125 -7.390625 0.71875 -6.546875 0.453125 -5.609375 C 0.59375 -5.421875 0.640625 -5.359375 0.671875 -5.328125 C 0.6875 -5.296875 0.796875 -5.15625 0.90625 -5 C 1.125 -5.84375 1.421875 -6.703125 2.421875 -6.703125 C 3.453125 -6.703125 4 -5.875 4 -5.03125 C 4 -4.09375 3.375 -3.484375 2.734375 -2.828125 L 1.890625 -2.046875 L 0.546875 -0.703125 L 0.546875 0 Z M 4.890625 0 "/>
</g>
<g id="glyph-1-5">
<path d="M 4.890625 -2.21875 C 4.890625 -3.578125 3.953125 -4.65625 2.828125 -4.65625 C 2.40625 -4.65625 1.984375 -4.5 1.671875 -4.203125 L 1.671875 -6.453125 L 4.53125 -6.453125 L 4.53125 -7.15625 L 0.890625 -7.15625 L 0.890625 -3.125 L 1.609375 -3.125 C 1.78125 -3.5625 2.1875 -3.984375 2.828125 -3.984375 C 3.34375 -3.984375 3.921875 -3.546875 3.921875 -2.234375 C 3.921875 -0.421875 2.59375 -0.421875 2.5 -0.421875 C 1.765625 -0.421875 1.09375 -0.84375 0.78125 -1.4375 L 0.421875 -0.828125 C 0.875 -0.203125 1.625 0.234375 2.515625 0.234375 C 3.8125 0.234375 4.890625 -0.84375 4.890625 -2.21875 Z M 4.890625 -2.21875 "/>
</g>
<g id="glyph-1-6">
<path d="M 4.984375 -2.421875 C 4.984375 -3.8125 4.265625 -5.03125 3.21875 -5.03125 C 2.875 -5.03125 2.046875 -4.953125 1.375 -4.140625 C 1.515625 -5.890625 2.375 -6.765625 3.375 -6.765625 C 3.796875 -6.765625 4.140625 -6.6875 4.53125 -6.53125 L 4.53125 -7.171875 C 3.96875 -7.390625 3.515625 -7.390625 3.375 -7.390625 C 1.828125 -7.390625 0.453125 -5.859375 0.453125 -3.515625 C 0.453125 -0.421875 1.8125 0.234375 2.734375 0.234375 C 3.390625 0.234375 3.859375 -0.015625 4.28125 -0.5 C 4.78125 -1.0625 4.984375 -1.5625 4.984375 -2.421875 Z M 4.09375 -2.421875 C 4.09375 -2.046875 4.09375 -1.546875 3.828125 -1.09375 C 3.640625 -0.796875 3.359375 -0.421875 2.734375 -0.421875 C 1.578125 -0.421875 1.421875 -2.03125 1.390625 -2.390625 C 1.390625 -2.546875 1.390625 -2.5625 1.390625 -2.6875 C 1.390625 -3.5 1.890625 -4.375 2.796875 -4.375 C 3.3125 -4.375 3.625 -4.09375 3.84375 -3.703125 C 4.0625 -3.296875 4.09375 -2.90625 4.09375 -2.421875 Z M 4.09375 -2.421875 "/>
</g>
<g id="glyph-1-7">
<path d="M 4.984375 -3.5625 C 4.984375 -4.421875 4.9375 -5.4375 4.484375 -6.3125 C 4.03125 -7.125 3.28125 -7.390625 2.71875 -7.390625 C 2.078125 -7.390625 1.3125 -7.09375 0.875 -6.125 C 0.515625 -5.328125 0.453125 -4.421875 0.453125 -3.5625 C 0.453125 -2.6875 0.5 -1.890625 0.828125 -1.09375 C 1.265625 -0.046875 2.09375 0.234375 2.71875 0.234375 C 3.515625 0.234375 4.203125 -0.203125 4.546875 -0.953125 C 4.875 -1.671875 4.984375 -2.390625 4.984375 -3.5625 Z M 4.140625 -3.6875 C 4.140625 -2.96875 4.140625 -2.28125 3.9375 -1.59375 C 3.65625 -0.59375 3.078125 -0.421875 2.71875 -0.421875 C 2.15625 -0.421875 1.71875 -0.84375 1.5 -1.625 C 1.3125 -2.25 1.3125 -2.828125 1.3125 -3.6875 C 1.3125 -4.375 1.3125 -5.03125 1.5 -5.625 C 1.5625 -5.828125 1.828125 -6.734375 2.71875 -6.734375 C 3.5625 -6.734375 3.84375 -5.90625 3.921875 -5.703125 C 4.140625 -5.09375 4.140625 -4.359375 4.140625 -3.6875 Z M 4.140625 -3.6875 "/>
</g>
<g id="glyph-1-8">
<path d="M 1.96875 -0.015625 L 1.96875 -0.90625 L 1.0625 -0.90625 L 1.0625 0 L 1.328125 0 L 1.0625 1.359375 L 1.5 1.359375 Z M 1.96875 -0.015625 "/>
</g>
<g id="glyph-1-9">
<path d="M 4.984375 -3.65625 C 4.984375 -6.703125 3.6875 -7.390625 2.765625 -7.390625 C 2 -7.390625 1.546875 -7.0625 1.171875 -6.65625 C 0.484375 -5.921875 0.453125 -5.203125 0.453125 -4.734375 C 0.453125 -3.34375 1.171875 -2.109375 2.21875 -2.109375 C 2.90625 -2.109375 3.59375 -2.4375 4.0625 -3.015625 C 3.953125 -1.265625 3.109375 -0.421875 2.25 -0.421875 C 1.875 -0.421875 1.515625 -0.515625 1.125 -0.84375 L 0.78125 -0.265625 C 1.15625 0.015625 1.5625 0.234375 2.234375 0.234375 C 3.671875 0.234375 4.984375 -1.28125 4.984375 -3.65625 Z M 4.046875 -4.484375 C 4.046875 -3.59375 3.515625 -2.78125 2.65625 -2.78125 C 2.140625 -2.78125 1.828125 -3.03125 1.609375 -3.4375 C 1.359375 -3.859375 1.359375 -4.265625 1.359375 -4.734375 C 1.359375 -5.21875 1.359375 -5.65625 1.671875 -6.140625 C 1.890625 -6.453125 2.1875 -6.765625 2.765625 -6.765625 C 3.828125 -6.765625 4.015625 -5.28125 4.03125 -4.75 C 4.046875 -4.671875 4.046875 -4.5625 4.046875 -4.484375 Z M 4.046875 -4.484375 "/>
</g>
<g id="glyph-2-0">
<path d="M 2.109375 0 L 2.109375 -0.96875 L 1.140625 -0.96875 L 1.140625 0 Z M 2.109375 0 "/>
</g>
<g id="glyph-3-0">
<path d="M 5.296875 -4.15625 C 5.34375 -4.3125 5.34375 -4.328125 5.34375 -4.40625 C 5.34375 -4.609375 5.1875 -4.703125 5.03125 -4.703125 C 4.921875 -4.703125 4.75 -4.640625 4.640625 -4.46875 C 4.625 -4.421875 4.53125 -4.078125 4.5 -3.875 C 4.421875 -3.59375 4.34375 -3.296875 4.28125 -3.015625 L 3.78125 -1.046875 C 3.734375 -0.890625 3.265625 -0.125 2.546875 -0.125 C 2 -0.125 1.875 -0.59375 1.875 -1 C 1.875 -1.5 2.0625 -2.1875 2.4375 -3.140625 C 2.609375 -3.59375 2.65625 -3.703125 2.65625 -3.921875 C 2.65625 -4.421875 2.296875 -4.828125 1.75 -4.828125 C 0.71875 -4.828125 0.3125 -3.234375 0.3125 -3.140625 C 0.3125 -3.03125 0.421875 -3.03125 0.453125 -3.03125 C 0.5625 -3.03125 0.5625 -3.046875 0.625 -3.234375 C 0.921875 -4.25 1.359375 -4.578125 1.71875 -4.578125 C 1.8125 -4.578125 2 -4.578125 2 -4.234375 C 2 -3.953125 1.890625 -3.671875 1.8125 -3.46875 C 1.375 -2.3125 1.171875 -1.6875 1.171875 -1.171875 C 1.171875 -0.203125 1.859375 0.125 2.515625 0.125 C 2.9375 0.125 3.296875 -0.0625 3.609375 -0.375 C 3.46875 0.203125 3.34375 0.734375 2.90625 1.3125 C 2.625 1.671875 2.203125 2 1.703125 2 C 1.546875 2 1.0625 1.96875 0.875 1.53125 C 1.046875 1.53125 1.1875 1.53125 1.34375 1.40625 C 1.453125 1.3125 1.5625 1.171875 1.5625 0.953125 C 1.5625 0.625 1.265625 0.578125 1.15625 0.578125 C 0.90625 0.578125 0.546875 0.75 0.546875 1.28125 C 0.546875 1.828125 1.03125 2.234375 1.703125 2.234375 C 2.828125 2.234375 3.953125 1.25 4.25 0.015625 Z M 5.296875 -4.15625 "/>
</g>
<g id="glyph-3-1">
<path d="M 10 -6.1875 C 10.28125 -6.65625 10.53125 -7.0625 11.21875 -7.109375 C 11.328125 -7.125 11.4375 -7.125 11.4375 -7.328125 C 11.4375 -7.375 11.390625 -7.453125 11.296875 -7.453125 C 11.03125 -7.453125 10.734375 -7.421875 10.453125 -7.421875 C 10.09375 -7.421875 9.6875 -7.453125 9.328125 -7.453125 C 9.265625 -7.453125 9.125 -7.453125 9.125 -7.234375 C 9.125 -7.125 9.21875 -7.109375 9.28125 -7.109375 C 9.546875 -7.09375 9.921875 -7.015625 9.921875 -6.6875 C 9.921875 -6.5625 9.875 -6.484375 9.78125 -6.328125 L 6.84375 -1.1875 L 6.4375 -6.59375 C 6.421875 -6.8125 6.40625 -7.09375 7.203125 -7.109375 C 7.390625 -7.109375 7.5 -7.109375 7.5 -7.328125 C 7.5 -7.4375 7.375 -7.453125 7.328125 -7.453125 C 6.890625 -7.453125 6.4375 -7.421875 6 -7.421875 C 5.75 -7.421875 5.109375 -7.453125 4.859375 -7.453125 C 4.78125 -7.453125 4.640625 -7.453125 4.640625 -7.234375 C 4.640625 -7.109375 4.75 -7.109375 4.90625 -7.109375 C 5.390625 -7.109375 5.46875 -7.046875 5.484375 -6.84375 L 5.546875 -6 L 2.796875 -1.1875 L 2.375 -6.71875 C 2.375 -6.84375 2.375 -7.09375 3.203125 -7.109375 C 3.3125 -7.109375 3.4375 -7.109375 3.4375 -7.328125 C 3.4375 -7.453125 3.296875 -7.453125 3.28125 -7.453125 C 2.84375 -7.453125 2.390625 -7.421875 1.9375 -7.421875 C 1.5625 -7.421875 1.171875 -7.453125 0.796875 -7.453125 C 0.734375 -7.453125 0.59375 -7.453125 0.59375 -7.234375 C 0.59375 -7.109375 0.703125 -7.109375 0.875 -7.109375 C 1.421875 -7.109375 1.421875 -7.015625 1.453125 -6.703125 L 1.9375 -0.046875 C 1.953125 0.15625 1.96875 0.234375 2.109375 0.234375 C 2.25 0.234375 2.28125 0.171875 2.375 0.015625 L 5.578125 -5.546875 L 5.984375 -0.046875 C 6.015625 0.1875 6.03125 0.234375 6.15625 0.234375 C 6.296875 0.234375 6.375 0.125 6.421875 0.03125 Z M 10 -6.1875 "/>
</g>
<g id="glyph-3-2">
<path d="M 3.640625 -3.296875 C 3.703125 -3.578125 3.953125 -4.578125 4.71875 -4.578125 C 4.78125 -4.578125 5.03125 -4.578125 5.265625 -4.4375 C 4.96875 -4.390625 4.75 -4.109375 4.75 -3.84375 C 4.75 -3.671875 4.859375 -3.46875 5.15625 -3.46875 C 5.40625 -3.46875 5.75 -3.671875 5.75 -4.09375 C 5.75 -4.671875 5.109375 -4.828125 4.734375 -4.828125 C 4.09375 -4.828125 3.71875 -4.25 3.59375 -3.984375 C 3.3125 -4.71875 2.71875 -4.828125 2.40625 -4.828125 C 1.28125 -4.828125 0.65625 -3.40625 0.65625 -3.140625 C 0.65625 -3.03125 0.765625 -3.03125 0.78125 -3.03125 C 0.875 -3.03125 0.90625 -3.046875 0.921875 -3.15625 C 1.296875 -4.3125 2.015625 -4.578125 2.390625 -4.578125 C 2.59375 -4.578125 2.984375 -4.484375 2.984375 -3.84375 C 2.984375 -3.515625 2.796875 -2.78125 2.390625 -1.25 C 2.21875 -0.578125 1.828125 -0.125 1.359375 -0.125 C 1.28125 -0.125 1.03125 -0.125 0.8125 -0.265625 C 1.078125 -0.3125 1.3125 -0.546875 1.3125 -0.84375 C 1.3125 -1.140625 1.078125 -1.234375 0.921875 -1.234375 C 0.59375 -1.234375 0.3125 -0.953125 0.3125 -0.59375 C 0.3125 -0.09375 0.859375 0.125 1.34375 0.125 C 2.0625 0.125 2.453125 -0.640625 2.484375 -0.703125 C 2.625 -0.3125 3.015625 0.125 3.671875 0.125 C 4.78125 0.125 5.40625 -1.28125 5.40625 -1.5625 C 5.40625 -1.671875 5.3125 -1.671875 5.28125 -1.671875 C 5.1875 -1.671875 5.15625 -1.625 5.140625 -1.546875 C 4.78125 -0.375 4.03125 -0.125 3.6875 -0.125 C 3.265625 -0.125 3.09375 -0.46875 3.09375 -0.84375 C 3.09375 -1.078125 3.15625 -1.3125 3.265625 -1.796875 Z M 3.640625 -3.296875 "/>
</g>
<g id="glyph-3-3">
<path d="M 2.609375 -7.453125 C 2.609375 -7.453125 2.609375 -7.5625 2.46875 -7.5625 C 2.21875 -7.5625 1.421875 -7.484375 1.140625 -7.453125 C 1.046875 -7.453125 0.921875 -7.4375 0.921875 -7.234375 C 0.921875 -7.109375 1.03125 -7.109375 1.1875 -7.109375 C 1.71875 -7.109375 1.734375 -7.03125 1.734375 -6.921875 C 1.734375 -6.84375 1.640625 -6.484375 1.578125 -6.25 L 0.6875 -2.6875 C 0.5625 -2.15625 0.515625 -1.96875 0.515625 -1.59375 C 0.515625 -0.5625 1.09375 0.125 1.890625 0.125 C 3.1875 0.125 4.53125 -1.5 4.53125 -3.078125 C 4.53125 -4.0625 3.953125 -4.828125 3.078125 -4.828125 C 2.578125 -4.828125 2.125 -4.5 1.796875 -4.171875 Z M 1.578125 -3.328125 C 1.640625 -3.5625 1.640625 -3.59375 1.75 -3.703125 C 2.28125 -4.421875 2.765625 -4.578125 3.046875 -4.578125 C 3.453125 -4.578125 3.734375 -4.25 3.734375 -3.5625 C 3.734375 -2.90625 3.375 -1.65625 3.1875 -1.25 C 2.828125 -0.515625 2.328125 -0.125 1.890625 -0.125 C 1.53125 -0.125 1.171875 -0.421875 1.171875 -1.21875 C 1.171875 -1.421875 1.171875 -1.640625 1.34375 -2.328125 Z M 1.578125 -3.328125 "/>
</g>
<g id="glyph-4-0">
<path d="M 7.5 -3.5625 C 7.65625 -3.5625 7.859375 -3.5625 7.859375 -3.78125 C 7.859375 -4 7.65625 -4 7.5 -4 L 0.96875 -4 C 0.8125 -4 0.609375 -4 0.609375 -3.78125 C 0.609375 -3.5625 0.8125 -3.5625 0.984375 -3.5625 Z M 7.5 -1.453125 C 7.65625 -1.453125 7.859375 -1.453125 7.859375 -1.671875 C 7.859375 -1.890625 7.65625 -1.890625 7.5 -1.890625 L 0.984375 -1.890625 C 0.8125 -1.890625 0.609375 -1.890625 0.609375 -1.671875 C 0.609375 -1.453125 0.8125 -1.453125 0.96875 -1.453125 Z M 7.5 -1.453125 "/>
</g>
<g id="glyph-4-1">
<path d="M 4.453125 -2.515625 L 7.5 -2.515625 C 7.65625 -2.515625 7.859375 -2.515625 7.859375 -2.71875 C 7.859375 -2.9375 7.65625 -2.9375 7.5 -2.9375 L 4.453125 -2.9375 L 4.453125 -6 C 4.453125 -6.15625 4.453125 -6.359375 4.25 -6.359375 C 4.03125 -6.359375 4.03125 -6.15625 4.03125 -6 L 4.03125 -2.9375 L 0.96875 -2.9375 C 0.8125 -2.9375 0.609375 -2.9375 0.609375 -2.71875 C 0.609375 -2.515625 0.8125 -2.515625 0.96875 -2.515625 L 4.03125 -2.515625 L 4.03125 0.546875 C 4.03125 0.703125 4.03125 0.90625 4.25 0.90625 C 4.453125 0.90625 4.453125 0.703125 4.453125 0.546875 Z M 4.453125 -2.515625 "/>
</g>
</g>
</defs>
<g fill="rgb(0%, 0%, 0%)" fill-opacity="1">
<use xlink:href="#glyph-0-0" x="3.984" y="13.181"/>
<use xlink:href="#glyph-0-1" x="14.8931" y="13.181"/>
</g>
<g fill="rgb(0%, 0%, 0%)" fill-opacity="1">
<use xlink:href="#glyph-1-0" x="25.802" y="13.181"/>
</g>
<g fill="rgb(0%, 0%, 0%)" fill-opacity="1">
<use xlink:href="#glyph-1-1" x="33.67837" y="13.181"/>
<use xlink:href="#glyph-1-2" x="39.13292" y="13.181"/>
<use xlink:href="#glyph-1-3" x="44.58747" y="13.181"/>
</g>
<path fill-rule="nonzero" fill="rgb(79.998779%, 79.998779%, 100%)" fill-opacity="1" stroke-width="0.3985" stroke-linecap="butt" stroke-linejoin="miter" stroke="rgb(0%, 0%, 0%)" stroke-opacity="1" stroke-miterlimit="10" d="M 8.503281 70.8665 C 8.503281 75.565719 4.698594 79.370406 -0.000625 79.370406 C -4.695937 79.370406 -8.504531 75.565719 -8.504531 70.8665 C -8.504531 66.171187 -4.695937 62.362594 -0.000625 62.362594 C 4.698594 62.362594 8.503281 66.171187 8.503281 70.8665 Z M 8.503281 70.8665 " transform="matrix(1, 0, 0, -1, 55.36, 94.054)"/>
<path fill-rule="nonzero" fill="rgb(79.998779%, 79.998779%, 100%)" fill-opacity="1" stroke-width="0.3985" stroke-linecap="butt" stroke-linejoin="miter" stroke="rgb(0%, 0%, 0%)" stroke-opacity="1" stroke-miterlimit="10" d="M 8.503281 51.02275 C 8.503281 55.721969 4.698594 59.526656 -0.000625 59.526656 C -4.695937 59.526656 -8.504531 55.721969 -8.504531 51.02275 C -8.504531 46.327437 -4.695937 42.518844 -0.000625 42.518844 C 4.698594 42.518844 8.503281 46.327437 8.503281 51.02275 Z M 8.503281 51.02275 " transform="matrix(1, 0, 0, -1, 55.36, 94.054)"/>
<path fill-rule="nonzero" fill="rgb(79.998779%, 79.998779%, 100%)" fill-opacity="1" stroke-width="0.3985" stroke-linecap="butt" stroke-linejoin="miter" stroke="rgb(0%, 0%, 0%)" stroke-opacity="1" stroke-miterlimit="10" d="M 8.503281 31.182906 C 8.503281 35.878219 4.698594 39.686812 -0.000625 39.686812 C -4.695937 39.686812 -8.504531 35.878219 -8.504531 31.182906 C -8.504531 26.483687 -4.695937 22.679 -0.000625 22.679 C 4.698594 22.679 8.503281 26.483687 8.503281 31.182906 Z M 8.503281 31.182906 " transform="matrix(1, 0, 0, -1, 55.36, 94.054)"/>
<path fill-rule="nonzero" fill="rgb(79.998779%, 79.998779%, 100%)" fill-opacity="1" stroke-width="0.3985" stroke-linecap="butt" stroke-linejoin="miter" stroke="rgb(0%, 0%, 0%)" stroke-opacity="1" stroke-miterlimit="10" d="M 8.503281 -8.504594 C 8.503281 -3.805375 4.698594 -0.0006875 -0.000625 -0.0006875 C -4.695937 -0.0006875 -8.504531 -3.805375 -8.504531 -8.504594 C -8.504531 -13.199906 -4.695937 -17.0085 -0.000625 -17.0085 C 4.698594 -17.0085 8.503281 -13.199906 8.503281 -8.504594 Z M 8.503281 -8.504594 " transform="matrix(1, 0, 0, -1, 55.36, 94.054)"/>
<g fill="rgb(0%, 0%, 0%)" fill-opacity="1">
<use xlink:href="#glyph-2-0" x="53.734" y="116.22"/>
</g>
<g fill="rgb(0%, 0%, 0%)" fill-opacity="1">
<use xlink:href="#glyph-2-0" x="53.734" y="120.205"/>
</g>
<g fill="rgb(0%, 0%, 0%)" fill-opacity="1">
<use xlink:href="#glyph-2-0" x="53.734" y="124.19"/>
</g>
<g fill="rgb(0%, 0%, 0%)" fill-opacity="1">
<use xlink:href="#glyph-0-0" x="145.718" y="13.181"/>
<use xlink:href="#glyph-0-2" x="156.6271" y="13.181"/>
</g>
<g fill="rgb(0%, 0%, 0%)" fill-opacity="1">
<use xlink:href="#glyph-1-0" x="167.536" y="13.181"/>
</g>
<g fill="rgb(0%, 0%, 0%)" fill-opacity="1">
<use xlink:href="#glyph-1-4" x="175.41237" y="13.181"/>
<use xlink:href="#glyph-1-5" x="180.86692" y="13.181"/>
<use xlink:href="#glyph-1-6" x="186.32147" y="13.181"/>
</g>
<path fill-rule="nonzero" fill="rgb(100%, 79.998779%, 79.998779%)" fill-opacity="1" stroke-width="0.3985" stroke-linecap="butt" stroke-linejoin="miter" stroke="rgb(0%, 0%, 0%)" stroke-opacity="1" stroke-miterlimit="10" d="M 93.54625 70.8665 C 93.54625 75.565719 89.737656 79.370406 85.042344 79.370406 C 80.343125 79.370406 76.534531 75.565719 76.534531 70.8665 C 76.534531 66.171187 80.343125 62.362594 85.042344 62.362594 C 89.737656 62.362594 93.54625 66.171187 93.54625 70.8665 Z M 93.54625 70.8665 " transform="matrix(1, 0, 0, -1, 55.36, 94.054)"/>
<path fill-rule="nonzero" fill="rgb(100%, 79.998779%, 79.998779%)" fill-opacity="1" stroke-width="0.3985" stroke-linecap="butt" stroke-linejoin="miter" stroke="rgb(0%, 0%, 0%)" stroke-opacity="1" stroke-miterlimit="10" d="M 93.54625 48.190719 C 93.54625 52.886031 89.737656 56.694625 85.042344 56.694625 C 80.343125 56.694625 76.534531 52.886031 76.534531 48.190719 C 76.534531 43.4915 80.343125 39.686812 85.042344 39.686812 C 89.737656 39.686812 93.54625 43.4915 93.54625 48.190719 Z M 93.54625 48.190719 " transform="matrix(1, 0, 0, -1, 55.36, 94.054)"/>
<path fill-rule="nonzero" fill="rgb(100%, 79.998779%, 79.998779%)" fill-opacity="1" stroke-width="0.3985" stroke-linecap="butt" stroke-linejoin="miter" stroke="rgb(0%, 0%, 0%)" stroke-opacity="1" stroke-miterlimit="10" d="M 93.54625 25.511031 C 93.54625 30.21025 89.737656 34.014937 85.042344 34.014937 C 80.343125 34.014937 76.534531 30.21025 76.534531 25.511031 C 76.534531 20.815719 80.343125 17.007125 85.042344 17.007125 C 89.737656 17.007125 93.54625 20.815719 93.54625 25.511031 Z M 93.54625 25.511031 " transform="matrix(1, 0, 0, -1, 55.36, 94.054)"/>
<path fill-rule="nonzero" fill="rgb(100%, 79.998779%, 79.998779%)" fill-opacity="1" stroke-width="0.3985" stroke-linecap="butt" stroke-linejoin="miter" stroke="rgb(0%, 0%, 0%)" stroke-opacity="1" stroke-miterlimit="10" d="M 93.54625 2.83525 C 93.54625 7.530562 89.737656 11.339156 85.042344 11.339156 C 80.343125 11.339156 76.534531 7.530562 76.534531 2.83525 C 76.534531 -1.863969 80.343125 -5.668656 85.042344 -5.668656 C 89.737656 -5.668656 93.54625 -1.863969 93.54625 2.83525 Z M 93.54625 2.83525 " transform="matrix(1, 0, 0, -1, 55.36, 94.054)"/>
<path fill="none" stroke-width="0.3985" stroke-linecap="butt" stroke-linejoin="miter" stroke="rgb(50%, 50%, 50%)" stroke-opacity="0.3" stroke-miterlimit="10" d="M 8.7025 70.8665 L 76.335313 70.8665 " transform="matrix(1, 0, 0, -1, 55.36, 94.054)"/>
<path fill="none" stroke-width="0.3985" stroke-linecap="butt" stroke-linejoin="miter" stroke="rgb(50%, 50%, 50%)" stroke-opacity="0.3" stroke-miterlimit="10" d="M 8.409531 68.624312 L 76.632188 50.432906 " transform="matrix(1, 0, 0, -1, 55.36, 94.054)"/>
<path fill="none" stroke-width="0.3985" stroke-linecap="butt" stroke-linejoin="miter" stroke="rgb(50%, 50%, 50%)" stroke-opacity="0.3" stroke-miterlimit="10" d="M 7.679063 66.77275 L 77.362656 29.608687 " transform="matrix(1, 0, 0, -1, 55.36, 94.054)"/>
<path fill="none" stroke-width="0.3985" stroke-linecap="butt" stroke-linejoin="miter" stroke="rgb(50%, 50%, 50%)" stroke-opacity="0.3" stroke-miterlimit="10" d="M 6.79625 65.429 L 78.245469 8.27275 " transform="matrix(1, 0, 0, -1, 55.36, 94.054)"/>
<path fill="none" stroke-width="0.3985" stroke-linecap="butt" stroke-linejoin="miter" stroke="rgb(50%, 50%, 50%)" stroke-opacity="0.3" stroke-miterlimit="10" d="M 8.475938 53.003219 L 76.565781 68.889937 " transform="matrix(1, 0, 0, -1, 55.36, 94.054)"/>
<path fill="none" stroke-width="0.3985" stroke-linecap="butt" stroke-linejoin="miter" stroke="rgb(50%, 50%, 50%)" stroke-opacity="0.3" stroke-miterlimit="10" d="M 8.698594 50.733687 L 76.343125 48.479781 " transform="matrix(1, 0, 0, -1, 55.36, 94.054)"/>
<path fill="none" stroke-width="0.3985" stroke-linecap="butt" stroke-linejoin="miter" stroke="rgb(50%, 50%, 50%)" stroke-opacity="0.3" stroke-miterlimit="10" d="M 8.335313 48.52275 L 76.706406 28.011031 " transform="matrix(1, 0, 0, -1, 55.36, 94.054)"/>
<path fill="none" stroke-width="0.3985" stroke-linecap="butt" stroke-linejoin="miter" stroke="rgb(50%, 50%, 50%)" stroke-opacity="0.3" stroke-miterlimit="10" d="M 7.573594 46.733687 L 77.468125 7.124312 " transform="matrix(1, 0, 0, -1, 55.36, 94.054)"/>
<path fill="none" stroke-width="0.3985" stroke-linecap="butt" stroke-linejoin="miter" stroke="rgb(50%, 50%, 50%)" stroke-opacity="0.3" stroke-miterlimit="10" d="M 7.886094 34.862594 L 77.151719 67.186812 " transform="matrix(1, 0, 0, -1, 55.36, 94.054)"/>
<path fill="none" stroke-width="0.3985" stroke-linecap="butt" stroke-linejoin="miter" stroke="rgb(50%, 50%, 50%)" stroke-opacity="0.3" stroke-miterlimit="10" d="M 8.534531 32.889937 L 76.507188 46.483687 " transform="matrix(1, 0, 0, -1, 55.36, 94.054)"/>
<path fill="none" stroke-width="0.3985" stroke-linecap="butt" stroke-linejoin="miter" stroke="rgb(50%, 50%, 50%)" stroke-opacity="0.3" stroke-miterlimit="10" d="M 8.682969 30.600875 L 76.354844 26.089156 " transform="matrix(1, 0, 0, -1, 55.36, 94.054)"/>
<path fill="none" stroke-width="0.3985" stroke-linecap="butt" stroke-linejoin="miter" stroke="rgb(50%, 50%, 50%)" stroke-opacity="0.3" stroke-miterlimit="10" d="M 8.257188 28.429 L 76.784531 5.58525 " transform="matrix(1, 0, 0, -1, 55.36, 94.054)"/>
<path fill="none" stroke-width="0.3985" stroke-linecap="butt" stroke-linejoin="miter" stroke="rgb(50%, 50%, 50%)" stroke-opacity="0.3" stroke-miterlimit="10" d="M 6.362656 -2.567094 L 78.679063 64.929 " transform="matrix(1, 0, 0, -1, 55.36, 94.054)"/>
<path fill="none" stroke-width="0.3985" stroke-linecap="butt" stroke-linejoin="miter" stroke="rgb(50%, 50%, 50%)" stroke-opacity="0.3" stroke-miterlimit="10" d="M 7.241563 -3.676469 L 77.800156 43.362594 " transform="matrix(1, 0, 0, -1, 55.36, 94.054)"/>
<path fill="none" stroke-width="0.3985" stroke-linecap="butt" stroke-linejoin="miter" stroke="rgb(50%, 50%, 50%)" stroke-opacity="0.3" stroke-miterlimit="10" d="M 8.081406 -5.270219 L 76.960313 22.280562 " transform="matrix(1, 0, 0, -1, 55.36, 94.054)"/>
<path fill="none" stroke-width="0.3985" stroke-linecap="butt" stroke-linejoin="miter" stroke="rgb(50%, 50%, 50%)" stroke-opacity="0.3" stroke-miterlimit="10" d="M 8.628281 -7.35225 L 76.413438 1.682906 " transform="matrix(1, 0, 0, -1, 55.36, 94.054)"/>
<g fill="rgb(0%, 0%, 0%)" fill-opacity="1">
<use xlink:href="#glyph-3-0" x="69.703" y="153.475"/>
</g>
<g fill="rgb(0%, 0%, 0%)" fill-opacity="1">
<use xlink:href="#glyph-4-0" x="78.473" y="153.475"/>
</g>
<g fill="rgb(0%, 0%, 0%)" fill-opacity="1">
<use xlink:href="#glyph-3-1" x="89.988" y="153.475"/>
</g>
<g fill="rgb(0%, 0%, 0%)" fill-opacity="1">
<use xlink:href="#glyph-3-2" x="101.791646" y="153.475"/>
</g>
<g fill="rgb(0%, 0%, 0%)" fill-opacity="1">
<use xlink:href="#glyph-4-1" x="110.466" y="153.475"/>
</g>
<g fill="rgb(0%, 0%, 0%)" fill-opacity="1">
<use xlink:href="#glyph-3-3" x="121.375" y="153.475"/>
</g>
<g fill="rgb(0%, 0%, 0%)" fill-opacity="1">
<use xlink:href="#glyph-0-3" x="59.698" y="177.352"/>
<use xlink:href="#glyph-0-4" x="70.6071" y="177.352"/>
<use xlink:href="#glyph-0-5" x="81.5162" y="177.352"/>
</g>
<g fill="rgb(0%, 0%, 0%)" fill-opacity="1">
<use xlink:href="#glyph-1-0" x="92.425" y="177.352"/>
</g>
<g fill="rgb(0%, 0%, 0%)" fill-opacity="1">
<use xlink:href="#glyph-1-4" x="100.30137" y="177.352"/>
<use xlink:href="#glyph-1-7" x="105.75592" y="177.352"/>
<use xlink:href="#glyph-1-7" x="111.21047" y="177.352"/>
<use xlink:href="#glyph-1-8" x="116.66502" y="177.352"/>
<use xlink:href="#glyph-1-9" x="119.69775" y="177.352"/>
<use xlink:href="#glyph-1-6" x="125.1523" y="177.352"/>
<use xlink:href="#glyph-1-7" x="130.60685" y="177.352"/>
</g>
</svg>
